<?xml version="1.0" standalone="no"?>
<!DOCTYPE svg PUBLIC "-//W3C//DTD SVG 1.1//EN" "http://www.w3.org/Graphics/SVG/1.1/DTD/svg11.dtd" >
<svg xmlns="http://www.w3.org/2000/svg" xmlns:xlink="http://www.w3.org/1999/xlink" version="1.1">
<metadata>
Created by FontForge 20170812 at Mon Dec 19 17:25:41 2011
 By www-data
</metadata>
<defs>
<font id="ShaltaiW10" horiz-adv-x="761" >
  <font-face 
    font-family="ShaltaiW10"
    font-weight="400"
    font-stretch="normal"
    units-per-em="1000"
    panose-1="4 11 1 6 1 1 2 2 6 4"
    ascent="803"
    descent="-197"
    x-height="642.5"
    cap-height="617.5"
    bbox="-15 -158 1055 865.529"
    underline-thickness="40"
    underline-position="-120"
    unicode-range="U+0020-2122"
  />
<missing-glyph horiz-adv-x="0" 
 />
    <glyph glyph-name=".notdef" horiz-adv-x="0" 
 />
    <glyph glyph-name="glyph1" horiz-adv-x="0" 
 />
    <glyph glyph-name="glyph2" horiz-adv-x="0" 
 />
    <glyph glyph-name="space" unicode=" " horiz-adv-x="233" 
 />
    <glyph glyph-name="exclam" unicode="!" horiz-adv-x="246" 
d="M120 55q17 0 25 -13.5t8 -30.5q-8 -8 -23 -9.5t-32 -1.5q-12 4 -21 10q-8 5 -12.5 13t0.5 21q4 12 11.5 17t16 5t16 -3.5t11.5 -7.5zM208 429q0 -58 -6 -108t-17.5 -87t-27.5 -58.5t-37 -21.5q-17 0 -31 21.5t-25.5 58.5t-19.5 87t-12 108q0 3 -0.5 23.5t1 50t6 63
t14.5 61.5t26 47t41 19q27 0 45 -18t29 -45.5t15.5 -60t5 -62t-1.5 -51.5t-5 -27z" />
    <glyph glyph-name="quotedbl" unicode="&#x22;" horiz-adv-x="277" 
d="M156 -30h-11h11zM233 69q8 -8 4 -11t-4 -11t-1.5 -16.5t-9.5 -16.5l-33 -33h-11l-11 -11q0 8 5 10q3 1 6 1h-11v-11h-11q0 2 1 5q2 6 10 6h11q8 8 15 11t7 11q-17 0 -25 15t-8 40q-3 12 0 22q2 8 9 15t24 7q12 0 19 -3.5t10 -9t3.5 -11t0.5 -9.5zM156 -30h-11h-11h11h11z
M134 -30h-11h11zM46 -30h-11h11zM134 47q0 -8 -5.5 -16.5t-5.5 -16.5h-11q0 -8 -7 -16.5t-15 -16.5h-11h-11v-11v11v-11h-11h-11l11 11h11q8 8 16.5 11t16.5 11h-11q-8 0 -20.5 15t-12.5 40q0 12 4 22q3 8 9.5 15t19.5 7q25 0 34.5 -12.5t9.5 -20.5v-22zM68 -19h11h-11z" />
    <glyph glyph-name="numbersign" unicode="#" horiz-adv-x="667" 
d="M120 616h-11h11zM164 605h-11h11zM153 616h-11h11h22q8 -8 16.5 -9.5t16.5 -1.5h-11h-11h-11v11h-22zM527 165v11h-11h-11h-22v11h-22q-11 9 -15 10t-7 1q17 -8 26.5 -9.5t17.5 -1.5q-8 0 -17.5 1.5t-26.5 9.5q-3 0 -7 1q-8 2 -15 10h-11v-11q-8 -8 -9.5 -16.5
t-1.5 -16.5q-8 -12 -16 -27.5t-15.5 -30t-13.5 -26t-10 -15.5q-8 -8 -15.5 -16t-12 -13t-3.5 -6.5t9 2.5q-17 -17 -26.5 -25t-17.5 -8l11 22q8 8 16.5 23t16.5 32q25 25 42.5 56.5t34.5 64.5v11q-8 0 -16.5 5.5t-16.5 5.5q-8 8 -22 15t-22 7q-17 -33 -38.5 -49.5
t-38.5 -16.5q-33 16 -33 132q-8 0 -11 1.5t-11 9.5v-121v-11.5t1 -16t3.5 -16t6.5 -11.5q0 -25 -5.5 -27.5t-5.5 5.5q-8 0 -9.5 9.5t-1.5 34.5q0 -8 0 -7t-1 7t-3.5 15.5t-6.5 17.5q0 8 1.5 22t4 30.5t4 34t1.5 34.5v11h-11q-33 25 -62 42.5t-37 34.5q-4 8 -11.5 16
t-13.5 13t-9 6.5t1 -2.5q-8 17 -15 26.5t-7 17.5q3 0 7 -1t15 -10q4 -4 10 -11.5t12 -16t12 -16t10 -11.5q25 -17 49.5 -38.5t49.5 -38.5v11q8 42 17.5 89.5t26.5 97.5q8 8 11 17.5t11 26.5q-8 8 -22 9.5t-22 1.5q0 2 -1 5q-2 6 -10 6h11l11 -11q0 8 -6 10q-3 1 -5 1
q3 -3 7 -6q7 -5 15 -5h11h11q0 2 1 5q2 6 10 6q0 8 5.5 16.5t5.5 16.5q0 -8 -5.5 -12.5t-5.5 -20.5q-5 0 -5 1.5t1 3.5q1 3 4 6q0 2 1 5q2 6 10 6v11v11l11 11v11q8 0 10 5q1 3 1 6q0 8 5.5 16.5t5.5 16.5v-22v11v11h11q-8 0 -10 -6q-1 -3 -1 -5q0 -8 -7 -22t-15 -22v-11
v-11v11q0 -8 -5.5 -11t-5.5 -11v-11l-11 -11v-11v-11h11q4 12 12 24t17 20t19 11.5t18 -0.5q33 -8 44 -37t11 -62q25 -17 49.5 -27.5t49.5 -27.5v11v11q0 17 1.5 27.5t9.5 27.5v11v-11v-22v11v11v-22v-11v-11q-8 -8 -5.5 -11t-5.5 -11v-22v11v-11q8 0 11 -1.5t11 -9.5
q8 0 11 -5.5t11 -5.5q25 -17 47 -33t30 -33l22 -22q8 -17 15 -26.5t7 -17.5l-22 11q0 4 -3.5 10t-9 12l-11 12t-9.5 10q-17 25 -45.5 44t-53.5 44h-11v-11q0 -8 -1.5 -16.5t-9.5 -16.5v-44q-17 -42 -27.5 -81.5t-27.5 -72.5q0 -8 1.5 -9.5t9.5 -1.5q3 0 7 -1t15 -10h11h11
q8 -8 11 -9.5t11 -1.5h-11h11h11q8 -8 22 -11t22 -11h11h-11l-11 11v-11v11q8 -8 11 -9.5t11 -1.5h-33zM483 451v11v-11zM208 429q4 4 8.5 19.5t9.5 37t11.5 47t14.5 50.5q-17 -42 -26.5 -77t-17.5 -77q-8 -17 -9.5 -38.5t-1.5 -38.5v-22h11v99zM472 429v11v-11zM406 220
q0 17 7 33t15 33q8 33 22 67t22 76v22v11q-8 8 -17.5 16.5t-26.5 16.5q-8 8 -22 15t-22 7q0 -21 -2 -41t-5 -36.5t-7 -28t-8 -15.5q-8 -42 -17.5 -74.5t-26.5 -57.5q25 -17 44 -26.5t44 -17.5zM428 209h-11h11zM175 605h-11h11zM659 154h-11h11zM626 154h11h11h-22zM604 154
h11h-11h-22q-8 0 -16.5 5.5t-16.5 5.5h11h11q0 -8 5 -10q3 -1 6 -1h22zM593 165h11h-11zM131 616h-11h11zM494 594v11v-11zM494 649v-11q-3 0 -4 1q-3 3 4 10zM494 583v33v-11v-11v-22v-11v-11v33zM494 660v-11v11zM351 792v-11v11zM494 583v11v-11zM351 781l-11 -11
q0 8 1.5 9.5t9.5 1.5zM296 715q0 -4 -1.5 -8t-2.5 -6t-0.5 -1.5l4.5 4.5q0 8 1.5 15t9.5 7q0 8 5 15q3 4 6 7l11 11l-11 -11q0 -3 -1 -6q-2 -5 -10 -5v-11z" />
    <glyph glyph-name="dollar" unicode="$" horiz-adv-x="493" 
d="M115 517h11h-11zM434 220q-17 -33 -36 -63t-52 -47q-66 -33 -132 -33q-4 -4 -6.5 -9.5t-3.5 -9.5t-1 -5.5t0 2.5q-8 -17 -11 -30.5t-11 -13.5q-3 0 -4 3q-1 2 -1 6.5t5 12.5q0 8 5.5 23t5.5 32h-11q0 -3 -1 -6q-2 -5 -10 -5v-33h-11l11 11v11v11l11 11q-25 8 -44 17.5
t-44 26.5q-8 8 -11 16.5t-11 16.5q-8 0 -10 5q-1 3 -1 6v11v-11l-11 11v11q0 2 -1 5q-2 6 -10 6v22v-11v11l-11 11v11v11q0 17 1.5 38.5t9.5 38.5q0 2 1 5q2 6 10 6q0 4 3.5 10t9 12l11 12t9.5 10h11q8 8 11 9.5t11 1.5q-8 0 -11 -1.5t-11 -9.5h11q33 17 53.5 18t45.5 -7
q0 8 -5.5 17.5t-5.5 26.5v55h-11v11h-11q-42 17 -63.5 53.5t-13.5 78.5q0 17 8 38.5t25 38.5l11 11q0 17 -5.5 26.5t-5.5 17.5q-5 12 -5 19t1 10q1 4 4 4q4 0 6.5 -4t5.5 -10t8 -14t13 -16q-8 8 -8 1.5t8 -23.5l11 11v11l-11 11l11 -11v-11q25 8 44 8t44 -8q8 0 11 -5.5
t11 -5.5v-11h11h-11h11v-11q8 0 10 -6q1 -3 1 -5v-11h11v-44v-11v11v11v-22q0 8 -1.5 16.5t-9.5 16.5v11q0 8 -5.5 11t-5.5 11l-11 11q-8 8 -13.5 9.5t2.5 1.5l22 -22q-8 8 -15 11t-7 11q-8 0 -15 1.5t-7 9.5h-44q0 -8 -7 -9.5t-15 -1.5q0 -8 5.5 -11t5.5 -11t-5.5 -2.5
t-5.5 13.5v11l-11 -11q8 -25 16.5 -62t16.5 -70v-44v-11h11v22q0 8 -1.5 16.5t-9.5 16.5v11v11v11v11l-11 11v11q0 17 -1.5 27.5t-9.5 27.5v11v-11q0 -8 1.5 -11t9.5 -11v11q-8 0 -9.5 7t-1.5 15q0 -8 5.5 -16.5t5.5 -16.5v-11l11 -11v-11v-22q8 -8 9.5 -11t1.5 -11v-11
q3 -6 4 -10q2 -8 -4 -1v44v-44q8 -8 9.5 -16.5t1.5 -16.5v-22h33l11 -11q17 0 38.5 -12.5t38.5 -20.5q33 -29 55.5 -63t34 -70t11 -72.5t-12.5 -69.5zM214 561v11v-11zM269 748l-11 11q0 -3 1 -6q2 -5 10 -5zM170 550q0 -8 7 -9.5t15 -1.5v11q-8 42 -17.5 82.5t-26.5 82.5
q-33 -33 -33 -66v-33q0 -12 5.5 -22.5t13.5 -19t18 -14.5t18 -10zM38 330q0 -8 -1.5 -9.5t-9.5 -1.5h11h-11q0 8 5.5 11t5.5 11v11v-22zM93 143q0 -3 1 -6q2 -5 10 -5zM214 407l11 -11v99h-11v-88zM269 132q42 8 73 38t48 72q0 8 1.5 17.5t9.5 26.5q0 42 -20.5 81.5
t-45.5 72.5q-8 12 -22.5 22t-25.5 15t-15 4.5t8 -8.5q-8 8 -22 11t-22 11q0 -33 1.5 -59t9.5 -51q12 -13 20.5 -26.5t13.5 -24.5q6 -13 10 -26q25 -58 18 -104.5t-40 -71.5zM148 0v22v-11v-11zM181 429v-11q-8 0 -16.5 5.5t-16.5 5.5h-11h33h11zM159 55v11v-11zM313 616h-11
h11zM247 583q8 8 11 9.5t11 1.5l-11 -11h-11zM280 605q0 -8 -12.5 -9.5t-20.5 -1.5q-7 0 -11 3q-11 5 -11 19q0 8 3.5 11t9 3t11 -1.5t9.5 -1.5q8 0 15 -7t7 -15zM170 759h-11h11zM313 616q0 8 -1.5 9.5t-9.5 1.5h11v-11zM313 649h-11v-22l-11 -11q0 -3 -1 -6q-2 -5 -10 -5
q8 0 10 5q1 3 1 6q2 3 5 7q6 8 6 15v22q0 8 5.5 2.5t5.5 -13.5zM302 616v-11v11zM478 286v-22v-22v-22q-8 -25 -17.5 -49.5t-26.5 -49.5q-8 0 -11 -5.5t-11 -5.5q-4 -4 -8.5 -11.5t-9.5 -14.5t-11.5 -12.5t-14.5 -5.5q-17 0 -23.5 -5.5t1.5 -5.5h-33q-8 0 -8 7t8 15
q6 2 12 5q5 2 10.5 4t10.5 2q17 8 33 23t33 32q0 8 7 16.5t15 16.5q8 17 16.5 38.5t16.5 38.5v11v11v11v11v33h11h-11h11q-5 0 -5 -2t1 -4q1 -3 4 -5v11v-22v-11v-11v-11v-11v22zM467 253v11v-11zM71 594q-8 8 -9.5 23t-1.5 32v11q8 8 11 20.5t11 12.5q0 4 1.5 8t2.5 6
t0.5 1.5l-4.5 -4.5q8 8 11 9.5t11 1.5q0 -7 -6 -15q-3 -4 -5 -7q-8 -8 -9.5 -22t-1.5 -22q-8 -8 -10 -15q-1 -4 -1 -7q0 -17 5.5 -27.5t5.5 -27.5v-11h11v-11q0 -3 1 -6q2 -5 10 -5h-11h11h-11v11h-11v11q-3 2 -4 5q-1 2 -1 4t5 2v-11l-11 11v22zM137 814v11v-11zM93 539
q0 -3 1 -6q2 -5 10 -5l11 -11q-8 0 -10 5q-1 3 -1 6h-11v11zM82 407h-11q8 0 9.5 1.5t1.5 9.5v-11zM478 352q-3 0 -6 1q-5 2 -5 10q8 -8 9.5 -11t1.5 -11v-22v11v11v11zM71 396h-11h11zM467 352v11v-11zM467 374l-11 11v11q0 -8 4 -9.5t-4 -1.5q2 0 5 -1q6 -2 6 -10z
M148 814v-22v11q0 2 -1 5q-2 6 -10 6h11zM49 385q8 0 9.5 1.5t1.5 9.5q0 -8 -1.5 -9.5t-9.5 -1.5zM60 396h11h-11z" />
    <glyph glyph-name="percent" unicode="%" horiz-adv-x="550" 
d="M190 165l11 11q0 -3 -1 -6q-2 -5 -10 -5zM157 99q8 8 15 22t7 22h11v11v11v-11v11q8 0 9.5 1.5t1.5 9.5q0 -8 -6 -10q-3 -1 -5 -1l11 11v11l11 11v11v11h11q0 -8 -6 -10q-3 -1 -5 -1q2 0 5 1q6 2 6 10v22v-22h-11v-11q0 8 5 15q3 4 6 7q8 25 16 46t15.5 42t13.5 42t10 46
q8 25 15 49.5t7 49.5q8 42 15 88t7 88v13.5t-1 19.5t-3.5 19.5t-6.5 13.5q0 22 5 29q3 4 6 4q8 -8 11 -19t11 -36q-4 8 -6 5.5t-2 -11t2 -19.5t6 -19q0 -25 -7 -62t-15 -70v-44q-8 -58 -24.5 -110t-41.5 -110q0 -17 -7 -26.5t-15 -17.5q0 -8 -5.5 -22t-5.5 -22
q-8 -8 -11 -16.5t-11 -16.5q8 8 11 16.5t11 16.5q0 8 -5.5 2.5t-5.5 -13.5v-11l-11 -11v-11q-8 0 -10 -6q-1 -3 -1 -5q0 -8 -6 -10q-3 -1 -5 -1v-11l-11 -11l11 11q-8 -8 -15 -16.5t-7 -16.5q0 3 1 7q2 7 10 15q-3 -3 -6 -7q-5 -7 -5 -15v11zM102 11q0 2 1 5q2 6 10 6h-11
q0 -8 -1.5 -11t-9.5 -11v11h11zM146 55q-8 0 -11 -5.5t-11 -5.5v-11v11q8 0 11 7t11 15l6.5 6.5t4.5 5.5t4.5 8l6.5 13l-11 -11v-11l-11 -11v-11zM146 77l-11 -11q0 2 1 5q2 6 10 6zM124 55h11h-11zM366 616l-11 -11q0 8 5.5 11t5.5 11v-11zM366 693v22v-11v-22v22v-33v11
v-11v-11v-11v-22v-11v-11v-22v-11v44v-44q0 -8 -5.5 -16.5t-5.5 -16.5v-55q-17 -58 -33 -114t-33 -106q-8 -8 -9.5 -16.5t-1.5 -16.5q-8 -17 -16.5 -34.5t-16.5 -34t-16.5 -30.5t-16.5 -22q-4 -8 -9.5 -17.5t-9.5 -17t-5.5 -10.5t2.5 1q-17 -17 -26.5 -25t-17.5 -8
q-3 0 -3 3q0 2 3 6.5t11 12.5q4 4 10 12t12 17t12 19t10 18q12 16 21 34.5t17.5 38t17.5 40t21 41.5l33 99q8 42 16.5 84t16.5 92q8 8 9.5 11t1.5 11v-11q0 -8 -5.5 -11t-5.5 -11q8 8 9.5 11t1.5 11v11v-11v11v11v11v11q0 8 5.5 11t5.5 11v-11h-11h11v11v11v55zM355 803
q0 8 5 10q3 1 6 1v-22v11h-11zM377 737q0 8 -5.5 11t-5.5 11v11v-11q8 -8 9.5 -11t1.5 -11v-44v11q-5 0 -5 1.5t1 3.5q1 3 4 6v22zM366 726v11v-11zM366 759v-11v11zM289 231q17 66 55 103t88 29q25 -8 43.5 -26t31 -43t18.5 -55t6 -63q0 -3 -1.5 -16t-6.5 -30.5t-14 -36
t-25 -32.5t-39.5 -19.5t-56.5 2.5q-36 8 -57 23.5t-32 34.5t-14 39.5t-2 38.5t3.5 31.5t2.5 19.5zM267 517q-4 -33 -14.5 -61t-27 -47.5t-39 -29t-51.5 -5.5q-25 4 -45 19.5t-34.5 39.5t-22.5 54t-8 63v15.5t2.5 29t10 35t22 33.5t38 24t59.5 6q36 -6 58 -20t34 -33
t16.5 -39.5t5 -38t-1.5 -30t-2 -15.5z" />
    <glyph glyph-name="ampersand" unicode="&#x26;" horiz-adv-x="540" 
d="M35 341v-11v11zM24 286v-11v11v22v11v-11v-11v-11zM497 22q14 -8 14 -15q0 -4 -3 -7q-8 0 -17.5 7t-26.5 15q8 -4 7.5 -2.5t-6 5.5t-12.5 9.5t-11 9.5q-17 8 -27.5 23t-27.5 32q-42 -33 -95 -36t-103 14q-66 33 -99 99q-21 29 -27.5 65t0 74t24.5 76t47 71q8 8 16.5 15
t16.5 7v11v11v11q-8 8 -9.5 16.5t-1.5 16.5q0 -8 1.5 -15t9.5 -7h-11h11l-11 11v11v-11q8 -17 11 -26.5t11 -17.5q8 0 16.5 5.5t16.5 5.5q8 4 18 8t18 7q10 4 19 7q9 0 16 1q6 1 11.5 3t5.5 7q17 17 30.5 34.5t13.5 42.5v22q-4 16 -14 32t-24.5 28.5t-32.5 20t-39 7.5
q-8 0 -16.5 -1.5t-16.5 -9.5q-8 0 -11 -1.5t-11 -9.5q12 4 24 0.5t22.5 -13t18.5 -23.5t12 -30q0 -4 1 -17t-2 -27t-12.5 -27t-30.5 -17q-17 -4 -27.5 -2.5t-18 6.5t-12 13t-8.5 16v-11v-22h11v-22q-8 17 -9.5 26.5t-1.5 17.5v11q-5 4 -7 10t-3 11q-1 6 -1 12v33q0 2 1 5
q2 6 10 6v11v11q0 2 1 5q2 6 10 6v11l11 11q8 8 11 9.5t11 1.5q16 12 34.5 16.5t36 2.5t33.5 -10t28 -20q17 -17 30.5 -33t13.5 -33q17 -42 2 -80t-57 -63q-25 -4 -44 -13t-33 -18.5t-25 -16.5t-19 -7v-11h11v-11q0 -8 5.5 -11t5.5 -11q17 -42 34.5 -77t42.5 -77
q17 -17 27.5 -33t27.5 -33q8 -17 17.5 -32t26.5 -23l11 11l33 33q8 17 11 27.5t11 27.5q0 -17 -7 -27.5t-15 -27.5l11 11q8 8 5.5 11t5.5 11q0 8 1.5 11t9.5 11q-3 0 -6 1q-5 2 -5 10q8 8 10 15q1 4 1 7v22v11v11q0 8 -1.5 22t-9.5 22l22 -22h-11l11 -11q0 8 -5.5 16.5
t-5.5 16.5h-11v11l11 -11q8 -17 15 -38.5t7 -38.5q0 -8 -6 -10q-3 -1 -5 -1q8 0 9.5 -1.5t1.5 -9.5l-11 -11v-11v11v-22v-11q-8 -8 -9.5 -11t-1.5 -11t-1.5 -11t-9.5 -11q0 -8 -7 -16.5t-15 -16.5l-22 -22q8 -17 16.5 -26.5t16.5 -17.5q17 -8 32 -22t23 -22zM442 143
q-8 0 -11 -5.5t-11 -5.5q8 0 11 5.5t11 5.5zM178 726q2 0 5 1q6 2 6 10q0 -8 -1.5 -9.5t-9.5 -1.5v0zM211 407v11v-11zM189 440q0 -4 1.5 -8t2.5 -6t0.5 -1.5l-4.5 4.5v11zM343 110q8 8 11 9.5t11 1.5q0 8 -5.5 11t-5.5 11q-8 0 -11 7t-11 15q-33 42 -59 84t-51 92
q0 17 -5.5 27.5t-5.5 27.5q-8 8 -11 16.5t-11 16.5v11q-33 -17 -33 -33q-8 -17 -17.5 -37t-17 -41.5t-10.5 -43.5t1 -43q8 -8 11 -22t11 -22q12 -25 34 -46.5t50 -35t60 -16t65 9.5zM354 517v-11v11zM233 55q6 -7 4 -15q-1 -4 -4 -7q-8 -8 -17.5 -4t-26.5 4h-11
q-17 0 -33 12.5t-33 20.5q0 8 -1.5 9.5t-9.5 1.5q-17 17 -32 40t-23 48q0 8 -5.5 16.5t-5.5 16.5v11q0 8 -5.5 11t-5.5 11q8 -8 9.5 -11t1.5 -11v11v11h-11q0 8 5 10q3 1 6 1l-11 11v11q0 2 1 5q2 6 10 6v-11v11v11v-11v-22v-11l11 -11v-11v-11q8 -25 22 -42.5t22 -34.5
l33 -33q17 -8 33 -20.5t33 -12.5q8 -8 22 -9.5t22 -1.5zM46 209v-11v11zM431 407v-11l-11 11h11zM398 396q8 0 11 -5.5t11 -5.5q0 -8 1.5 -5.5t9.5 -5.5q0 -3 1 -6q2 -5 10 -5q0 -8 5 -10q3 -1 6 -1v-22q-8 17 -11 26.5t-11 17.5t-16.5 15t-16.5 7q-8 8 -11 9.5t-11 1.5
q8 0 11 -1.5t11 -9.5zM431 396q2 0 5 -1q6 -2 6 -10q0 8 -6 10q-3 1 -5 1zM409 407l-11 11q8 0 11 -5.5t11 -5.5h-11zM431 396h-11h11zM365 517q0 2 1 5q2 6 10 6v11v-11zM310 407h-11h11zM343 418q-8 0 -16.5 -1.5t-16.5 -9.5v11h11h33h-11zM354 693l-11 11v11q8 0 11 -1.5
t11 -9.5q0 -3 1 -6q2 -5 10 -5t9.5 -12.5t1.5 -20.5l11 -11v-55v-22h-11v-11v11v-11v-11l-11 -11v-11v11v-11v11v11v11v-11v11v-11v11h11v11v55q0 3 -1 7t-10 15q0 8 -2.5 22t-19.5 22z" />
    <glyph glyph-name="quotesingle" unicode="'" horiz-adv-x="147" 
d="M31 -30h-11h11zM119 47q0 -8 -5.5 -16.5t-5.5 -16.5h-11q0 -8 -7 -16.5t-15 -16.5h-11h-11v-11v11v-11h-11h-11l11 11h11q8 8 16.5 11t16.5 11h-11q-8 0 -20.5 15t-12.5 40q0 12 4 22q3 8 9.5 15t19.5 7q25 0 34.5 -12.5t9.5 -20.5v-22zM53 -19h11h-11z" />
    <glyph glyph-name="parenleft" unicode="(" horiz-adv-x="140" 
d="M73 176v11v-11zM95 99v-11v11q0 8 -1.5 11t-9.5 11v-11q8 0 9.5 -7t1.5 -15q0 8 -5.5 16.5t-5.5 16.5v11v-11v11v-11v11h-11v22q0 2 -1 5q-2 6 -10 6q3 2 4 5q2 6 -4 6v11v11q0 8 -5.5 13.5t-5.5 -2.5q8 -8 9.5 -16.5t1.5 -16.5q0 8 -1.5 17.5t-9.5 26.5v33q-8 8 -9.5 22
t-1.5 22q-8 58 -15 110t-7 110v33q0 42 1.5 78.5t9.5 53.5q4 8 8 19t6 19.5t1.5 11t-4.5 -5.5q8 25 11 34.5t11 9.5q3 0 4 -3q1 -2 0.5 -6.5t-4.5 -12.5q0 -4 -1.5 -13.5t-4 -19.5t-4 -19.5t-1.5 -13.5q-8 -42 -9.5 -82.5t-1.5 -82.5q-17 -50 0 -99q0 -50 7 -92t15 -84v-22
v11v22v-22v-11v11v-11v-11v-11v11v-11q2 0 5 -1q6 -2 6 -10v-22v11v11v-11v-11v11v-11v-11h11q0 -17 1.5 -27.5t9.5 -27.5zM139 11v-11q0 8 -5.5 11t-5.5 11zM106 66q0 -8 1.5 -11t9.5 -11v-11v11l-22 22q0 8 -1.5 16.5t-9.5 16.5q0 8 5.5 2.5t5.5 -13.5t1.5 -11t9.5 -11z
M106 66v11v-11zM117 55v11v-11z" />
    <glyph glyph-name="parenright" unicode=")" horiz-adv-x="119" 
d="M62 594v11v-22v11zM51 671l-11 11l11 -11v-11q0 8 -1.5 11t-9.5 11q8 -8 11 -16.5t11 -16.5h-11h11v-11v-11q0 -8 1.5 -11t9.5 -11v-22v-11q0 -8 5.5 -13.5t5.5 2.5q-8 8 -9.5 16.5t-1.5 16.5q0 -8 1.5 -16.5t9.5 -16.5v-33q0 -17 5.5 -27.5t5.5 -27.5q0 -58 4 -110
t-4 -110v-33q0 -17 -2 -36.5t-5 -38t-7 -34t-8 -23.5t-6.5 -19t-3.5 -19.5t-1 -11t0 5.5q-8 -17 -11 -30.5t-11 -13.5q-3 0 -4 3q-1 2 -1 6.5t5 12.5q0 17 7 38.5t15 38.5q8 33 11 74t11 91v88q0 50 -1.5 92t-9.5 84v22v-11v-11v11v11v11v-11v-11v11v22h-11v11v22v-11v11v11
q-8 17 -9.5 27.5t-1.5 27.5zM7 781v-11v11zM7 770l11 -11v-11q0 8 -5.5 11t-5.5 11zM40 715l-11 11v11v-11q8 0 9.5 -7t1.5 -15q8 -8 9.5 -16.5t1.5 -16.5v11v11q-8 0 -10 5q-1 3 -1 6v11zM29 704v11v-11zM40 693q0 8 -1.5 9.5t-9.5 1.5q8 0 9.5 -1.5t1.5 -9.5zM29 715v11
v-11z" />
    <glyph glyph-name="asterisk" unicode="*" horiz-adv-x="350" 
d="M95 66q8 0 10 -6q1 -3 1 -5h11h-11zM62 187h-11h11zM40 66l11 11q0 -3 -1 -6q-2 -5 -10 -5zM260 77h-11h11zM128 22v11v-11h-11q-8 -17 -17.5 -19.5t-26.5 -2.5q-3 2 -7 5q-8 6 -15 6q-8 8 -8 23t8 32q3 2 7 5q8 6 15 6q0 -8 -1.5 -9.5t-9.5 -1.5q-3 0 -6 -1
q-5 -2 -5 -10v-33h11q8 -8 17.5 -13.5t26.5 2.5l11 11v11v-11v11v11v11v-11h11v-11v-11zM117 11v11v-11zM95 66h-11v-11v11h11zM238 66v11h11h-11v-11h-11h11zM282 99l11 -11q8 -8 9.5 -22t1.5 -22q-8 -8 -11 -15t-11 -7q-17 -8 -26.5 -2.5t-17.5 13.5h-11v11v11v11v-11v-11
h11v-11q0 8 -1.5 9.5t-9.5 1.5q8 0 9.5 -1.5t1.5 -9.5q8 0 9.5 -1.5t1.5 -9.5q17 0 26.5 7t17.5 15v11v22q-8 8 -16.5 11t-16.5 11q-8 0 -23 1.5t-32 9.5h-11v-11v-11q-8 0 -10 -6q-1 -3 -1 -5v-11v11v-11v-11h-11v-11v11v-11v22h11h-11h11h-11h11v11v11v22v-11
q0 -8 -1.5 -9.5t-9.5 -1.5v-33q-8 -8 -9.5 -13.5t-1.5 2.5q0 -8 -1.5 -15t-9.5 -7v11q0 8 1.5 11t9.5 11q0 8 1.5 17.5t9.5 26.5v11q-17 0 -27.5 -1.5t-27.5 -9.5h-11h-11h-11q0 -8 -1.5 -9.5t-9.5 -1.5l11 11h11h11v11q-3 0 -6 -1q-5 -2 -5 -10q0 8 5 10q3 1 6 1h11h22
q8 8 16.5 9.5t16.5 1.5v11h-22h-22q-8 8 -22 9.5t-22 1.5q0 4 -3.5 6.5t-6.5 3.5t-4 1t3 0q-11 9 -15 10t-7 1q0 2 1 5q2 6 10 6q8 -8 16.5 -9.5t16.5 -1.5q8 -8 23 -11t32 -11h22v22v11h-11v11v11v-11h11v-11v11v-11v-11q0 -3 1 -6q2 -5 10 -5v-11v22q0 17 -1.5 27.5
t-9.5 27.5q-3 3 -6 7q-5 7 -5 15v11q8 0 9.5 -7t1.5 -15q0 8 1.5 2.5t9.5 -13.5t9.5 -17.5t1.5 -26.5v-11v-22q8 0 17.5 1.5t26.5 9.5h11h11q8 8 11 9.5t11 1.5h-11h11l-11 -11h-11h-11v-11l11 11l-11 -11h-11h-22q-8 -8 -11 -9.5t-11 -1.5v-11h11h11q17 -8 26.5 -9.5
t17.5 -1.5q7 0 15 -6q4 -3 7 -5zM238 154h-11h11zM183 121v11v-11zM150 22h11h-11zM172 44v-11h-11v-11v11h11v11zM139 220h11h-11zM282 176h11l-11 -11v11zM282 176q-17 -17 -32 -18t-23 7q-4 4 -6 11.5t-1 16t5.5 16t12.5 11.5q0 4 5.5 11t15 11t21.5 2.5t24 -13.5
q8 -12 7.5 -22.5t-6 -17.5t-12.5 -11t-11 -4zM282 165h11v11h11h-11v-11q-8 0 -9.5 -1.5t-1.5 -9.5v11zM293 176h-11h11zM161 209h-11v11v-11h11v-11v11zM62 88q0 -3 -1 -6q-2 -5 -10 -5l11 11l11 11v-11h-11zM73 187h-11h11zM304 187v-11v11zM40 187l-11 11q0 17 2.5 25
t19.5 8q2 3 5 4q6 2 6 -4q8 0 16.5 -7t16.5 -15l-11 -11q0 -8 -1.5 -9.5t-9.5 -1.5h11h-11h11v11v11v-11v11v11q-8 8 -16.5 9.5t-16.5 1.5q-3 0 -6 -1q-5 -2 -5 -10v-11q-7 -7 -4 -10q1 -1 4 -1v-11zM51 187v11v-11zM73 187h-11h11z" />
    <glyph glyph-name="plus" unicode="+" horiz-adv-x="408" 
d="M399 231q0 -8 -31.5 -15t-89.5 -7q-4 -45 -12 -83.5t-18.5 -66.5t-22.5 -43.5t-24 -15.5q-17 0 -31 15.5t-25.5 42.5t-19.5 63t-12 77q-21 4 -39 6.5t-31.5 5.5t-21 8t-7.5 13t7.5 13t20 8t28 5.5t32.5 6.5v11q0 5 -0.5 28t1.5 53.5t7 64.5t16 62.5t29 47.5t46 19
q25 0 41 -19t26 -47.5t14.5 -62.5t6 -64.5t1 -53t-0.5 -28.5v-11q50 -8 80 -16.5t30 -16.5z" />
    <glyph glyph-name="comma" unicode="," horiz-adv-x="147" 
d="M31 -30h-11h11zM119 47q0 -8 -5.5 -16.5t-5.5 -16.5h-11q0 -8 -7 -16.5t-15 -16.5h-11h-11v-11v11v-11h-11h-11l11 11h11q8 8 16.5 11t16.5 11h-11q-8 0 -20.5 15t-12.5 40q0 12 4 22q3 8 9.5 15t19.5 7q25 0 34.5 -12.5t9.5 -20.5v-22zM53 -19h11h-11z" />
    <glyph glyph-name="hyphen" unicode="-" horiz-adv-x="450" 
d="M233 266q37 -4 71 -8t59.5 -8.5t41 -8.5t15.5 -8q0 -8 -15.5 -14.5t-41 -10.5t-59.5 -6t-71 -2h-22.5t-38.5 1t-46 3t-44.5 5.5t-33.5 9.5t-13 14t13 14t33.5 9.5t44.5 5.5t46 3t38.5 1h22.5z" />
    <glyph glyph-name="period" unicode="." horiz-adv-x="137" 
d="M36 44q0 25 8 40t25 15t25 -15t8 -40q3 -12 0 -22q-2 -8 -9 -15t-24 -7t-24 7t-9 15q-3 10 0 22z" />
    <glyph glyph-name="slash" unicode="/" horiz-adv-x="417" 
d="M397 638q8 0 10 5q1 3 1 6v-11q-8 -8 -10 -15q-1 -4 -1 -7v-22q8 -17 -7 -58t-48 -107q-8 -8 -11 -22t-11 -22q-25 -58 -51 -103t-59 -95l-22 -22q-25 -33 -48 -63t-40 -47q-8 -4 -17.5 -11t-15.5 -12.5t-7 -6t7 7.5q-25 -17 -36 -25t-19 -8q-3 3 -3 7q0 7 14 15
q8 8 16.5 15t16.5 7h-11q-11 11 -7 36t17 56.5t31.5 66t37 65t33.5 53.5t20 31q37 54 73 100t66 79t51.5 50t29.5 13v22v22zM408 682v11q0 -8 -1.5 -15t-9.5 -7h11l-11 -11q0 8 1.5 11t9.5 11zM397 638v-11v11zM397 616h-11h11zM386 616h11h-11z" />
    <glyph glyph-name="zero" unicode="0" horiz-adv-x="580" 
d="M33 209v22v-22zM33 231v11v-11zM44 264v-11v11zM44 242l-11 -11q0 8 5 10q3 1 6 1zM539 363q8 -25 9.5 -56.5t1.5 -64.5v-22q-4 -8 -6.5 -19.5t-4.5 -23t-4.5 -21t-6.5 -13.5q-8 -4 -12.5 -9.5t-5.5 -9.5t1 -5.5t6 2.5q-8 -8 -13 -14.5t-9 -10.5t-9 -6t-13 -2q-3 0 -6 3
q-5 5 -5 19l33 33q8 25 15 49.5t7 49.5v55q0 25 -7 49.5t-15 49.5v11v11v11h-11v11v-11v11v11q-8 0 -11 7t-11 15v11v-11l11 -11v11q-8 0 -9.5 1.5t-1.5 9.5l22 -22v-11q2 0 5 -1q6 -2 6 -10l11 -11v-11q2 -3 5 -4q2 -1 4 -1t2 5q-8 8 -9.5 11t-1.5 11q0 -8 1.5 -11t9.5 -11
v-22q8 -8 11 -16.5t11 -16.5zM506 396v11q-8 -8 -8 -9.5t8 -1.5zM495 341q8 -42 7 -88t-18 -88q-17 -37 -43 -69t-59 -54.5t-71.5 -34t-79.5 -7.5q-8 0 -22 1.5t-22 9.5q-8 0 -11 1.5t-11 9.5h-11q-3 0 -6 1q-5 2 -5 10h-11l-22 22l11 -11l-11 11q-8 0 -9.5 1.5t-1.5 9.5
l-11 11q-17 17 -26.5 34.5t-17.5 42.5v33v-11v-11q0 -8 5.5 -16.5t5.5 -16.5q0 17 -5.5 26.5t-5.5 17.5q8 -17 16.5 -32t16.5 -23q0 -3 1 -6q2 -5 10 -5v-11l11 -11q8 -8 16.5 -11t16.5 -11v-11q8 0 16.5 -1.5t16.5 -9.5l11 -11h11t12.5 1t6 3.5t-7.5 6.5q-17 0 -27.5 7
t-27.5 15q17 -8 27.5 -15t27.5 -7q17 -8 27.5 -9.5t27.5 -1.5l66 33q41 16 68.5 44t41.5 62t16.5 72t-5.5 75q-8 17 -11 32t-11 23q-17 33 -41.5 52t-57.5 36q8 -33 9.5 -56.5t1.5 -31.5q0 -37 -6.5 -71t-20 -61t-34 -44.5t-49.5 -21.5q-25 0 -47 13.5t-41 36t-33 52.5
t-22 63q0 4 -1.5 14t-2.5 23.5t-0.5 29t4.5 32.5q-4 0 -9 0.5t-7.5 5t1 13t15.5 25.5q8 8 17.5 11t26.5 11q8 8 23 16.5t32 16.5q17 0 33 4t33 -4q49 0 92 -15.5t76 -42.5t55 -63t30 -77zM220 11q0 -8 7 -9.5t15 -1.5q-8 0 -15 5q-4 3 -7 6zM451 495q0 8 -6 10q-3 1 -5 1
q8 0 11 -5.5t11 -5.5q0 -8 5.5 -11t5.5 -11q8 0 2.5 1.5t-13.5 9.5q0 8 -1.5 9.5t-9.5 1.5zM55 220q0 17 1.5 26.5t9.5 17.5q0 2 1 5q2 6 10 6q-8 0 -9.5 -1.5t-1.5 -9.5q-8 -17 -9.5 -27.5t-1.5 -27.5t5.5 -27.5t5.5 -27.5q4 -4 3 -2.5t-4 5.5t-6.5 9.5t-3.5 9.5v11v33z
M451 484h-11h11zM440 484v11v-11zM418 528v-11q0 2 -1 5q-2 6 -10 6h11z" />
    <glyph glyph-name="one" unicode="1" horiz-adv-x="504" 
d="M420 440q16 -21 23.5 -53t9.5 -64t1 -58t-1 -34q-4 -50 -10.5 -92t-15.5 -73t-22 -48.5t-29 -17.5q-17 0 -31 17.5t-24 48.5t-16 73t-6 92q0 4 -1.5 23t-1.5 44.5t3 54.5t11 54h-11q-8 -8 -12.5 -9.5t-20.5 -1.5q-25 0 -56.5 -5.5t-64.5 -5.5h-22q-17 0 -37.5 1.5
t-28.5 9.5q-4 0 -11.5 1.5t-13.5 2.5t-9 0.5t1 -4.5q-8 8 -15 11t-7 11h11q8 0 22 -5.5t22 -5.5h11q-4 0 -9.5 2t-9.5 6t-5.5 10.5t2.5 14.5q4 12 11 15.5t15 2.5q9 -1 18 -7q17 -8 23.5 -16.5t-1.5 -16.5q0 -8 -7 -15t-15 -7h66h44q33 0 53.5 5.5t45.5 5.5h22q8 25 19 40
t36 15q17 0 26.5 -7t17.5 -15zM299 407h11h-11zM431 451h11h-11z" />
    <glyph glyph-name="two" unicode="2" horiz-adv-x="762" 
d="M164 297h11h-11zM153 297h11h-11zM186 297h11h-11zM175 88h-11h11zM219 627q-8 0 -9.5 7t-1.5 15h6.5t5.5 1t8 3.5l13 6.5q-4 -4 -2.5 -6.5t5.5 -3.5t9.5 -1h9.5q8 8 23 2.5t32 -13.5h11q25 -8 42.5 -23t34.5 -32q0 -8 5.5 -11t5.5 -11l11 -11q0 -3 1 -6q2 -5 10 -5
q-8 0 -9.5 1.5t-1.5 9.5v-11v-11h11v-11q8 -8 9.5 -11t1.5 -11l-11 11q0 -3 1 -6q2 -5 10 -5h-11q0 8 -1.5 15t-9.5 7v11l-11 11l-11 11q-8 17 -23 26.5t-32 17.5q-8 8 -16.5 11t-16.5 11q-17 8 -33 13.5t-33 -2.5h-33zM417 550h-11h11zM120 308q-17 8 -32 22t-23 22v11h-11
v11l-11 11l11 -11q-8 8 -9.5 11t-1.5 11t-1.5 11t-9.5 11v22v33q4 29 18 53.5t34.5 43t46.5 30.5t55 16q33 8 64.5 2.5t56.5 -13.5q29 -12 51.5 -34t36.5 -50t20 -60t2 -65q-4 -17 -12 -33t-17 -30.5t-19 -26.5t-18 -20q-17 -8 -24 -8t-9 5q-3 4 0 14q0 8 4 15t10 15t14 19
t16 28q-4 -12 -1.5 -11.5t7 8.5t7 21.5t-1.5 25.5q0 33 -11 64.5t-44 56.5q-8 8 -12.5 15t-20.5 7q-50 25 -103 15.5t-95 -59.5q-8 -8 -16.5 -17.5t-16.5 -26.5v-33q0 -8 1.5 -22t9.5 -22q-8 8 -9.5 17.5t-1.5 26.5v-22v-11v-22h11q0 -8 1.5 -15t9.5 -7q0 -3 1 -6
q2 -5 10 -5v-11q8 -8 17.5 -16.5t26.5 -16.5q-8 8 -16.5 9.5t-16.5 1.5v11q0 -8 7 -15t15 -7h11h-11zM32 451v22v-22zM681 44q-8 0 -16.5 -1.5t-16.5 -9.5h-11h-11q-8 0 -11 -1.5t-11 -9.5h-22q-4 0 -8 -1.5t-6 -2.5t-1.5 -0.5l4.5 4.5h33h-44q0 -8 -7 -9.5t-15 -1.5
q-17 0 -27.5 -1.5t-27.5 -9.5h-143h-44h-44q-25 8 -53.5 11t-45.5 11q-8 4 -17.5 8t-17 6t-10.5 1.5t1 -4.5q-17 8 -26.5 11t-17.5 11q3 3 8 4q4 1 10.5 0.5t14.5 -4.5q4 0 11.5 -1.5t16 -4t16 -4t11.5 -1.5q8 -8 16.5 -9.5t16.5 -1.5q-8 0 -9.5 7t-1.5 15t9.5 16t26 14
t38.5 10t47 4q4 0 23.5 -1t41 -6t39 -16t17.5 -32q0 -8 -7 -16.5t-15 -16.5q42 0 76 5.5t67 5.5h22h11l11 11q0 -8 1.5 -4t9.5 4h11h11h11q8 0 17.5 5.5t26.5 5.5h11h-11h-22h11h22zM538 22h11h-11zM241 385q12 -4 15.5 -10t2.5 -12t-4 -12t-3 -10q-8 -8 -17.5 -15t-26.5 -7
q-8 8 -8 22t8 22q0 4 2 11t6 12.5t10.5 6t14.5 -7.5zM164 297h11h-11zM164 77v-11v11h22v11h11h11q0 8 4 9.5t-4 1.5q0 -8 -7 -11t-15 -11h-22zM142 66v11l-11 -11l11 11v-11zM703 55h-11h11h-11h11zM758 77h-11h-11h22zM703 55q0 8 1.5 9.5t9.5 1.5zM164 308h-11l-11 11
h-22q-3 6 -6 10q-5 7 -5 1q17 -8 26.5 -9.5t17.5 -1.5q8 -8 17.5 -9.5t26.5 -1.5l11 11q-8 -8 -11 -9.5t-11 -1.5h-22zM241 319q0 8 7 11t15 11l-11 -11q-3 -3 -7 -6q-7 -5 -15 -5h11zM703 55h11q8 0 10 5q1 3 1 6v-11q-8 0 -16.5 -1.5t-16.5 -9.5h-22h11q8 0 11 1.5t11 9.5
zM450 495v11v-22h11q8 0 9.5 -8t1.5 -25q0 4 -1.5 1t-2.5 -9t-0.5 -13.5t4.5 -11.5q0 -17 -12.5 -40t-20.5 -48q0 -8 -5.5 -11t-5.5 -11q-17 -33 -41.5 -60.5t-57.5 -60.5q0 -8 -7 -15t-15 -7l-22 -22q-8 -8 -15 -11t-7 -11l22 22h-11q0 -3 -1 -6q-2 -5 -10 -5h-11v-11h-11
q0 -8 -6 -10q-3 -1 -5 -1q-8 -8 -16.5 -9.5t-16.5 -1.5q8 0 9.5 1.5t1.5 9.5q0 -8 1.5 -9.5t9.5 -1.5v11q-8 0 -10 -6q-1 -3 -1 -5h-11h11q8 8 16.5 15t16.5 7v11h11h-11q8 0 9.5 1.5t1.5 9.5h11l11 11l11 11q25 25 42.5 49.5t34.5 49.5q8 8 16.5 23t16.5 32
q17 25 30.5 49.5t13.5 49.5v55q0 8 5 10q3 1 6 1v11zM131 66h-11h11z" />
    <glyph glyph-name="three" unicode="3" horiz-adv-x="411" 
d="M27 220l11 11zM82 462h-11h11zM71 495q0 8 5.5 13.5t5.5 -2.5v-22v-22q0 8 1.5 9.5t9.5 1.5q4 12 10 15.5t12 2.5t12 -4t10 -3q8 -8 15 -16.5t7 -16.5q0 -17 -13.5 -18t-30.5 7v-11v11q-10 0 -17 3q-6 2 -11 6.5t-5 12.5v22v11h-11zM390 209v11v11v11v-11v-22zM390 198
v-11v-11v-11h-11v-11q8 8 9.5 11t1.5 11q0 -8 -1.5 -11t-9.5 -11v-11q0 -8 -1.5 -11t-9.5 -11q-8 -17 -19 -38.5t-36 -38.5h-11q-8 -17 -17.5 -25t-26.5 -8q-4 0 -9.5 -1.5t-9.5 -4t-5.5 -4t2.5 -1.5h-33v22q8 0 20.5 1.5t12.5 9.5q12 0 21 3.5t16 9l14 11t15 9.5
q8 8 16.5 11t16.5 11l33 66v11h11v11v11v-11v11q0 8 1.5 15t9.5 7v11v-11v11v-22zM335 99q-21 -21 -45 -37t-50 -25t-52 -10.5t-51 6.5q-8 0 -16.5 5.5t-16.5 5.5q-8 8 -11 9.5t-11 1.5q0 8 -1.5 9.5t-9.5 1.5v11q-8 0 -10 5q-1 3 -1 6h-11v11v11h-11q0 17 -5.5 33t-5.5 33
q0 3 1 7q2 7 10 15v-11h-11v-11v-22h11q-8 8 -9.5 8t-1.5 -8q0 8 1.5 16.5t9.5 16.5q0 -8 1.5 -22t9.5 -22v-11v-22q7 0 15 -6q4 -3 7 -5v-11q8 0 11 -1.5t11 -9.5q0 -3 1 -6q2 -5 10 -5h11q-8 8 -16.5 11t-16.5 11q8 -8 16.5 -11t16.5 -11q8 0 16.5 -5.5t16.5 -5.5h55
q25 8 42.5 17.5t34.5 26.5q-17 -8 -27.5 -13.5t-27.5 2.5q-12 4 -18.5 17.5t-9 33t-0.5 43.5t6 49q0 4 4 18.5t12.5 32t20.5 34.5t29 25q-8 8 -16.5 11t-16.5 11t-16.5 9.5t-16.5 1.5q-3 -3 -7 -6q-7 -5 -15 -5h-44h-33q-8 3 -12 7q-3 3 -2 6.5t14 8.5v11q8 4 21.5 8t29 6
t31.5 1.5t28 -4.5q8 8 15 17.5t7 26.5q2 3 5 7q6 8 6 15q0 12 -4 26t-12.5 26.5t-21 22t-28.5 13.5l-13 6.5t-8 3.5t-5.5 1h-6.5q-8 0 -15 -1.5t-7 -9.5q-8 0 -15 -1.5t-7 -9.5q0 8 7 9.5t15 1.5q0 6 -6 4q-3 -1 -5 -4h-11v-11h-11q0 -3 -1 -6q-2 -5 -10 -5v-11
q-8 -8 -9.5 -16.5t-1.5 -16.5v22v-11v-11v11q0 8 1.5 16.5t9.5 16.5v11h11v11v-11v11h11v11h11q8 8 11 9.5t11 1.5q33 8 63 -5.5t47 -38.5q8 -17 15 -33t7 -33q0 -25 -7 -41.5t-15 -24.5q29 -12 53 -32t40.5 -45t24 -53t3.5 -57q0 -33 -8 -60.5t-25 -60.5zM126 583h11h-11z
M60 99v-11v-11v11v11zM126 44l11 -11q-8 0 -9.5 1.5t-1.5 9.5zM379 242v-11v11zM379 264q8 0 8 -1.5t-8 -9.5h11h-11v11zM115 286l11 11zM38 187v11q0 3 1 7q2 7 10 15q0 8 1.5 15t9.5 7q0 2 1 5q2 6 10 6q-8 8 -1.5 16.5t23.5 16.5h22v11v-11q8 0 15 -1.5t7 -9.5
q4 -13 1 -21t-8 -13q-6 -6 -15 -10q-17 0 -30.5 2.5t-13.5 19.5q-8 0 -9.5 -1.5t-1.5 -9.5q-8 -8 -9.5 -16.5t-1.5 -16.5q-8 -8 -8 -17.5t8 -26.5q0 -4 -1.5 -2.5t-4 5.5t-4 9.5t-1.5 9.5zM71 473v11v-11zM49 253v-11h-11z" />
    <glyph glyph-name="four" unicode="4" horiz-adv-x="606" 
d="M274 220h11h11h11h11l11 -11q-8 0 -10 5q-1 3 -1 6h-22h-22zM164 308q-33 0 -33 33q-2 9 -1 18q1 8 5.5 14.5t17.5 11.5q12 0 19 -5.5t10 -11.5q4 -7 4 -16q0 -17 -7 -30.5t-15 -13.5zM494 385q25 -3 39.5 -17t21.5 -34.5t8 -43.5t-1.5 -44t-6 -37.5t-6.5 -21.5
q-4 -41 -13.5 -75.5t-22 -59.5t-26.5 -38.5t-26 -13.5q-17 0 -29 17t-20.5 45t-12.5 63.5t-4 72.5v11h11h-22v-11h-11h-11h-11q-4 0 -8 -1.5t-6 -2.5t-1.5 -0.5l4.5 4.5h22q-8 0 -11 -1.5t-11 -9.5q-8 0 -11 5.5t-11 5.5q-8 -8 -11 -9.5t-11 -1.5q-17 4 -31.5 6.5t-28 5.5
t-26 8t-24.5 13q-8 0 -11 1.5t-11 9.5q-17 8 -32 17.5t-23 26.5q0 4 -3.5 8t-6.5 6t-4 1.5t3 -4.5q-4 8 -8 13t-7 9t-5 9t-2 13q3 3 7 4q8 2 15 -4q8 -8 15 -16.5t7 -16.5q17 -25 34.5 -36t42.5 -19q8 -8 17.5 -11t26.5 -11q25 -8 44 -9.5t44 -1.5h11h11h11h11q8 0 16.5 1.5
t16.5 9.5q0 16 4.5 45.5t15 57.5t27 47t41.5 15zM318 209h11h-11zM406 209h-11q0 2 1 5q2 6 10 6v-11zM164 275q-25 17 -48 34.5t-40 42.5q0 8 -5.5 11t-5.5 11q-17 17 -30.5 33t-13.5 33q0 4 -1.5 9.5t-4 9.5t-4 5.5t-1.5 -2.5v33q2 3 5 4q6 2 6 -4q8 -8 11 -22t11 -22
q8 -25 17.5 -44t26.5 -44l44 -44q17 -17 34.5 -27.5t42.5 -27.5l11 -11h11v-11h11h11q8 -8 16.5 -9.5t16.5 -1.5q0 -3 1 -6q2 -5 10 -5h-11q0 8 -6 10q-3 1 -5 1q8 0 10 -6q1 -3 1 -5q-3 2 -7 5q-8 6 -15 6h-11h-11v11h-11h-11h22h-22q-8 8 -11 9.5t-11 1.5q-8 8 -16.5 11
t-16.5 11zM307 220h11h-11zM340 220h11h-11z" />
    <glyph glyph-name="five" unicode="5" horiz-adv-x="730" 
d="M343 385v-11v11zM101 242q0 17 13.5 19.5t30.5 2.5q9 0 16 -4q6 -3 11.5 -10t5.5 -19q-5 -13 -11.5 -17.5t-14.5 -5.5q-9 -1 -18 1q-33 16 -33 33zM365 352q3 2 4 5q2 6 -4 6l-11 11l11 -11l11 -11l11 -11h-11v11h-11zM640 506h-11q-8 0 -22 1.5t-22 9.5h-11h-11h11h-22
h-11l-11 11h-22q-42 0 -77 5.5t-77 5.5q-25 0 -48 -1.5t-40 -9.5q-42 0 -76 -2.5t-67 -19.5q-8 0 -18 -1.5t-19 -4t-17 -4t-12 -1.5q-8 -5 -12.5 -5t-6.5 1q-3 1 -3 4q0 8 13.5 11t30.5 11q-8 -4 -5.5 -4.5t9.5 1.5t16 6t13 8q8 4 21.5 6.5t29 4.5t31.5 4.5t28 6.5h33
q50 0 99 -1.5t99 -9.5h44q8 0 16.5 -5.5t16.5 -5.5h33h-33h11h11h11q4 -5 6.5 -5t3.5 1t1 4q0 -8 5 -10q3 -1 6 -1h11h11q8 -8 16.5 -9.5t16.5 -1.5h-22h11h11zM497 528h11h-11zM409 286q8 -8 9.5 -11t1.5 -11q8 -25 9.5 -48t1.5 -40q-8 -8 -9.5 -11t-1.5 -11
q0 -4 -0.5 -11.5t-2.5 -16t-6.5 -16t-12.5 -11.5q-3 -6 -4 -10q-1 -3 -1 -4.5t5 3.5q-8 -4 -13 -8t-8 -7t-5.5 -5t-6.5 -2q-3 0 -4 1q-3 3 4 10q0 8 5.5 16.5t5.5 16.5q16 16 20.5 32.5t12.5 33.5v33q0 25 -1.5 42.5t-9.5 34.5v11q0 8 -1.5 9.5t-9.5 1.5v11v-11v11
q0 8 -5.5 11t-5.5 11v11v-11q2 0 5 -1q6 -2 6 -10v-11h11v-11v-11h11q0 8 -5.5 11t-5.5 11q8 -8 9.5 -11t1.5 -11v-11zM662 495q-8 8 -16.5 9.5t-16.5 1.5q-7 6 1 4q4 -1 10 -4h11l11 -11h22q0 -8 1.5 -9.5t9.5 -1.5h-11q-8 8 -11 9.5t-11 1.5zM717 473h11h-11zM266 374
q33 -12 57.5 -34t40 -48.5t21.5 -56.5t2 -59q-8 -33 -19 -63t-36 -47q-42 -50 -96.5 -65t-112.5 10q-8 8 -15 11t-7 11q-8 0 -11 5.5t-11 5.5q0 8 -1.5 9.5t-9.5 1.5v11l-11 11v-11v11v11v-11q0 8 -6 10q-3 1 -5 1v11q-8 17 -9.5 33t-1.5 33l11 22v-11q-8 -8 -9.5 -16.5
t-1.5 -16.5l11 11h-11q8 8 9.5 11t1.5 11v-44h11v-11v-11q0 -8 7 -15t15 -7q-3 -3 -4 -6q-1 -2 -1 -3.5t5 -1.5l11 -11q0 -3 1 -6q2 -5 10 -5q0 -4 3.5 -6t6.5 -2t4 2t-3 6q-8 0 -16.5 7t-16.5 15q8 -8 16.5 -15t16.5 -7q8 -8 16.5 -15t16.5 -7h55q29 4 53.5 17.5t43 33
t30.5 43.5t16 49v44q0 21 -7.5 36t-18.5 27.5t-25 23.5t-26 23q-8 8 -20.5 12.5t-22 5.5t-11.5 -1t10 -6q-33 8 -52.5 4t-35.5 -4q-5 3 -8 8q-2 4 -1 10.5t9 14.5q-17 8 -25 23t-8 32q0 4 -0.5 17t3.5 27t15.5 27t36.5 17q25 0 36.5 -10.5t15.5 -24t3.5 -26t-0.5 -16.5
q0 -17 -1.5 -32t-9.5 -23q17 0 37.5 -1.5t28.5 -9.5zM112 22q8 0 11 -5.5t11 -5.5q-8 8 -11 9.5t-11 1.5zM706 473h11h-11zM68 242q0 -8 -6 -10q-3 -1 -5 -1q0 8 5 10q3 1 6 1zM134 275h11q-8 0 -16.5 -5.5t-16.5 -5.5q0 8 7 9.5t15 1.5zM57 187v22h11q0 8 1.5 15t9.5 7
q0 8 5 10q3 1 6 1q-3 0 -6 -1q-5 -2 -5 -10q-8 -8 -11 -16.5t-11 -16.5v-44q0 -4 -1.5 -2.5t-4 5.5t-4 9.5t-1.5 9.5zM46 220v-11v11zM57 220h-11h11zM57 231v-11v11z" />
    <glyph glyph-name="six" unicode="6" horiz-adv-x="477" 
d="M317 363h11h-11zM328 363l-11 -11q0 8 5 10q3 1 6 1zM328 572h-11h11zM42 165v-11v11h-11q-8 8 -9.5 17.5t-1.5 26.5q0 -8 1.5 -7t2.5 7t0.5 15.5t-4.5 17.5q0 17 12.5 38.5t20.5 38.5q0 8 5.5 16.5t5.5 16.5q17 33 41.5 60.5t57.5 60.5q0 8 7 11t15 11q8 0 11 5.5
t11 5.5l22 22l-22 -22q2 0 5 1q6 2 6 10q8 8 11 9.5t11 1.5q0 8 5 10q3 1 6 1h11v11q8 0 16.5 5.5t16.5 5.5q-8 0 -10 -6q-1 -3 -1 -5h-11h11l11 11l-11 -11q-8 0 -16.5 -7t-16.5 -15l-11 -11v11v-11l11 11l-11 -11h-11v-11l-11 -11q-3 0 -6 -1q-5 -2 -5 -10
q-25 -17 -42.5 -40t-34.5 -48q-8 -17 -16.5 -32t-16.5 -23q-17 -33 -30.5 -59t-13.5 -51v-55zM207 484v11v-11zM460 187q-4 -29 -18 -53.5t-34.5 -43t-46.5 -30.5t-55 -16q-33 -8 -64.5 -7t-56.5 18q-29 12 -51.5 34t-36.5 50t-20 60t-2 65q4 12 12 28t17 31.5t19 29
t18 21.5q17 8 24 7.5t9 -4.5q3 -5 0 -14q0 -12 -4 -19.5t-10 -15t-14 -17t-16 -25.5q4 12 1.5 10t-7 -11.5t-7 -22t1.5 -20.5q0 -33 11 -70t44 -62q3 -3 8 -7q4 -3 10.5 -7t14.5 -8q25 -8 51 -11.5t52 0.5t50 17t45 38q8 8 15 22t7 22q8 8 10 21q1 6 1 12q0 17 -1.5 26.5
t-9.5 17.5q8 -8 9.5 -16.5t1.5 -16.5v11v11v22h-11q0 8 -1.5 16.5t-9.5 16.5h-11v11q-8 8 -17.5 20.5t-26.5 12.5q8 0 16.5 -1.5t16.5 -9.5q0 8 -7 9.5t-15 1.5h-11q0 6 5 4q3 -1 6 -4q17 -8 32 -17.5t23 -26.5q8 0 9.5 -1.5t1.5 -9.5v-11h11v-11v11h-11q8 0 10 -6
q1 -3 1 -5v-11q0 -3 1 -6q2 -5 10 -5v-22v-33zM460 198v-22v22zM284 561q3 2 7 5q8 6 15 6q3 2 7 5q8 6 15 6q-8 -8 -11 -9.5t-11 -1.5h-11q0 -8 -1.5 -9.5t-9.5 -1.5zM273 22q8 0 10 -6q1 -3 1 -5q-8 -8 -12.5 -9.5t-20.5 -1.5h-22q-4 -4 -10 -3t-13.5 4t-15.5 6.5t-16 3.5
l-11 11q-25 8 -42.5 23t-34.5 32l-11 11q0 8 -6 10q-3 1 -5 1q0 8 -1.5 11t-9.5 11q8 -8 9.5 -11t1.5 -11v11v11h-11v11v11q-8 0 -10 5q-1 3 -1 6h11v-11q0 8 -1.5 9.5t-9.5 1.5v11q0 -8 5 -10q3 -1 6 -1q0 -3 1 -7q2 -8 10 -15v-11h11v-11h11q8 -17 23 -32t32 -23
q8 0 16.5 -5.5t16.5 -5.5q17 -8 33 -15t33 -7h33zM75 110q8 0 9.5 -1.5t1.5 -9.5zM328 363h11h-11zM306 363q0 -8 -1.5 -8t-9.5 8h11zM372 594h-11h11zM251 330l-22 -22v11h11q0 8 7 11t15 11zM295 341h-11h22q0 8 7 4t15 -4q0 3 1 4q2 2 10 -4h11h22q0 -8 5 -15q3 -4 6 -7
q-17 8 -26.5 15t-17.5 7h-44zM251 264q-13 4 -16 11t-2 15q1 9 7 18q8 17 16.5 23.5t16.5 -1.5q17 0 18 -13.5t-7 -30.5q-4 -9 -8 -15q-5 -5 -11 -8.5t-14 1.5zM361 583h-11q2 0 5 1q6 2 6 10v-11z" />
    <glyph glyph-name="seven" unicode="7" horiz-adv-x="507" 
d="M229 286q-17 -17 -26.5 -33t-17.5 -33q-17 -42 -32 -76t-23 -67q-4 -4 -6.5 -11.5t-4.5 -16t-4.5 -16t-6.5 -11.5q0 -8 -2 -12.5t-4 -6.5q-3 -3 -5 -3q-8 8 -4 17.5t4 26.5q0 -4 1.5 -1t4 9t4 13.5t1.5 11.5q0 12 5.5 26.5t12.5 28.5t14.5 28.5t11.5 26.5q0 8 7 16.5
t15 16.5q33 82 99 165l33 33q0 8 7 11t15 11q0 8 7 15t15 7q-8 0 -11 -7t-11 -15l11 11q0 8 5.5 11t5.5 11q8 0 11 5.5t11 5.5v11h11q8 8 11 15t11 7l-11 -11l11 11l-33 -33q0 -8 -1.5 -9.5t-9.5 -1.5v-11h-11h11q-8 0 -9.5 -1.5t-1.5 -9.5h-11v-11l-11 -11l-11 -11
q-25 -33 -48.5 -62t-39.5 -70zM317 429v-11v11zM416 539q8 0 15 5q4 3 7 6h11h-11q0 -8 -6 -10q-3 -1 -5 -1l-11 -11q-8 0 -10 -6q-1 -3 -1 -5q-3 -3 -6 -4q-2 -1 -3.5 -1t-1.5 5q8 8 15 11t7 11zM416 429q19 -11 24 -31.5t1 -45.5t-14 -52t-21.5 -50t-21 -40t-12.5 -23
q-25 -41 -51 -75t-49.5 -57t-43.5 -32t-32 -1q-17 4 -19.5 25t4.5 53t22.5 72t36.5 81q0 5 7.5 23.5t21 41.5t31 47.5t37 42.5t40 25t39.5 -4zM460 605h-11h11zM460 561q8 0 9.5 1.5t1.5 9.5h11q-8 0 -11 -5.5t-11 -5.5zM416 594h11h-11zM405 583h11l11 11h11
q-8 0 -9.5 -1.5t-1.5 -9.5h-22zM75 550q-4 0 -11.5 1.5t-13.5 2.5t-9 0.5t1 -4.5q-8 8 -15 11t-7 11h11q8 0 22 -5.5t22 -5.5h11q-4 0 -9.5 2t-9.5 6t-5.5 10.5t2.5 14.5q4 12 11 15.5t15 2.5q9 -1 18 -7q17 -8 23.5 -16.5t-1.5 -16.5q0 -8 -7 -11t-15 -11h66h44
q33 0 53.5 5.5t45.5 5.5q8 0 11 5.5t11 5.5h11h11h11q8 8 16.5 9.5t16.5 1.5h11h-11h-11h11q-3 0 -6 -1q-5 -2 -5 -10h-11h-11h-11l-11 -11h-11q8 0 11 1.5t11 9.5q-8 -8 -11 -9.5t-11 -1.5h-22q-8 0 -12.5 -5.5t-20.5 -5.5q-25 0 -56.5 -5.5t-64.5 -5.5h-22
q-17 0 -37.5 1.5t-28.5 9.5zM328 561h-11h11z" />
    <glyph glyph-name="eight" unicode="8" horiz-adv-x="592" 
d="M177 495h-11h11zM133 550l-11 11v66v11q0 8 1.5 20.5t9.5 12.5q8 8 13.5 15t-2.5 7q8 0 11 5.5t11 5.5v-11q-3 -3 -6 -7q-5 -7 -5 -15q-8 -8 -11 -22t-11 -22v-33q0 -8 5.5 -22t5.5 -22v-11v-11h11v-11q0 -3 1 -6q2 -5 10 -5h-11h11h-11v11h-11v11q0 8 -6 10q-3 1 -5 1
l11 -11q-3 0 -6 1q-5 2 -5 10v11zM144 550v-11v11zM188 473q0 2 -1 5q-2 6 -10 6h11v-11zM89 132q-8 0 -9.5 1.5t-1.5 9.5q0 -8 5 -10q3 -1 6 -1zM166 495v-11h11h-11v11q-8 0 -9.5 1.5t-1.5 9.5zM177 462q45 12 89.5 10.5t83.5 -15t71 -37.5t53 -57q25 -33 34.5 -72.5
t9.5 -81.5q-8 -75 -54.5 -129.5t-121.5 -79.5h-55h-22h-22h-11q-8 8 -11 9.5t-11 1.5h-11q0 2 -1 5q-2 6 -10 6h-11q-17 17 -33 29t-33 37q-3 3 -4 7q-1 3 -1 6.5t5 8.5v-11v-11q0 -8 7 -15t15 -7q-8 8 -15 16.5t-7 16.5q4 -4 10 -9.5l12 -11t12 -9t10 -3.5q0 -8 5 -10
q3 -1 6 -1h11q0 -8 1.5 -9.5t9.5 -1.5q8 -8 16.5 -9.5t16.5 -1.5q0 -3 1 -6q2 -5 10 -5h22h22q4 0 9.5 1.5t9.5 4t5.5 4t-2.5 1.5h-66h66q8 0 22 1.5t22 9.5q17 8 32 17.5t23 26.5q29 25 44 55t18 62t-5 64t-24 61l-33 33q-25 25 -56.5 36t-64.5 19q17 -25 26.5 -47
t17.5 -30q8 -29 10 -58.5t-3 -55.5t-17.5 -45.5t-33.5 -27.5q-25 -8 -51 -4.5t-51 17t-47 35.5t-38 51q-8 0 -16.5 22t-16.5 55q-4 -4 -9.5 -5.5t-8.5 1.5t-2 11.5t9 25.5q0 8 7 16.5t15 16.5t23 22t32 22t27.5 11t27.5 11zM210 11v11v-11h11h-11zM320 11q8 -8 15 -8t7 8
h-22zM562 275q0 -8 1.5 -18t2.5 -19t0.5 -17t-4.5 -12q-8 -17 -8 -29t8 -4q-8 -8 -11 -16.5t-11 -16.5q-7 0 -11 1q-11 2 -11 10q8 8 9.5 22t1.5 22q8 25 4 44t-4 44q-8 17 -11 26.5t-11 17.5q-8 25 -17.5 42.5t-26.5 34.5q0 8 -6 10q-3 1 -5 1v11h-11q0 2 -1 5q-2 6 -10 6
h11h-11l-22 22q-3 0 -6 1q-5 2 -5 10v-11h11l-11 11q7 -8 15 -10q4 -1 7 -1h11v-11h11q6 -8 4 -10q-1 -1 -4 -1h11q4 0 4.5 -1.5t0.5 -4t1 -4t5 -1.5q0 8 -6 10q-3 1 -5 1q3 0 7 -1t15 -10q0 -3 1 -6q2 -5 10 -5q0 -8 7 -11t15 -11q17 -25 30.5 -49.5t13.5 -49.5
q8 -8 9.5 -11t1.5 -11zM463 418v-11v11zM122 99q-4 0 -5 1.5t-1 4t-0.5 4t-4.5 1.5q0 8 -1.5 15t-9.5 7q0 8 4 9.5t-4 1.5q0 8 -4 16.5t4 16.5v11v-11q0 -8 1.5 -22t9.5 -22q0 -17 7 -26.5t15 -17.5q4 -4 3 -4.5t-4 1.5t-6.5 6t-3.5 8zM78 143l11 11zM78 176v-11v11z
M353 583q0 -8 -7 -15t-15 -7q-4 0 -9.5 0.5t-11 2.5t-9 6.5t-3.5 12.5q4 8 10 12.5t11 6.5q6 3 12 3q8 -8 15 -11t7 -11zM78 154v-11v11zM386 638q0 8 5.5 2.5t5.5 -13.5h-11v-22q-8 -8 -9.5 -11t-1.5 -11h-11h11q0 8 1.5 16.5t9.5 16.5v22zM375 583h11h-11zM320 561h11h-11
zM397 594v11v-11zM386 594h11h-11zM386 473h-11h11zM397 484q0 -8 7 -9.5t15 -1.5q0 -5 -2 -5t-4 1q-3 1 -5 4h-11h-11v11h-11h-11h11h22zM232 484q-42 17 -63.5 55t-13.5 88q0 25 8 42.5t25 34.5q12 16 30 28.5t37.5 18.5t39 5.5t36.5 -8.5q8 -8 15 -11t7 -11h11
q0 -8 5 -10q3 -1 6 -1q0 -8 5.5 -11t5.5 -11v11v-11v11v-11v-11h11v-44v-11v22v-22q0 8 -1.5 16.5t-9.5 16.5v11v11l-11 11l-11 11l-11 11q-3 3 -6 4q-5 2 -5 -4q8 0 15 -7t7 -15q0 8 -7 15t-15 7q0 8 -7 9.5t-15 1.5q-8 8 -17.5 4t-26.5 -4q-21 0 -37.5 -9.5t-28.5 -23.5
t-20.5 -32t-12.5 -34v-33q8 -25 23 -42.5t32 -34.5q8 -8 19 -11t19.5 -3t11 1.5t-5.5 1.5q12 0 21 1.5l15 2.5t10.5 0.5t8.5 -4.5q2 0 5 -1q6 -2 6 -10q2 0 5 -1q6 -2 6 -10q-3 0 -6 1q-5 2 -5 10q0 -8 -6 -10q-3 -1 -5 -1q-17 -8 -45.5 -8t-53.5 8zM342 737l-11 11
q0 -8 5 -10q3 -1 6 -1zM331 561h11h11h-22z" />
    <glyph glyph-name="nine" unicode="9" horiz-adv-x="487" 
d="M148 231h11h-11zM148 0q8 0 9.5 1.5t1.5 9.5h11q-8 0 -9.5 -1.5t-1.5 -9.5h-11zM203 33h-11h11zM456 418q0 4 -1.5 1t-2.5 -9t-0.5 -13.5t4.5 -11.5q4 -8 2.5 -18.5t-5.5 -21.5t-9.5 -23.5t-9.5 -24.5q0 -8 -5.5 -11t-5.5 -11q-17 -41 -34.5 -70t-42.5 -62l-33 -33
l-11 -11l-22 -22l22 22l-11 -11h-11q0 -8 -1.5 -9.5t-9.5 -1.5q0 -8 -6 -10q-3 -1 -5 -1q0 -3 -1 -6q-2 -5 -10 -5q-8 -8 -15 -11t-7 -11h-11l22 22q-7 -7 -4 -10q1 -1 4 -1v11l-11 -11q-8 0 -9.5 -1.5t-1.5 -9.5q0 8 5 10q3 1 6 1q8 8 16.5 15t16.5 7v11h11h-11q8 0 10 5
q1 3 1 6q8 0 9.5 1.5t1.5 9.5l11 11l11 11l66 99q8 17 15 32t7 23q17 33 25 59t8 51v55q0 8 1.5 9.5t9.5 1.5v11h-11v11q8 -8 9.5 -11t1.5 -11h11q8 0 5.5 -8t5.5 -25zM291 110q8 0 10 5q1 3 1 6q-3 0 -6 -1q-5 -2 -5 -10zM225 33q2 3 5 4q6 2 6 -4q-8 0 -15 -1.5t-7 -9.5
q-8 0 -15 -1.5t-7 -9.5h-11h11q0 8 5 10q3 1 6 1q8 0 10 5q1 3 1 6h11zM159 231h11h-11zM181 242h11q0 -8 -6 -10q-3 -1 -5 -1v11zM192 33v-11v11zM159 253v-11q-11 9 -15 10t-7 1h-11q-8 0 -13.5 5.5t2.5 5.5q8 -8 16.5 -9.5t16.5 -1.5h44h11h-11q-8 -8 -16.5 -4t-16.5 4z
M181 572q-8 0 -10 5q-1 3 -1 6l6.5 6.5t5.5 3.5t8 1h13h22q8 8 23 4t32 -4q2 0 5 -1q6 -2 6 -10q25 0 42.5 -13.5t34.5 -30.5q8 0 11 -5.5t11 -5.5q0 -8 5 -10q3 -1 6 -1q0 -8 1.5 -11t9.5 -11q-8 8 -9.5 11t-1.5 11v-11l11 -11v-11h11v-11v-11v11v-11q-8 8 -9.5 11t-1.5 11
h-11v11v-11v11h-11v11h-11q-8 17 -23 26.5t-32 17.5q-8 8 -16.5 9.5t-16.5 1.5q-25 8 -42.5 13.5t-34.5 -2.5h-33zM390 506l-11 11q0 -8 1.5 -9.5t9.5 -1.5zM126 242h-11q-17 8 -32 17.5t-23 26.5h-11v11h-11q0 8 -1.5 15t-9.5 7v11v11q-8 8 -9.5 11t-1.5 11v33
q0 29 11.5 53.5t30 44t42 34t48.5 22.5q66 16 132 0q29 -8 53 -27.5t40.5 -46.5t24 -59t3.5 -65q0 -12 -5.5 -28t-14 -31.5t-18 -29t-17.5 -21.5q-13 -8 -19.5 -9t-9.5 1q-4 3 -4 8q0 12 3.5 21.5t9 18.5t11 20t9.5 28q0 -12 3.5 -11.5t6.5 8.5t4 21.5t-3 25.5q0 16 -2.5 34
t-8.5 34.5t-17 30.5t-27 22q-8 8 -17.5 11t-26.5 11q-33 8 -71.5 5.5t-71.5 -27.5l11 11q37 0 57 -15.5t29.5 -35t11 -37.5t1.5 -22q0 -25 -6 -47t-16 -39.5t-24.5 -29.5t-30.5 -16q-33 0 -62 30t-37 80v55q0 -8 -1.5 -15t-9.5 -7v-44q8 -8 9.5 -17.5t1.5 -26.5
q0 17 -1.5 26.5t-9.5 17.5v-11q0 -8 5 -10q3 -1 6 -1v-22h11v-33h22v-11h11q0 -8 12.5 -16.5t20.5 -16.5q-8 8 -16.5 9.5t-16.5 1.5h11h-11q8 0 11 -5.5t11 -5.5h11zM16 385v11v-11zM49 297v11h-11v-11q0 8 1.5 9.5t9.5 1.5v-11zM258 286v11v-11z" />
    <glyph glyph-name="colon" unicode=":" horiz-adv-x="138" 
d="M35 44q0 4 -1 13t1 18.5t9 16.5t24 7q16 0 23.5 -7t9.5 -16.5t1 -18.5t-1 -13q0 -17 -8 -30.5t-25 -13.5t-25 13.5t-8 30.5zM35 264q0 25 8 40t25 15t25 -15t8 -40q3 -12 0 -22q-2 -8 -9 -15t-24 -7t-24 7t-9 15q-3 10 0 22z" />
    <glyph glyph-name="semicolon" unicode=";" horiz-adv-x="139" 
d="M26 0h-11h11zM114 77q0 -8 -5.5 -16.5t-5.5 -16.5h-11q0 -8 -7 -16.5t-15 -16.5h-11h-11v-11v11v-11h-11h-11l11 11h11q8 8 16.5 11t16.5 11h-11q-8 0 -20.5 15t-12.5 40q0 12 4 22q3 8 9.5 15t19.5 7q25 0 34.5 -12.5t9.5 -20.5v-22zM48 11h11h-11zM70 253
q-17 0 -24 5.5t-9 12.5t-1 14.5t1 11.5q0 17 8 30.5t25 13.5q17 8 25 -5.5t8 -38.5q3 -12 0 -22q-2 -8 -9 -15t-24 -7z" />
    <glyph glyph-name="less" unicode="&#x3c;" horiz-adv-x="535" 
d="M525 0h-11h-11h11h11zM470 0h11h11h-22h-11q-17 -8 -48 5.5t-73 38.5q-8 8 -17.5 11t-26.5 11q-33 25 -71.5 45.5t-71.5 53.5q0 8 -7 11t-15 11t-19.5 18.5t-23 21.5t-21 23.5t-13.5 24.5h-44q0 8 2.5 16.5t19.5 16.5q-8 17 -15 26.5t-7 17.5q0 3 3 3q2 0 6.5 -3
t12.5 -11q0 -8 1.5 -11t9.5 -11q16 12 37.5 24t41 21.5t34.5 15t19 5.5q37 16 71 28.5t59.5 19.5t41 9t15.5 -2q4 -4 -7.5 -15.5t-34 -27t-54.5 -33.5t-69 -34l-66 -22q21 -12 44 -27.5t44 -30t36 -26t19 -15.5q41 -33 77 -65t62 -59t39 -46.5t9 -27.5v-11h11z" />
    <glyph glyph-name="equal" unicode="=" horiz-adv-x="443" 
d="M228 216q8 0 38.5 -0.5t63.5 -3.5t59 -10t26 -19q0 -8 -13 -14t-33 -9.5t-43.5 -5.5t-44 -3t-35.5 -1h-18q-41 0 -77 2t-63 6t-42.5 10.5t-15.5 14.5q0 4 15.5 8t42.5 8.5t63 8.5t77 8zM228 315q37 0 71 -2t59.5 -5t41 -7t15.5 -8q0 -8 -15.5 -14.5t-41 -10.5t-59.5 -6
t-71 -2q-6 0 -22.5 -0.5t-38.5 -1t-46 0t-44.5 3t-33.5 7.5t-13 13q0 11 13 17.5t33.5 10.5t44.5 5t46 1t39 -0.5t22 -0.5z" />
    <glyph glyph-name="greater" unicode="&#x3e;" horiz-adv-x="536" 
d="M516 132l6.5 -13t3.5 -8t1 -5.5v-6.5q0 -3 -3 -3q-2 0 -6.5 3t-12.5 11q0 2 -1 5q-2 6 -10 6q-17 -12 -38 -22.5t-40.5 -19t-34.5 -14.5t-19 -10q-37 -17 -69.5 -29t-57 -19t-40.5 -9t-20 2q-4 8 7.5 20t34 26.5t54.5 30.5t69 33q10 6 21 12q9 5 20.5 10.5t24.5 10.5
q-21 12 -42.5 27.5t-41 30t-35.5 26t-24 15.5q-41 33 -77 63.5t-62 56t-39 46t-9 32.5h-11h-11h-11h22h22q8 8 38 -5.5t72 -38.5q8 -8 17.5 -11t26.5 -11q33 -17 71.5 -41.5t71.5 -57.5q8 0 11 -7t11 -15t19.5 -18t23 -20.5t21 -20.5t13.5 -18v-11q17 8 30.5 8t13.5 -8
t-1.5 -16.5t-9.5 -16.5zM54 440v-11v11zM32 440h-11h-11h11h11z" />
    <glyph glyph-name="question" unicode="?" horiz-adv-x="538" 
d="M497 572v-11v11zM497 583h-11q0 7 -6 15q-3 4 -5 7v11h-11h11h-11v11h-11v11h-11q-17 17 -33 32t-33 23q-8 8 -22 9.5t-22 1.5q-25 8 -44 13.5t-44 -2.5h-33q-14 0 -14 5q0 3 3 6q0 8 8 11t25 11q-4 -4 -2.5 -6t5.5 -2t9.5 2t9.5 6q17 8 33 2.5t33 -13.5h22q25 -8 44 -23
t44 -32q8 -8 11 -15t11 -7q0 -8 5 -10q3 -1 6 -1q0 -8 5.5 -11t5.5 -11q0 8 -5.5 11t-5.5 11v-11l11 -11q0 -8 1.5 -9.5t9.5 -1.5v-11q0 -8 5.5 -11t5.5 -11l-11 11zM442 649q0 -8 1.5 -9.5t9.5 -1.5q-8 0 -10 5q-1 3 -1 6zM508 561v11l-11 11v11q0 -3 1 -7q2 -8 10 -15v-11
zM519 528h-11h11zM321 693q33 -12 61 -36t47.5 -55t29 -67t5.5 -73q0 -17 -5.5 -36.5t-15 -38t-21.5 -34t-24 -23.5q-13 -13 -19.5 -14t-9.5 2q-4 4 -4 12q0 12 5.5 21.5t12.5 20t14.5 23.5t11.5 34q-4 -12 -1.5 -10t7 12.5t7 25.5t-1.5 27l-9 36t-13 39.5t-21 37.5t-34 30
q-8 0 -17.5 7t-26.5 15q-42 8 -82.5 5.5t-82.5 -27.5q27 3 45.5 -4.5t29.5 -20t16 -28t7 -30t1.5 -25t-0.5 -13.5q0 -29 -6 -55t-17.5 -46.5t-27.5 -34.5t-37 -18q-33 0 -57.5 28.5t-41.5 70.5q0 -8 5.5 -16.5t5.5 -16.5q-8 17 -9.5 26.5t-1.5 17.5v11q-8 0 -9.5 -7
t-1.5 -15l11 -11q0 -8 1.5 -11t9.5 -11q8 -10 10 -21q1 -6 1 -12q8 0 11 -5.5t11 -5.5v-11h11q8 -8 17.5 -16.5t26.5 -16.5q-8 0 -16.5 5.5t-16.5 5.5h-11q8 0 16.5 -5.5t16.5 -5.5h11h-22q-17 8 -33 17.5t-33 26.5v11q-8 0 -10 5q-1 3 -1 6q-8 8 -9.5 11t-1.5 11l-11 11v11
q-8 7 -10 15q-1 4 -1 7v44q0 33 13.5 63t36 55t52.5 43t63 26t71.5 8t71.5 -8zM13 495v11v-11zM46 407v-11v11h-11h11zM508 539v-11v11zM178 319h11h-11zM211 319h11h-11zM200 319h-11h11zM178 341q8 -8 17.5 -8t26.5 8h11q-8 0 -11 -1.5t-11 -9.5q-3 0 -7 1q-8 2 -15 10
q-8 0 -10 -6q-1 -3 -1 -5q-8 0 -11 5.5t-11 5.5t-11 -4t-11 4l-11 11q17 -8 27.5 -9.5t27.5 -1.5zM321 143q17 0 32 -20.5t23 -45.5q0 -4 -1 -16.5t-6 -26t-16 -24t-32 -10.5t-32 10t-16 23q-6 14 -7 33q8 33 19 55t36 22zM288 385h11h-11z" />
    <glyph glyph-name="at" unicode="@" horiz-adv-x="599" 
d="M433 517q-8 8 -16.5 9.5t-16.5 1.5q8 0 16.5 -5.5t16.5 -5.5zM455 66q4 0 12.5 -4t12.5 -10t0 -14t-25 -16q-17 -8 -42 -14t-53 -8t-55 0.5t-48 10.5q-54 16 -96.5 44.5t-71.5 64.5t-42.5 78.5t-9.5 87.5q0 82 66 165q29 29 65 51t76.5 33t83 10t83.5 -17q17 0 26.5 -7
t17.5 -15q7 0 15 -6q4 -3 7 -5h11v-11l11 -11h11q8 -8 11 -16.5t11 -16.5l-11 11q0 -3 1 -6q2 -5 10 -5l11 -11v-11h11q8 -25 15 -49.5t7 -49.5l-11 -22v11h11l-11 11q16 16 0 33v-11v-33q0 17 -7 32t-15 23v11v11q-8 8 -9.5 11t-1.5 11t-12.5 16.5t-20.5 16.5l-22 22
q-8 0 -10 5q-1 3 -1 6q-4 4 -11.5 6.5t-13.5 3.5t-9 1t1 0q17 -8 32 -17.5t23 -26.5q-8 8 -23 22t-32 22q-8 0 -23 7t-32 15q-17 0 -38.5 -1.5t-38.5 -9.5q-45 -4 -82 -23.5t-62.5 -48t-39.5 -64.5t-14 -73q0 -17 1.5 -32t9.5 -23q4 -29 17.5 -52t32 -41.5t40 -33.5
t42.5 -27q16 -12 38 -17t37.5 -5t19 3.5t-17.5 7.5q29 -4 48.5 -3t34 3t26 3t23.5 -3zM389 286v-11v11zM389 286h11h-11zM565 253l11 11zM565 253v-11v11zM554 242h11h-11zM510 187q8 0 10 5q1 3 1 6q0 -8 -1.5 -9.5t-9.5 -1.5zM312 407h-11h11zM246 374q-8 0 -16.5 -7
t-16.5 -15q8 8 16.5 9.5t16.5 1.5v11zM378 209q17 -8 19.5 -11t2.5 -11q-8 0 -15 7t-7 15q-8 0 -10 5q-1 3 -1 6l-11 11q0 17 -5.5 34.5t-5.5 42.5v11q0 17 1.5 32t9.5 23q-8 0 -11 1.5t-11 9.5h-11q8 0 11 -1.5t11 -9.5q-3 2 -7 5q-8 6 -15 6q-8 0 -16.5 5.5t-16.5 5.5
l-11 -11q17 0 24 -7t9 -15q3 -10 0 -22q-8 -17 -16.5 -30.5t-16.5 -13.5v-33q0 -4 -2 -15t-6 -24.5t-10.5 -27t-14.5 -21.5q3 0 7 -1t15 -10q8 -4 17.5 -4.5t15.5 0.5t7 2.5t-7 1.5q12 0 21 3.5t15 7.5t10.5 7.5t8.5 3.5t9 -2t7.5 -6t-1 -10.5t-15.5 -14.5q-4 -4 -13.5 -8
t-21 -7t-23 -5t-19.5 -2q-25 4 -47 15.5t-38.5 28t-26 36.5t-9.5 41q0 25 1.5 44t9.5 44q25 33 62 53.5t70 12.5h33q0 -8 1.5 -9.5t9.5 -1.5l11 -11q0 8 4 9.5t-4 1.5l22 22q2 -3 5 -7q6 -8 6 -15q-8 0 -9.5 -7t-1.5 -15h-11q0 -8 1.5 -9.5t9.5 -1.5q8 -8 9.5 -17.5
t1.5 -26.5v-11v11v11v-22q0 8 -1.5 16.5t-9.5 16.5v11q-8 0 -9.5 1.5t-1.5 9.5v-55v-33q0 -17 1.5 -26.5t9.5 -17.5v-11v-11zM400 187q8 0 17.5 -5.5t26.5 -5.5q-17 0 -26.5 1.5t-17.5 9.5zM389 308v-22h-11v-22v33q8 8 8 11t-8 11q0 6 5 4q3 -1 6 -4v-11zM488 176
q0 8 7 9.5t15 1.5q-8 -8 -16.5 -15t-16.5 -7l11 11h-11q0 -3 -1 -6q-2 -5 -10 -5h11h-11h-22h-11h22q-8 0 -10 5q-1 3 -1 6h22h11h11zM433 165h-11h11zM554 308q6 0 4 -6q-1 -3 -4 -5q0 -8 -1.5 -16.5t-9.5 -16.5q-8 -17 -9.5 -26.5t-1.5 -17.5q-8 0 -15 -1.5t-7 -9.5
q0 8 5 10q3 1 6 1q8 17 15 27.5t7 27.5q8 17 8 27.5t-8 27.5q0 8 1.5 7.5t4 -6t4 -12.5t1.5 -11zM389 275v-11v11zM543 220q2 0 5 1q6 2 6 10q0 -8 -5.5 -11t-5.5 -11v11z" />
    <glyph glyph-name="A" unicode="A" horiz-adv-x="777" 
d="M683 55v-11v11zM89 429q-17 -25 -26.5 -49.5t-17.5 -49.5v-11v-11q-5 0 -5 -2t1 -4q1 -3 4 -5q-8 0 -10 -6q-1 -3 -1 -5v-11v-33v-11v11v11v-11q-3 3 -6 7q-5 7 -5 15v11q6 0 4 5q-1 3 -4 6v11v11h11q0 8 -5.5 13.5t-5.5 -2.5v-22v22q0 8 5.5 11t5.5 11v33q17 33 29 59
t37 51q0 8 1.5 11t9.5 11q17 17 29 32t37 23q4 0 9.5 1.5t9.5 4t5.5 4t-2.5 1.5q17 0 26.5 4t17.5 -4q3 -3 4 -7q1 -3 0.5 -7t-4.5 -8q-8 0 -22 -7t-22 -15q-25 -8 -42.5 -23t-34.5 -32q-8 -17 -16.5 -26.5t-16.5 -17.5zM45 187v-11v-11v22zM606 88q7 -8 15 -10q4 -1 7 -1
q0 -3 1 -6q2 -5 10 -5q-8 0 -10 5q-1 3 -1 6q-8 0 -15 5q-4 3 -7 6q-8 8 -16.5 11t-16.5 11q-7 6 1 4q4 -1 10 -4q8 0 10 -6q1 -3 1 -5zM716 121q12 -4 21 -11q8 -6 12 -16.5t0 -27.5q-8 -17 -16.5 -19.5t-16.5 -2.5v-11q0 8 -6 10q-3 1 -5 1q-8 0 -15 5q-4 3 -7 6l-11 11
v-11h11q-8 0 -11 1.5t-11 9.5q2 0 5 -1q6 -2 6 -10v11q-8 0 -16.5 5.5t-16.5 5.5q0 8 -7 11t-15 11l11 -11q0 8 -6 10q-3 1 -5 1v11q-7 0 1 -6q4 -3 10 -5v-11h11l11 -11q2 0 5 -1q6 -2 6 -10q-8 8 -13.5 22t2.5 22q8 17 24.5 18t41.5 -7zM595 110q-8 8 -16.5 11t-16.5 11
l-11 11q0 8 -7 11t-15 11q0 2 -1 5q-2 6 -10 6v11q-6 2 -10 5q-8 6 -1 6q0 -8 7 -16.5t15 -16.5q-8 8 -15 16.5t-7 16.5q-8 0 -11 7t-11 15q0 8 -7 17.5t-15 26.5q-17 50 -30.5 93.5t-13.5 93.5q-8 8 -9.5 16.5t-1.5 16.5v11q-3 2 -7 5q-8 6 -15 6q-17 0 -27.5 5.5
t-27.5 5.5t-34.5 -7t-42.5 -15t-48 -24.5t-40 -41.5q33 33 66 33q21 -4 33.5 -23.5t18.5 -48t6.5 -64.5t-3.5 -73q0 -4 -2.5 -24t-10 -46t-20 -52.5t-33.5 -42.5q17 -8 27.5 -11t27.5 -11q12 -8 30 -9t31.5 1t17 5t-12.5 3q25 0 42 5t30.5 10t25 8t23.5 -1q11 -2 16 -6
q4 -5 2.5 -13t-18.5 -25q-12 -8 -33.5 -17.5t-46.5 -17t-50 -10.5t-46 1q-45 4 -85.5 25t-71.5 53t-50.5 72t-23.5 81q-8 50 0 92t33 84q21 37 49 67t62 49.5t73 27t80 -0.5q17 0 26.5 -5.5t17.5 -5.5t10 -6q1 -3 1 -5q0 25 7 42.5t15 34.5q8 4 14 13t8 16t-0.5 9.5
t-10.5 -5.5q8 12 13 21t9 15t9 10.5t13 8.5q4 0 9.5 -0.5t9.5 -2.5t5.5 -6.5t-2.5 -12.5q0 -8 -2 -18t-5 -19t-7 -17t-8 -12q-17 -25 -19.5 -55t-2.5 -55q2 0 5 -1q6 -2 6 -10q0 33 2.5 64.5t19.5 56.5q8 4 14 13t9 16t3 9.5t-4 -5.5q8 12 13 21t9 15t9 10.5t13 8.5
q6 0 11 -4q4 -3 7.5 -10t3.5 -19q-8 -8 -16.5 -28.5t-16.5 -37.5q-25 -33 -29 -67t-4 -76v-33q8 -17 9.5 -26.5t1.5 -17.5v-22q0 -17 1.5 -26.5t9.5 -17.5q0 -25 7 -44t15 -44q8 0 9.5 -7t1.5 -15l11 -11v-11q8 0 10 -6q1 -3 1 -5v-11h11q8 -17 11 -26.5t11 -17.5l11 -11v11
h-11q0 2 -1 5q-2 6 -10 6h11q0 -8 1.5 -11t9.5 -11q-8 8 -16.5 15t-16.5 7l-11 11v11q-3 2 -7 5q-8 6 -15 6q3 0 4 1q2 2 -4 10q-3 0 -6 1q-5 2 -5 10v11q-6 3 -10 4q-8 2 -1 -4l22 -22q-8 0 -15 7t-7 15q-8 8 -9.5 16.5t-1.5 16.5q-8 8 -16.5 17.5t-16.5 26.5v11v-11h-11
q8 -8 11 -16.5t11 -16.5q0 -8 5 -15q3 -4 6 -7h-11h11l11 -11v-11q8 -8 9.5 -11t1.5 -11v11v-11q8 0 9.5 -1.5t1.5 -9.5l33 -33v-11q-8 8 -9.5 11t-1.5 11v-11v11q0 -8 1.5 -15t9.5 -7zM562 209v22v-22zM518 396v-11v11q0 -17 1.5 -26.5t9.5 -17.5v11q0 8 -1.5 16.5
t-9.5 16.5zM342 550q8 0 16.5 -5.5t16.5 -5.5q-8 8 -16.5 9.5t-16.5 1.5zM408 495v11h-22q7 0 15 -6q4 -3 7 -5zM474 484q-3 0 -6 1q-5 2 -5 10zM463 374q16 -66 33 -99q2 0 5 1q6 2 6 10q-8 21 -14.5 40t-10.5 38.5t-6 40.5t-2 46v11h-11v-11v-77zM518 220v11v-11zM34 220
h-11l11 -11v-11v11l-11 11v33v-11q6 0 4 -6q-1 -3 -4 -5z" />
    <glyph glyph-name="B" unicode="B" horiz-adv-x="651" 
d="M252 429l11 11zM241 429q33 0 33 -33q4 -17 -2.5 -26t-15.5 -13q-11 -5 -26 -5q-50 0 -66 33v11v-11q-8 -8 -16.5 -22t-16.5 -22q-8 -17 -9.5 -29t-1.5 -37q0 -8 -5.5 4t-5.5 29q2 0 5 1q6 2 6 10t5.5 16.5t5.5 16.5h11q0 8 1.5 16.5t9.5 16.5q8 0 9.5 1.5t1.5 9.5
q8 8 17.5 16.5t26.5 16.5q8 0 16.5 5.5t16.5 5.5h11v-11h-11zM604 253q0 2 1 5q2 6 10 6h-11v-11v-11v11q2 0 5 1q6 2 6 10q0 -7 -6 -15q-3 -4 -5 -7v-11v-11v-11h-11v-11v-11q0 3 1 7q2 7 10 15q-8 -8 -9.5 -16.5t-1.5 -16.5l-11 -11q-8 -8 -11 -16.5t-11 -16.5
q-17 -25 -40 -48t-48 -40q-8 0 -11 -5.5t-11 -5.5q-17 -8 -38.5 -20.5t-38.5 -12.5q-4 4 -11 4.5t-12.5 -0.5t-6 -2.5t7.5 -1.5h-19t-11 1t-7 3.5t-7 6.5q-8 0 -8 7t8 15h55q25 0 44 13.5t44 30.5q17 0 26.5 7t17.5 15q25 17 42.5 38.5t34.5 38.5v11l11 11v11l11 11v-11v11
v11q0 8 5.5 11t5.5 11zM571 176v11v-11zM186 33h-11h11zM175 33q0 3 -1 7t-10 15q8 -8 9.5 -11t1.5 -11zM626 297h-11q8 -8 9.5 -11t1.5 -11q-8 -8 -9.5 -11t-1.5 -11v11v11h11q0 8 -5.5 11t-5.5 11h11zM505 121q-33 -29 -69.5 -49t-75 -28t-77 -3.5t-75.5 25.5
q-8 8 -22 16.5t-22 16.5l-11 11v11v-11l-11 11q0 2 -1 5q-2 6 -10 6v11l-11 11q0 -8 1.5 -11t9.5 -11v-11h-11q2 0 5 1q6 2 6 10h-11v22v-11v-22q0 8 -5.5 16.5t-5.5 16.5l-11 11v11q0 8 -5.5 11t-5.5 11q3 0 4 1q2 2 -4 10v11v11q0 8 -5.5 13.5t-5.5 -2.5t5.5 -16.5
t5.5 -16.5q0 8 -5.5 16.5t-5.5 16.5v33q0 8 -5.5 16.5t-5.5 16.5v-11v-33l11 -11h-11h11q-8 0 -8 -5.5t8 -5.5v-22v11v-11v-11q0 -17 5.5 -27.5t5.5 -27.5v-11v11v22l-11 -11h11v-22q0 8 -7 16.5t-15 16.5v11v22l-11 11v11v11q-5 0 -5 1.5t1 3.5q1 3 4 6q0 8 -5.5 13.5
t-5.5 -2.5t1.5 -16.5t9.5 -16.5q-8 8 -9.5 16.5t-1.5 16.5v33q-8 17 -9.5 27.5t-1.5 27.5q0 50 4 99t29 99q0 8 5.5 16.5t5.5 16.5q8 12 15 27.5t14 30t16 26t21 15.5q8 4 17.5 11.5t15.5 13.5t7 9t-7 -1q12 8 19 14.5t12.5 10.5t10.5 6t13 2t15 -8t7 -25q0 8 7 9.5t15 1.5
v-11v11q8 8 17.5 16.5t26.5 16.5q8 0 9.5 1.5t1.5 9.5h11h-11h11h11h11q2 0 5 1q6 2 6 10q8 0 16.5 -5.5t16.5 -5.5q21 -4 37.5 -16t28.5 -28.5t20.5 -36t12.5 -40.5q0 -25 -7 -48t-15 -40l-11 -11q37 -25 63.5 -57t42 -68t19.5 -74.5t-4 -75.5q-8 -50 -31.5 -85.5
t-56.5 -68.5zM65 286v11v-11zM406 770h-11h11zM285 737v-11q0 -3 -1 -6q-2 -5 -10 -5h11v22zM120 176v-11v11zM120 154v11v-11zM197 77q3 -3 7 -6q7 -5 15 -5q-11 9 -15 10t-7 1zM318 88q33 0 59 8t51 25q-25 -8 -42.5 -9.5t-34.5 -1.5q-17 12 -23.5 35.5t-4 53.5t12 64
t26.5 67q0 4 8 22t22.5 40t34.5 42t45 28q-8 17 -16.5 26.5t-16.5 17.5h-11q-25 -8 -51 -13.5t-59 2.5q-17 0 -32 13.5t-23 30.5h-22q-5 3 -8 8q-2 4 -1 10.5t9 14.5h11q0 2 1 5q2 6 10 6q16 4 39.5 6t48.5 1t48 -5.5t40 -12.5q2 0 5 -1q6 -2 6 -10v11q25 42 23.5 81.5
t-34.5 72.5q-8 8 -16.5 15t-16.5 7q-8 8 -16.5 9.5t-16.5 1.5h-33h33h-11h-22q-8 -8 -11 -5.5t-11 -5.5h-11v-11q-8 -8 -15 -11t-7 -11l11 11q-8 -8 -9.5 -11t-1.5 -11q0 -3 -1 -6q-2 -5 -10 -5v-11v-22v11v11l-44 -44q-33 -25 -52.5 -62t-35.5 -70q-8 -17 -15 -38.5
t-7 -38.5q-8 -33 -9.5 -60.5t-1.5 -60.5v11v-11v-11v11q-8 -17 -4 -33t4 -33v-11q8 0 9.5 -1.5t1.5 -9.5v-22l22 -22q-3 -3 -4 -6q-1 -2 -1 -3.5t5 -1.5q0 -8 7 -11t15 -11v-11q4 -4 11.5 -8t13.5 -6t9 -1.5t-1 4.5q-17 8 -26.5 17.5t-17.5 26.5q8 -8 17.5 -22t26.5 -22
q8 -8 17.5 -16.5t26.5 -16.5h77zM395 528q-12 4 -22 4.5t-14 -0.5t-1 -2.5t15 -1.5h22zM307 528q8 0 16.5 -5.5t16.5 -5.5t16.5 5.5t16.5 5.5h-66zM285 616l-11 11q8 0 11 -5.5t11 -5.5h-11zM296 616v-11v11zM263 671v-11v11zM109 352q0 2 1 5q2 6 10 6q-8 0 -10 -6
q-1 -3 -1 -5zM120 374h11h-11zM120 374v-11v11zM142 99v11v-11zM87 121q8 -8 15 -11t7 -11v-11v11q-8 8 -11 15t-11 7q-8 8 -9.5 16.5t-1.5 16.5l-4.5 4.5t1.5 -0.5t6 -2.5t8 -1.5q0 -8 -4 -9.5t4 -1.5q0 -8 1.5 -11t9.5 -11h-11zM120 99v22v-11v11h-11v11v-11v11l11 -11
v-11l11 -11q0 -8 5.5 -11t5.5 -11v-11v11zM615 319v11v-11zM604 286l11 11zM142 55q0 8 -5.5 11t-5.5 11l11 -11v-11zM142 396v-11h-11q8 0 10 5q1 3 1 6zM153 99h-11h11z" />
    <glyph glyph-name="C" unicode="C" 
d="M565 605v-22l33 -33q-3 0 -6 -1q-5 -2 -5 -10q8 -8 15 -16.5t7 -16.5v-33v22q-8 17 -11 33t-11 33l-55 55q-4 4 -1 4.5t9 -1.5t13.5 -6t11.5 -8zM697 297q12 8 21 7q8 -1 12 -11.5t0 -39.5q-8 -21 -24 -46t-35.5 -49t-41 -43t-42.5 -27q-54 -29 -110 -37.5t-110 0.5
t-102 35.5t-85 67.5q-33 42 -56.5 91t-31.5 107q-4 49 4 99.5t29 94.5t54 79.5t78 56.5q17 8 33 11t33 11h22h11h-11h11h22h11h44h-11h-11h11v-11v11h11q0 -8 5 -10q3 -1 6 -1h11h11q12 -8 26 -15t27.5 -14t25.5 -16t20 -21q2 -6 5 -12q2 -5 4 -11t2 -10v11v11h-11
q0 8 -12.5 16.5t-20.5 16.5l11 -11l33 -33q-17 17 -33 26.5t-33 17.5h-11q-8 0 -11 5.5t-11 5.5q-3 0 -7 1q-8 2 -15 10h-44v11q-17 -8 -26.5 -9.5t-17.5 -1.5q-3 3 -7 4q-3 1 -7 0.5t-8 -4.5q-4 0 -11 -3.5t-12.5 -6.5t-6 -4t7.5 3q12 4 21 6.5t17.5 3.5t17.5 1h21
q-17 0 -38.5 -5.5t-38.5 -5.5q-17 -8 -32 -11t-23 -11q-25 -17 -37 -38.5t-29 -38.5q-29 -45 -38 -93.5t-3 -95t25.5 -88.5t48.5 -75q17 -17 27.5 -26.5t27.5 -17.5q25 -21 55 -28.5t60.5 -8.5t60.5 1.5t55 2.5q21 4 40 18t30 26t11.5 17.5t-15.5 -6.5q25 16 39 32.5
t24.5 31t20 26.5t26.5 20zM290 682q-8 0 -16.5 -1.5t-16.5 -9.5q8 0 16.5 5.5t16.5 5.5zM488 11h-11h-11q8 0 11 4t11 -4zM433 22v-11q-3 0 -6 1q-5 2 -5 10h11zM444 11q-3 0 -6 1q-5 2 -5 10zM400 11h-22h-11h-11h-22q0 8 -6 10q-3 1 -5 1h-11h-11q8 0 16.5 -5.5t16.5 -5.5
q-8 0 -16.5 1.5t-16.5 9.5q-8 0 -11 5.5t-11 5.5t-17.5 1.5t-26.5 9.5q-33 25 -64.5 45.5t-56.5 53.5q0 8 -5.5 11t-5.5 11q-8 8 -18 18.5t-18 21.5t-13.5 23.5t-5.5 24.5q0 8 -1.5 17.5t-4 15.5t-4 7t-1.5 -7q0 12 -1.5 21t-1.5 15t3 10.5t11 8.5q3 3 7 3q7 0 15 -14
q0 -8 5.5 -23t5.5 -32q8 -33 28.5 -59t37.5 -51q8 -8 17.5 -22t26.5 -22q49 -50 99 -66q8 -8 11 -9.5t11 -1.5l11 -11h11h11v-11v11l11 -11q8 0 22 -1.5t22 -9.5h11h-11h-11h11zM290 55q8 0 10 -6q1 -3 1 -5q-3 0 -6 1q-5 2 -5 10zM422 0q8 0 11 4t11 -4h11h-11h-22h-33
q-4 0 -3 0t4 1t6.5 3.5t3.5 6.5q0 -3 1 -6q2 -5 10 -5h11v0zM631 517v-11v11zM620 550v-11v11zM609 572q8 -8 9.5 -11t1.5 -11q0 8 -5.5 11t-5.5 11zM609 407v11h11q-8 -8 -11 -20.5t-11 -12.5v-11l-11 -11q8 17 15 26.5t7 17.5zM521 572q37 0 55.5 -15.5t25.5 -35t7 -37.5
v-22q-8 -50 -26 -81.5t-51 -39.5q-17 0 -31 9.5t-25.5 25t-19.5 35t-12 40.5q0 4 -0.5 22t6 38.5t22.5 38.5t49 22z" />
    <glyph glyph-name="D" unicode="D" horiz-adv-x="846" 
d="M555 594q8 -8 22 -11t22 -11q-8 8 -17.5 16.5t-26.5 16.5q-17 17 -34.5 32t-42.5 23h-66q-17 0 -38.5 -1.5t-38.5 -9.5q12 4 21 6.5t17.5 3.5t17.5 1h21q8 0 7 1.5t-7 4t-15.5 4t-17.5 1.5l-11 -11q-8 0 -17.5 -1.5t-26.5 -9.5t-26.5 -11t-17.5 -11l-11 -11l-11 -11
l-11 -11q-17 -8 -26.5 -22t-17.5 -22v-11l9.5 9.5t9.5 8.5t5.5 2t-2.5 -9q-8 -8 -11 -16.5t-11 -16.5q8 -58 9.5 -97.5t1.5 -56.5q-8 -42 -11 -87t-11 -78q12 -4 21.5 -10t18.5 -13.5t20 -15.5t28 -16q-33 66 -33 165q-8 4 -13 8t-8 8.5t-5.5 8.5t-6.5 8h11q0 -8 -1.5 -8
t-9.5 8l33 -33q0 17 5.5 38.5t5.5 38.5q3 5 8.5 26.5t17.5 49.5t32 57.5t52 51t78 30t109 -5.5zM214 583q0 -8 -5.5 -11t-5.5 -11v-11q0 8 5 15q3 4 6 7v11zM445 704h33h-33zM709 231q-21 -50 -56.5 -90t-82 -67t-101 -38t-112.5 -3q-21 4 -44.5 14t-47.5 23.5t-46 29
t-38 32.5q-8 -42 -23 -59.5t-32 -17.5t-31 25t-24 67t-16 98t-6 118q0 5 -0.5 31t1 61.5t5 75.5t12 73.5t23 55.5t36.5 22q16 0 29 -9.5t22 -25t15.5 -35t10.5 -40.5q8 17 28.5 38.5t37.5 38.5h11v11q8 0 11 1.5t11 9.5v-11v11h11h-11q8 0 16.5 5.5t16.5 5.5q0 2 1 5
q2 6 10 6h22v11v-11l11 11h22h66q49 -4 92 -25.5t77 -55.5t58.5 -78.5t36.5 -93.5q8 -58 5.5 -114t-27.5 -106zM632 88q8 0 10 5q1 3 1 6q-3 0 -6 -1q-5 -2 -5 -10zM808 374q4 -12 2.5 -26.5t-5.5 -28.5t-9.5 -28.5t-9.5 -26.5q0 -3 -1 -7q-2 -7 -10 -15q-8 -41 -30 -70
t-47 -62q-8 -8 -16.5 -15t-16.5 -7q-8 -8 -15 -11t-7 -11q-8 -8 -15 -10q-4 -1 -7 -1q3 2 7 5q8 6 15 6q0 6 -6 4q-3 -1 -5 -4q0 -3 -1 -6q-2 -5 -10 -5h-11v-11h-11q-8 0 -9.5 -1.5t-1.5 -9.5h-11q-8 0 -16.5 -5.5t-16.5 -5.5q8 0 11 5.5t11 5.5h-11l-11 -11l11 11
q8 0 16.5 7t16.5 15h11v11v-11v11v-11q0 8 1.5 9.5t9.5 1.5l11 11v11q8 0 11 1.5t11 9.5q8 12 18 23t19 22.5t17 24t12 29.5q16 16 20.5 32.5t12.5 33.5q4 12 9.5 26.5t9.5 30t5.5 31.5t-2.5 33v11.5t-1 16t-3.5 16t-6.5 11.5q8 17 16.5 18t16.5 -7t11 -17.5t11 -26.5
q-4 4 -6 1t-2 -9t2 -13.5t6 -11.5zM467 0q8 8 11 9.5t11 1.5v-11q-8 0 -9.5 1.5t-1.5 9.5q0 -8 -6 -10q-3 -1 -5 -1zM566 22q-8 -8 -16.5 -9.5t-16.5 -1.5q-3 0 -7 -1q-7 -2 -15 -10v11h22h11q8 0 10 5q1 3 1 6h11zM533 22h-11h11z" />
    <glyph glyph-name="E" unicode="E" horiz-adv-x="718" 
d="M593 451h-11h11zM395 407q4 0 20 2t35 -1t35 -15t20 -41q8 -29 -1.5 -46.5t-25 -26.5t-31 -12t-19.5 -3q-21 0 -40.5 2.5t-35 8.5t-25 16.5t-9.5 27.5q-8 25 13.5 48t63.5 40zM615 110q-8 0 -11 -7t-11 -15h-11q0 -3 -1 -6q-2 -5 -10 -5q0 -3 -1 -6q-2 -5 -10 -5
t-11 -1.5t-11 -9.5q-8 0 -13.5 -5.5t2.5 -5.5q8 8 15 11t7 11q0 -8 -7 -11t-15 -11q-8 0 -16.5 -1.5t-16.5 -9.5q-8 0 -16.5 -5.5t-16.5 -5.5q-50 -17 -92 -23.5t-84 1.5h-33q-8 0 -16.5 5.5t-16.5 5.5q-8 -8 -15 -10q-4 -1 -7 -1q-17 0 -26.5 8t-17.5 25h-11q-4 8 -13 14
t-16 9t-9.5 3t5.5 -4q-8 8 -16 13t-14 9t-10 9t-4 13q3 6 8 10q4 3 10.5 4t14.5 -3q0 8 1.5 9.5t9.5 1.5q-8 33 -15 72.5t-7 81.5q0 8 -1 36t1 64t9 74.5t24 67.5v-11l-66 -33q-8 -5 -12.5 -3.5t-6.5 4.5q-3 4 -3 10q0 12 2 19t7.5 12.5t14 10.5t20.5 13q-8 -8 -7 -9t7 2
t15.5 8.5t17.5 9.5q17 25 47 29t63 4q3 0 7 1q7 2 15 10q50 0 92 -7t84 -15q17 0 26.5 -7t17.5 -15q8 0 16.5 -1.5t16.5 -9.5q8 0 11 -5.5t11 -5.5q-8 0 -11 5.5t-11 5.5l-4.5 4.5t0.5 -1.5t2.5 -6t1.5 -8h11q8 0 9.5 -1.5t1.5 -9.5q2 3 5 4q6 2 6 -4l11 -11h11l11 -11
l22 -22q-8 0 -11 5.5t-11 5.5l11 -11h11h-11q-8 8 -17.5 15t-26.5 7l-11 11h-11q0 8 -6 10q-3 1 -5 1h-11q-8 0 -11 5.5t-11 5.5q-33 8 -66 15t-66 7h-77h-22q22 -14 36.5 -37.5t23 -51t12 -57t5 -55.5t1 -46t-0.5 -28q-8 -58 -17.5 -112.5t-26.5 -96.5h55h77q33 8 66 17.5
t66 26.5q3 0 7 1q7 2 15 10h11h-11h11v11h11h11h-11h11v11h11l33 33h11v-11q-8 0 -11 -1.5t-11 -9.5h11v11q2 0 5 1q6 2 6 10q-8 -8 -11 -16.5t-11 -16.5h-11v-11q-8 0 -11 -5.5t-11 -5.5l-11 -11h-11q0 -8 -5.5 -13.5t-5.5 2.5q16 0 20.5 5.5t12.5 5.5q-8 0 -16.5 -5.5
t-16.5 -5.5q0 -8 -7 -9.5t-15 -1.5q-8 -8 -16.5 -15t-16.5 -7h22l11 11h11q8 0 10 5q1 3 1 6v-11v11h11h11q8 8 16.5 15t16.5 7l11 11v-11v11q0 -8 -6 -10q-3 -1 -5 -1l-11 -11q8 8 8 9.5t-8 1.5h22zM538 110h-11h11zM472 528h-11h11zM494 66q0 -5 1.5 -5t3.5 1q3 1 6 4h-11
zM626 143v-11v11zM692 242q0 -3 -1 -6q-2 -5 -10 -5q0 2 1 5q2 6 10 6zM637 121q8 8 10 15q1 4 1 7h11h-11q0 -7 -6 -15q-3 -4 -5 -7l-22 -22l-4.5 -4.5t0.5 1.5t2.5 6t1.5 8h11q0 2 1 5q2 6 10 6zM692 242l11 11zM681 187q0 -8 -5.5 -11t-5.5 -11h-11l11 11zM593 473
q-8 8 -9.5 5.5t-1.5 5.5q-8 0 -10 5q-1 3 -1 6q8 -8 16.5 -15t16.5 -7q0 -8 5 -15q3 -4 6 -7l11 -11q-8 0 -10 5q-1 3 -1 6q-8 0 -10 5q-1 3 -1 6zM648 187v11v-11zM637 407l-11 11h11h-11q8 0 11 -5.5t11 -5.5h-11zM659 187q8 0 10 5q1 3 1 6q0 2 1 5q2 6 10 6l-11 -11
q-3 -3 -6 -7q-5 -7 -5 -15l-22 -22q-5 -5 -5 -3.5t1 4.5q1 4 4 10h11q0 8 1.5 11t9.5 11zM637 154v-11v11z" />
    <glyph glyph-name="F" unicode="F" horiz-adv-x="615" 
d="M500 506h11l-11 11q-8 0 -16.5 5.5t-16.5 5.5v11h-11h-11v11h-11q3 -3 7 -6q7 -5 15 -5q-8 0 -16.5 1.5t-16.5 9.5l11 -11h11l11 -11q8 0 10 -6q1 -3 1 -5h11h11v-11h11zM456 517h-11h11v0zM401 561q8 0 11 -5.5t11 -5.5q-8 0 -11 5.5t-11 5.5zM401 539h11h-11zM412 561
h-11h11zM566 495q12 -13 18 -25q5 -11 5 -22t-12 -19q-17 -13 -29.5 -12.5t-20.5 5.5q-10 6 -16 18q-8 17 -15 27.5t-7 27.5q-3 2 -7 5q-8 6 -15 6v11h-11h-11l-11 11h-11q-8 0 -11 1.5t-11 9.5q-25 8 -56.5 11t-64.5 11q-17 0 -33 -1.5t-33 -9.5h-11q33 0 54.5 -16.5
t35 -42.5t20.5 -57t11 -60q8 8 17.5 11t26.5 11q22 6 40 3q16 -2 29.5 -12t18.5 -35q4 -25 -6 -40t-24.5 -23.5t-28.5 -11t-18 -2.5q-17 0 -33 1.5t-33 9.5v-11q0 -58 -8 -108t-22.5 -87t-34.5 -58.5t-45 -21.5q-21 0 -39 21.5t-31.5 58.5t-21 87t-7.5 108q-3 5 -5 26
t-1.5 50t5 61.5t15.5 61.5t29 49.5t45 26.5q-25 0 -48 -8t-40 -25q-17 -8 -32 -16.5t-23 -16.5q-14 0 -19 11q-3 4 -3 11q0 8 1.5 11t9.5 11q0 8 2 13t6 9t10.5 9t14.5 13q-4 -8 -1 -10.5t9 -0.5t13.5 8t11.5 14q17 17 40 19.5t48 2.5q8 8 16.5 9.5t16.5 1.5q33 0 71.5 -7
t71.5 -15q16 0 20.5 -5.5t12.5 -5.5q8 -8 16.5 -9.5t16.5 -1.5t11 -5.5t11 -5.5q-8 0 -11 5.5t-11 5.5q-5 0 -5 -2t1 -4q1 -3 4 -5h11q2 0 5 -1q6 -2 6 -10q8 0 10 -6q1 -3 1 -5h11h11q0 -8 7 -15t15 -7h-22q8 0 8 1.5t-8 9.5v-11h11h11q-8 0 -10 5q-1 3 -1 6q8 0 11 -5.5
t11 -5.5t22 -7t22 -15z" />
    <glyph glyph-name="G" unicode="G" horiz-adv-x="730" 
d="M664 242q25 -25 32 -70t-10 -95q0 -4 -6.5 -22.5t-20 -35t-34 -23t-49.5 14.5q-33 16 -33 33q-17 -8 -38.5 -15t-38.5 -7q-54 -12 -106 -5t-97.5 31t-81 62t-56.5 88q-25 50 -33 106t0 114q8 49 28 93.5t50 79.5t69 59t84 32h55h33v-11v11v-11h33q8 -8 16.5 -11t16.5 -11
h-11v11v-11h11v-11v11h11l11 -11l11 -11q25 -17 47 -40t30 -48q2 -6 5 -12q2 -5 4 -11t2 -10l-11 11q3 0 4 1q2 2 -4 10q0 17 -7 26.5t-15 17.5v-11q8 -8 15 -22t7 -22q0 8 -7 16.5t-15 16.5v-11q8 -8 9.5 -11t1.5 -11q8 0 5.5 -7t5.5 -15q0 -8 1.5 -16.5t9.5 -16.5
q-3 0 -6 -1q-5 -2 -5 -10q8 -8 9.5 -22t1.5 -22t-5.5 -11t-5.5 -11q0 8 5.5 11t5.5 11q0 17 -5.5 33t-5.5 33q0 8 -5.5 22t-5.5 22q0 -8 -2 -14.5t-4 -10.5q-3 -5 -5 -8q0 -50 -22 -80t-55 -30q-17 0 -31 9.5t-24 26t-16 38.5t-6 47q-2 31 5 54q6 20 22.5 34.5t49.5 10.5h33
l-22 22q-8 8 -18 5.5t-26 5.5v11h-33q-8 0 -11 5.5t-11 5.5q-4 0 -11 -1.5t-12.5 -4t-6 -4t7.5 -1.5q17 0 33 -1.5t33 -9.5q-17 8 -34.5 9.5t-42.5 1.5h-55q-17 -17 -38.5 -27.5t-38.5 -27.5q-37 -33 -58 -76.5t-27 -91t1.5 -95.5t28.5 -89q8 -17 16.5 -32t16.5 -23
q21 -29 47 -45t53.5 -24t55.5 -11.5t53 -7.5q21 -4 43 2t36.5 14.5t16.5 14.5t-19 2h22q4 12 8 22t7 18q4 9 7 15q25 41 56.5 61.5t64.5 4.5zM345 671q-17 16 -33 0h33zM169 66v11v-11zM158 77q-8 8 -16.5 11t-16.5 11v11h-11q0 8 -1.5 9.5t-9.5 1.5v11l-11 11
q0 8 -5.5 13.5t-5.5 -2.5l22 -22q-8 0 -11 7t-11 15q0 8 -1.5 15t-9.5 7q0 8 -7 16.5t-15 16.5q-8 42 -15 81.5t-7 72.5v33q0 25 2.5 53.5t19.5 45.5q8 4 12.5 11.5t5.5 13.5t-1 9t-6 -1q8 8 13 14.5t9 10.5t9 6t13 2q6 0 10 -3q3 -2 4 -6.5t-3 -12.5q0 -8 -7 -22t-15 -22
q-17 -33 -19.5 -66t-2.5 -66q-8 -8 -8 -28.5t8 -37.5q0 -33 8 -60.5t25 -60.5v-11l11 -11v-11l11 -11h-11h11v-11q8 -8 15 -16.5t7 -16.5l11 -11l-11 11v11v-11zM103 176q-8 0 -9.5 1.5t-1.5 9.5zM158 55h22v-11l-22 22q-8 0 -11 5.5t-11 5.5q0 6 5 4q3 -1 6 -4v-11h11
q6 0 4 -6q-1 -3 -4 -5zM224 33v-11q-8 8 -11 9.5t-11 1.5h11h11zM180 66h-11h11zM180 55v11l11 -11h-11zM620 440v11v-11zM620 462v-11v11zM620 462v11v-11zM576 319v11h11q-8 -8 -12.5 -16.5t-20.5 -16.5v-11h-11zM620 418v-11v22v-11z" />
    <glyph glyph-name="H" unicode="H" horiz-adv-x="741" 
d="M643 220h11h-11q-17 8 -26.5 16.5t-17.5 16.5h-11h-11q0 2 -1 5q-2 6 -10 6h-11l-11 11h-33q-33 17 -72.5 25t-81.5 8h-11q0 -62 -9.5 -118t-26 -98t-38.5 -67t-47 -25q-21 0 -39 19.5t-33.5 53.5t-28 80t-20.5 100q-8 -8 -22 -16.5t-22 -16.5q-13 -5 -19.5 -1.5
t-9.5 8.5q-4 6 -4 15q0 8 4 13t10 10.5t14 12.5t16 19q-4 -8 -2.5 -10.5t6.5 -1.5t13 4.5t16 7.5v22q0 5 -1 30t0.5 59.5t7.5 73t19.5 70.5t36 53.5t58.5 21.5q45 0 71.5 -30.5t40 -74t17 -90.5t3.5 -80q25 0 55 -7t55 -15q17 0 26.5 -7t17.5 -15q8 0 20.5 -1.5t12.5 -9.5
q8 0 14 -2t11 -4q4 -3 8 -5q-8 0 -12.5 5.5t-20.5 5.5q0 6 5 -1q3 -4 6 -10h11q8 0 11 -5.5t11 -5.5t10 -6q1 -3 1 -5q8 0 10 -6q1 -3 1 -5h11l33 -33q-8 8 -11 9.5t-11 1.5q0 -3 1 -6q2 -5 10 -5zM511 286q8 -8 9.5 -8t1.5 8h-11zM577 253v11v-11q8 0 9.5 1.5t1.5 9.5z
M665 198v-11v11zM533 253q37 0 55.5 -15.5t25.5 -35t7 -37.5v-22q0 -21 -6 -40.5t-16 -35t-24.5 -25t-30.5 -9.5q-17 -4 -31 3t-25.5 21.5t-19.5 34t-12 40.5q0 4 -0.5 22t6 38.5t22.5 38.5t49 22zM566 330q-17 -5 -26 2t-13 16q-5 11 -5 26q0 25 12.5 40t20.5 15
q17 0 30.5 -15t13.5 -40q3 -12 0 -22q-2 -8 -9 -15t-24 -7zM665 198h11h-11zM709 154q8 0 11 -1.5t11 -9.5h-11q-8 8 -9.5 11t-1.5 11v-11zM676 220q0 -8 7 -16.5t15 -16.5h-11q0 8 -1.5 15t-9.5 7l-11 11q0 4 -1.5 4.5t-4 0.5t-4 1t-1.5 5q-4 0 -6.5 3.5t-3.5 6.5t-1 4
t0 -3q8 -8 16.5 -11t16.5 -11z" />
    <glyph glyph-name="I" unicode="I" horiz-adv-x="252" 
d="M144 583q-33 -8 -62 -7t-37 18q-17 25 -3 48t47 40q0 4 11 12t26.5 11t32.5 -3t29 -31q12 -21 6.5 -37.5t-16.5 -27.5q-13 -13 -34 -23zM210 275q0 -58 -6 -108t-17.5 -87t-27.5 -58.5t-37 -21.5q-17 0 -31 21.5t-25.5 58.5t-19.5 87t-12 108q0 5 -0.5 28t1 53.5t6 64.5
t14.5 62.5t26 47.5t41 19q27 0 45 -19t29 -47.5t15.5 -62.5t5 -64.5t-1.5 -53t-5 -28.5z" />
    <glyph glyph-name="J" unicode="J" horiz-adv-x="674" 
d="M578 198q8 0 9.5 1.5t1.5 9.5zM633 396q8 -41 2.5 -77t-13.5 -77q0 -8 -7 -22t-15 -22v-22q-8 -8 -9.5 -11t-1.5 -11q0 8 1.5 11t9.5 11q0 6 -6 4q-3 -1 -5 -4v-11q0 -8 -6 -10q-3 -1 -5 -1v-11q-3 0 -6 -1q-5 -2 -5 -10v-11h-11q0 -7 -6 -15q-3 -4 -5 -7v11v-11h-11
l11 11q0 8 5.5 16.5t5.5 16.5h11v11v11q8 0 10 5q1 3 1 6v11v22q8 25 15 56.5t7 64.5v66q-8 33 -12.5 60.5t-20.5 60.5q-8 8 -16.5 22t-16.5 22q0 14 5 19q3 3 6 3q8 0 13 -2t9 -6t9 -10.5t13 -14.5q-8 8 -2.5 -4t13.5 -29q8 -8 13 -20t8 -24t5.5 -24t6.5 -20v-33zM545 99
q2 3 5 4q6 2 6 -4l-22 -22l-11 -11q-8 0 -10 -6q-1 -3 -1 -5q0 8 5 10q3 1 6 1l11 11q0 8 5 10q3 1 6 1v11zM490 33h-11h11zM490 44q0 2 1 5q2 6 10 6q-8 -8 -9.5 -8t-1.5 8v-22l-11 11h11zM281 11q8 -8 16.5 -9.5t16.5 -1.5q-8 0 -16.5 5.5t-16.5 5.5zM94 154q-3 3 -6 7
q-5 7 -5 15q2 -3 5 -7q6 -8 6 -15zM567 220q-17 -45 -43 -85t-60 -70t-75 -47.5t-86 -17.5q-8 0 -23 1.5t-32 9.5h-22v11h-11q-3 0 -6 1q-5 2 -5 10h-11q-8 8 -16.5 11t-16.5 11l11 -11h11h-11v11l-11 11l11 -11h-11l-11 11q0 2 -1 5q-2 6 -10 6q-17 25 -32 51t-23 59v22
q0 8 1.5 16.5t9.5 16.5q8 12 22 18.5t30.5 6.5t34 -6.5t34.5 -18.5q0 -4 13 -16t24 -29.5t14 -39.5t-18 -47q-33 -50 -66 -33q0 -8 1.5 -9.5t9.5 -1.5t16.5 -5.5t16.5 -5.5l11 -11h22q-17 8 -27.5 11t-27.5 11q8 0 24.5 -7t41.5 -15h55q17 8 38.5 17.5t38.5 26.5
q41 25 68 62.5t40.5 82t13.5 92.5t-12 93q-8 17 -15 33t-7 33l-22 22q-25 -12 -57.5 -15.5t-62.5 -2.5t-52 4t-26 3q-25 0 -49.5 3.5t-47 9t-43 11t-36.5 9.5q-3 0 -6 1q-5 2 -5 10q-25 17 -40 27.5t-15 27.5q0 16 15.5 30.5t43.5 24.5t66.5 16t83.5 6q8 0 16.5 5.5
t16.5 5.5q25 0 48 -5.5t40 -5.5q25 -4 52 -11t49.5 -18t37.5 -28t15 -42q49 -66 66 -132q8 -50 7 -106t-18 -114z" />
    <glyph glyph-name="K" unicode="K" horiz-adv-x="842" 
d="M721 121v-11v11zM699 66h-11h11zM765 110h-11q-8 0 -16.5 -5.5t-16.5 -5.5q-8 -8 -12.5 -9.5t-20.5 -1.5q0 -8 5.5 -2.5t5.5 13.5q8 0 10 -6q1 -3 1 -5q8 8 11 9.5t11 1.5t11 5.5t11 5.5h11zM677 44q8 0 11 5.5t11 5.5h11h-11q-8 -8 -16.5 -9.5t-16.5 -1.5
q-8 -8 -17.5 -9.5t-26.5 -1.5q-4 0 -3 0t4 1t6.5 3.5t3.5 6.5q8 0 11 -5.5t11 -5.5q0 8 5 10q3 1 6 1h11zM666 66h11h-11zM798 143q-3 -3 -7 -6q-7 -5 -15 -5q8 8 11 9.5t11 1.5zM765 561q4 0 13 -2.5t17 -8.5t13 -17t1 -27q-5 -17 -14 -22.5t-18 -5.5q-11 0 -23 6
q-25 8 -38.5 23t-5.5 32q0 2 1 5q2 6 10 6q8 8 22 9.5t22 1.5zM721 121h11h-11zM765 77h-11h11zM754 77h-22q8 0 8 -1.5t-8 -9.5v11h22zM798 561h11h-11zM699 572q0 -3 -1 -6q-2 -5 -10 -5q-6 2 -10 5q-8 6 -1 6h33h33h11h-11h-22h-22zM644 44q-8 0 -22 -1.5t-22 -9.5h-11
h-11q-8 8 -16.5 4t-16.5 -4h-22q-3 3 -6 4q-5 2 -5 -4h-11h44h-44q-8 0 -17.5 1.5t-26.5 9.5q-8 0 -23 -4t-32 4q-25 8 -55 16.5t-55 16.5q-4 -17 -12 -31t-17 -24t-19 -16t-18 -6q-21 0 -37.5 15.5t-30 42.5t-24 63t-18.5 77q-33 33 -33 66l-9.5 19t-11 18t-9 7.5
t-3.5 -11.5q0 16 -3.5 27t-6.5 19.5t-4 15.5t3 15q4 0 8.5 3t9.5 5t11.5 1t14.5 -9q0 -8 12.5 -23t20.5 -32q0 33 3.5 73t14.5 75.5t33 59t59 23.5q33 0 53 -20t31 -50t16.5 -64.5t9.5 -63.5q8 8 11 16.5t11 16.5q25 42 63 69t80 52q8 8 22 11t22 11q8 0 16.5 5.5t16.5 5.5
q8 8 16.5 9.5t16.5 1.5q-8 0 -16.5 -1.5t-16.5 -9.5h11q0 2 1 5q2 6 10 6h11h11h11l11 11h11h44q-8 0 -11 -1.5t-11 -9.5v11v-11q2 0 5 1q6 2 6 10h11l-11 -11q-8 0 -22 -1.5t-22 -9.5h-11h-11h11q-8 0 -11 -5.5t-11 -5.5h-11v-11h-11q-8 0 -11 -5.5t-11 -5.5
q-33 -17 -60.5 -40t-60.5 -48q-17 -17 -27.5 -33t-27.5 -33q-8 -17 -18 -31.5t-19 -30t-17 -32.5t-12 -38v-44q3 -3 7 -6q7 -5 15 -5l66 -33q42 -17 77 -25t77 -8h22h11q0 -8 5.5 -8t5.5 8h22l-11 -11h11v11h11h55h11h-11h-22h11h11h11q-8 0 -22 -5.5t-22 -5.5
q0 -8 -1.5 -9.5t-9.5 -1.5l-11 11l-11 -11h-11h-11h-11q-8 0 -13.5 -5.5t2.5 -5.5t16.5 1.5t16.5 9.5q-8 -8 -16.5 -9.5t-16.5 -1.5h-33h-55q-17 0 -33 5.5t-33 5.5q8 0 22 -1.5t22 -9.5h22l22 -11h11h22h-11h11h11h11h55q2 0 5 -1q6 -2 6 -10q0 2 -1 5q-2 6 -10 6v-11
q-8 8 -11 8t-11 -8h11h22zM578 88q-8 0 -11 1.5t-11 9.5q8 0 11 -1.5t11 -9.5zM578 517q-8 0 -10 -6q-1 -3 -1 -5zM479 66h11h-11zM776 561h22h-22z" />
    <glyph glyph-name="L" unicode="L" horiz-adv-x="568" 
d="M35 44h11h-11h-11h11zM79 22q-8 6 -10 4q-1 -1 -1 -4q0 8 -6 10q-3 1 -5 1h-11h11q3 0 7 -1t15 -10h22h-11h-11zM541 55q8 4 12.5 4.5t6.5 -0.5q3 -1 3 -4q0 -8 -8 -11t-25 -11q4 4 2.5 4.5t-5.5 -0.5t-9.5 -2.5t-9.5 -1.5q0 -8 -28.5 -15t-70.5 -7q-8 -8 -11 -9.5
t-11 -1.5h-143h-44h-22q-11 9 -15 10t-7 1h22h-11h-11h-11h-11h-11h-11v11h-22h11h11h-11h-11h11h33q-3 0 -6 1q-5 2 -5 10t8 11t25 11q-25 33 -41.5 94.5t-24.5 136.5q0 5 -0.5 28t2 53.5t8 64.5t18 62.5t32.5 47.5t50 19q33 0 54.5 -18t35 -46t19 -61t7 -64t-0.5 -54.5
t-5 -31.5q0 -33 -4 -65.5t-10 -61t-14 -53t-16 -40.5h55q66 0 114 -7t73 -15q8 0 16.5 5.5t16.5 5.5zM79 33h-11h11zM79 33h-11h11z" />
    <glyph glyph-name="M" unicode="M" horiz-adv-x="1046" 
d="M598 154v-11v11zM598 77v-11v11zM598 77v22v-22zM587 187v-11v-22h-11q0 -8 5 -15q3 -4 6 -7v-11v11q0 7 -6 15q-3 4 -5 7q0 17 1.5 26.5t9.5 17.5v-11zM653 22v-11v-11q0 8 -4 15t4 7h-11h11zM642 66h11v-11zM653 77h-11h11zM642 88v-11v11zM631 88v-11v-22v-11v11v33
q-8 8 -9.5 16.5t-1.5 16.5t5.5 2.5t5.5 -13.5v-11v-11zM576 209l-11 -11zM576 264q0 -8 5 -10q3 -1 6 -1q-8 0 -9.5 1.5t-1.5 9.5q2 3 5 7q6 8 6 15h-11q0 8 5.5 11t5.5 11h-11q0 8 1.5 15t9.5 7v-44q0 -8 -1.5 -15t-9.5 -7zM246 605q60 5 100 -10t64.5 -41.5t36 -60
t16 -64.5t4 -55.5t-0.5 -32.5q0 -54 -12 -103.5t-34.5 -89t-55.5 -64.5t-74 -29t-76 15t-63 55t-48.5 86t-32.5 108q0 3 -2 23.5t-1 50.5t8.5 65t27 65.5t54 53.5t89.5 28zM565 286v-11v11zM1005 594q8 0 12 -7t-12 -15q0 -4 1.5 -8t1.5 -8.5t-3 -8.5t-11 -8
q-8 0 -16.5 -5.5t-16.5 -5.5q8 -29 11 -60t3 -58t-1.5 -46t-1.5 -23q-4 -58 -14 -108t-24.5 -87t-32.5 -58.5t-39 -21.5q-25 0 -43.5 21.5t-32 58.5t-22 87t-12.5 108v33q-25 -33 -42.5 -66t-34.5 -66q0 -8 -5.5 -11t-5.5 -11v-11q-8 0 -10 -6q-1 -3 -1 -5v-22v11v-11v-11
q-8 -17 -9.5 -27.5t-1.5 -27.5v-11l-11 11h11v22q0 -7 -6 -15q-3 -4 -5 -7v33v11v11q8 0 4 7t-4 15h11v22v11v11q0 -8 -5.5 -16.5t-5.5 -16.5q0 8 1.5 16.5t9.5 16.5q0 8 5.5 16.5t5.5 16.5t1.5 17.5t9.5 26.5q17 42 36 74.5t52 57.5q-8 0 -11 -1.5t-11 -9.5
q-25 -25 -44 -56.5t-44 -64.5q0 -8 -1.5 -11t-9.5 -11v-11l-11 -11v-22v11v-11q-8 0 -9.5 -1.5t-1.5 -9.5t-5.5 -22t-5.5 -22v-11v11v11v-22q-8 8 -5.5 16.5t-5.5 16.5v11q2 0 5 1q6 2 6 10v22q0 4 1.5 4.5t4 0.5t4 1t1.5 5v11v11v11q0 -8 -1.5 -16.5t-9.5 -16.5
q0 8 5.5 16.5t5.5 16.5t5.5 16.5t5.5 16.5q8 8 11 22t11 22q25 42 52 80t69 63l11 11q4 16 12 32t19.5 28.5t25.5 20t31 7.5t32 -7t23 -15q17 0 29 5.5t4 5.5q12 0 21 1.5t15 1.5t10.5 -3t8.5 -11zM642 297v11v-11zM664 231l11 11q-3 0 -6 -1q-5 -2 -5 -10zM565 363l11 -11
v-11v-33q0 8 -5.5 11t-5.5 11v-11v-11h11q-8 0 -10 5q-1 3 -1 6q0 8 -5.5 22t-5.5 22v11h-11h11q0 8 -6 10q-3 1 -5 1v-11v22q0 2 -1 5q-2 6 -10 6v11q0 8 -5.5 11t-5.5 11q-17 33 -40 60.5t-48 60.5q-17 17 -33 27.5t-33 27.5q-17 8 -31.5 18t-30 19t-32.5 17t-38 12
q-8 0 -18 1.5t-19 4t-17 4t-12 1.5q-13 4 -16 10t-2 11q1 6 7 12q4 8 10 11t14.5 3t19 -1.5t22.5 -1.5q-8 0 -7 -1.5t8.5 -4t19 -4t23.5 -1.5t24.5 -5.5t26 -14t28 -18t31.5 -17.5q0 -8 7 -11t15 -11q42 -25 69 -63t52 -80q8 -17 11 -26.5t11 -17.5q0 -8 5.5 -16.5
t5.5 -16.5q8 -8 9.5 -16.5t1.5 -16.5q0 8 -5.5 16.5t-5.5 16.5v-11v-11q8 0 9.5 -7t1.5 -15v-22zM521 440v-11v11zM576 220h-11q8 0 10 -6q1 -3 1 -5h-11v22z" />
    <glyph glyph-name="N" unicode="N" horiz-adv-x="560" 
d="M435 715q-8 0 -10 5q-1 3 -1 6zM424 737v-11v11zM402 781q0 -8 1.5 -9.5t9.5 -1.5h-11v22v-11zM501 484q8 -58 15 -110t7 -110v-33q-4 -17 -6.5 -36.5t-4.5 -38t-4.5 -34t-6.5 -23.5t-6.5 -19t-3.5 -19.5t-1 -11t0 5.5q-8 -25 -11 -40t-11 -15q-3 0 -4 3q-1 2 -1 6.5
t5 12.5q0 8 1.5 17.5t9.5 26.5q-8 0 -10 -6q-1 -3 -1 -5q-8 0 -11 7t-11 15v-11v11q-12 21 -19 54t-11 70t-7 74t-7 66q-8 25 -23 55t-32 55q-17 17 -32 33t-23 33q-17 12 -31.5 26t-30 26.5t-32.5 22t-38 13.5q-8 0 -18 3.5t-20.5 7.5t-20.5 7.5t-18 3.5q-8 8 -9 14t1 11
q3 4 8 8q8 8 15 10.5t14 1.5t16 -4.5t21 -7.5q-8 4 -7 2.5t8.5 -5.5t19 -9.5t23.5 -9.5q12 0 24.5 -7t25 -17.5t25 -22t24.5 -19.5q8 -8 16.5 -15t16.5 -7q25 -25 42.5 -56.5t34.5 -64.5q0 58 2 108t7.5 87t14 58.5t20.5 21.5q0 8 -5.5 11t-5.5 11t-5.5 11t-5.5 11v11v-11
q0 -8 5 -15q3 -4 6 -7q8 -8 9.5 -11t1.5 -11q17 -8 26.5 -49t17.5 -116q8 -8 9.5 -23t1.5 -32zM446 66v-11v11zM149 583q38 0 63 -18t39.5 -45.5t21 -60t8.5 -62t1 -51.5t-1 -27q-4 -54 -14.5 -102t-27 -84t-39 -57t-51.5 -21q-25 0 -45.5 21t-36 57t-25.5 84t-14 102v27
t2 51.5t9 62t20 60t35 45.5t55 18z" />
    <glyph glyph-name="O" unicode="O" horiz-adv-x="735" 
d="M69 429v-11v11zM58 407q0 2 1 5q2 6 10 6zM696 374q0 -8 4 -16.5t-4 -16.5v-33v-33q-8 -42 -19 -80t-36 -63q-8 -8 -11 -16.5t-11 -16.5t-15 -18t-14 -19t-16 -17t-21 -12q-8 0 -17.5 -5t-15.5 -10t-7 -8t7 1q-17 -8 -27.5 -13.5t-27.5 2.5q-3 3 -4 7q-1 3 -1 6.5t5 8.5
q8 8 23 20.5t32 12.5q25 17 44 40t44 48l33 66q8 25 16.5 55t16.5 55v22v11h11h-11h11v11v11v11v11q0 8 -1.5 16.5t-9.5 16.5l11 11v-11v-11v22q0 -8 1.5 -16.5t9.5 -16.5v-11v-22v-11v-11v-11v33zM674 319q3 2 4 5q2 6 -4 6v-11zM69 418q0 8 5 10q3 1 6 1zM102 451
q-8 0 -9.5 -1.5t-1.5 -9.5v11h11zM58 308q0 -4 -1.5 -1t-4 9t-4 13.5t-1.5 11.5t3.5 6.5t7.5 4.5t7.5 4.5t3.5 6.5q0 8 1.5 16.5t9.5 16.5q0 6 5 4q3 -1 6 -4q8 17 11 26.5t11 17.5q8 0 11 5.5t11 5.5l-11 -11q-17 -17 -26.5 -27.5t-17.5 -27.5t-15 -34.5t-7 -42.5zM630 264
q-8 -50 -39.5 -96.5t-81.5 -79.5q-37 -33 -83 -53.5t-94.5 -26.5t-96.5 2.5t-89 33.5q-8 8 -22 17.5t-22 26.5q-8 0 -11 7t-11 15q0 7 -6 15q-3 4 -5 7l-11 11q0 8 -5.5 16.5t-5.5 16.5v-11v11l-11 11v11v11v11q-8 25 -8 56.5t8 64.5q2 3 5 7q6 8 6 15v-11h-11v-11
q-8 -8 -9.5 -22t-1.5 -22l11 11q0 8 5.5 22t5.5 22q-8 -17 -8 -38.5t8 -38.5v-11v-22v-22q8 -8 16.5 -17.5t16.5 -26.5h-11l33 -33v-22q4 -4 11.5 -8t13.5 -6t9 -1.5t-1 4.5l-55 55q17 -8 27.5 -23t27.5 -32q8 -8 23 -16.5t32 -16.5q25 -8 45.5 -9.5t53.5 -1.5
q49 -4 94 12.5t81 46.5t62 69.5t38 80.5q8 25 9.5 42.5t1.5 34.5q0 42 -15 81.5t-40 72.5q-8 -42 -22 -72t-22 -38q-21 -41 -48.5 -73.5t-58.5 -52t-63 -24.5t-61 7t-47.5 38t-27 61t-6 77.5t14.5 87.5q0 4 4 15.5t11 26t17.5 30t22.5 27.5q-4 4 -9 10t-5 13.5t7.5 15.5
t28.5 16h66q17 8 38.5 8t38.5 -8q25 -8 47 -16.5t30 -16.5q54 -29 91 -71t56.5 -91.5t21 -103.5t-14.5 -108zM135 66q0 -8 7 -15t15 -7q-8 8 -11 15t-11 7zM663 462h11h-11zM674 462v-11v11zM685 462q0 8 -6 10q-3 1 -5 1v11q9 -11 10 -15t1 -7q8 -8 9.5 -16.5t1.5 -16.5
t-5.5 -2.5t-5.5 13.5v11v11zM652 517v11v-11zM652 517l11 -11q-8 0 -9.5 1.5t-1.5 9.5z" />
    <glyph glyph-name="P" unicode="P" horiz-adv-x="734" 
d="M404 220v-11l-11 11h11zM426 198h22h-22zM415 319q0 -25 -13.5 -40t-30.5 -15q-8 0 -20.5 15t-12.5 40q-3 15 0 27q2 11 9 19.5t24 8.5q16 0 25 -7t13.5 -16.5t5 -18.5t0.5 -13zM338 275q0 8 1.5 8t9.5 -8q-8 0 -15 8t-7 25v11q0 -8 5.5 -22t5.5 -22zM426 209h-11h11z
M426 209h-11h11zM569 638q33 -21 60.5 -51t45 -66t22.5 -76.5t-7 -81.5q0 -8 -5.5 -22t-5.5 -22q-8 -8 -9.5 -11t-1.5 -11h-11h11h-11q0 -8 -5.5 -11t-5.5 -11l-22 -22q0 8 1.5 9.5t9.5 1.5q-8 0 -10 -6q-1 -3 -1 -5h-11h11l-11 -11h-11v-11h-11q-17 -17 -40 -25t-48 -8
q-7 0 -11 1q-11 2 -11 10q0 -3 1 -6q2 -5 10 -5v11q17 -8 26.5 -8t17.5 8h-11h-44q17 0 33 7t33 15h11l11 11h11l33 33q8 8 11 15t11 7q0 8 5 10q3 1 6 1q0 4 1.5 11.5t2.5 13.5t0.5 9t-4.5 -1q-8 -17 -16.5 -32t-16.5 -23q8 8 16.5 23t16.5 32q0 8 5.5 22t5.5 22
q0 25 -1.5 42.5t-9.5 34.5q0 8 -5.5 11t-5.5 11q-8 -17 -27.5 -27t-46.5 -15.5t-59 -5.5t-65 4q-4 0 -32 5t-60 17t-58 33.5t-26 54.5q-17 -17 -26.5 -38.5t-17.5 -38.5q-8 0 -10 -6q-1 -3 -1 -5q17 -33 32 -79.5t23 -96.5q0 -6 3.5 -27.5t6.5 -51.5t2.5 -64t-7.5 -64
t-24 -52t-47 -27q-33 -6 -56.5 9.5t-39.5 41.5t-26 59t-16.5 63t-9.5 52t-6 28q-4 58 -2 110t10 91t22.5 62t35.5 23q17 8 32 1.5t23 -23.5q33 75 94.5 120t136.5 45q50 0 92 -9.5t84 -34.5zM679 352q8 0 9.5 7t1.5 15q0 -7 -6 -15q-3 -4 -5 -7zM492 209q-8 0 -11 5.5
t-11 5.5h-22h-11q-10 8 -21 10q-6 1 -12 1l-22 22l11 -11q17 -8 32 -11t23 -11h66q4 4 2.5 3t-5.5 -4t-9.5 -6.5t-9.5 -3.5zM426 209v-11v11zM118 561l11 11q0 -3 -1 -6q-2 -5 -10 -5zM162 616q0 8 5.5 11t5.5 11l11 11q0 2 1 5q2 6 10 6q2 0 5 1q6 2 6 10h11v11l-22 -22
l22 22q3 0 7 1q7 2 15 10q3 2 7 5q8 6 15 6q33 17 60.5 25t60.5 8h22q12 0 24.5 1.5t23.5 1.5t21.5 -3t18.5 -11q4 -4 11 -8t12.5 -6t6 -1.5t-7.5 4.5q17 -8 25 -11t8 -11q8 -8 2.5 -15t-13.5 -7q-8 8 -22 11t-22 11q-25 8 -49.5 9.5t-49.5 1.5h-55q-33 -8 -53.5 -16.5
t-45.5 -16.5l-11 -11h-11l-11 -11h-11h11h-11v-11q-8 0 -16.5 -7t-16.5 -15l11 11q-8 0 -10 -6q-1 -3 -1 -5zM239 671h-11h11zM140 605v-11h-11h11v22q8 0 11 5.5t11 5.5v-11h-11v-11h-11zM151 594h-11h11zM151 605v-11v11z" />
    <glyph glyph-name="Q" unicode="Q" horiz-adv-x="660" 
d="M58 297v11v-11zM608 473q17 -50 18 -106t-7 -114q-17 -42 -34.5 -76t-42.5 -67v-11q4 0 10.5 -12.5t7.5 -29t-7 -33t-33 -24.5q-33 -8 -51 4t-26 29q-25 -8 -49.5 -15t-49.5 -7h-66q-8 0 -16.5 5.5t-16.5 5.5t-11 5.5t-11 5.5h-11q-8 8 -16.5 11t-16.5 11l11 -11
q0 8 -6 10q-3 1 -5 1v11v-11q-8 0 -11 5.5t-11 5.5v11h-11q-50 33 -66 99q-3 6 -4 12q-1 5 -1 10.5t5 10.5v-11q-3 0 -4 -1t-1 -3.5t5 -6.5v-11q0 -8 7 -16.5t15 -16.5v11h-11q0 8 -5.5 17.5t-5.5 26.5q4 -8 8.5 -18t9.5 -19t11.5 -17t14.5 -12q2 0 5 -1q6 -2 6 -10
q2 0 5 -1q6 -2 6 -10q2 -3 5 -7q6 -8 6 -15q8 0 22 -1.5t22 -9.5q0 -3 1 -6q2 -5 10 -5t16.5 -1.5t16.5 -9.5q3 -3 7 -6q7 -5 15 -5q4 0 11 1.5t12.5 4t6 4t-7.5 1.5q-17 0 -34.5 5.5t-42.5 5.5q25 0 42.5 -5.5t34.5 -5.5h66q25 8 42.5 17.5t34.5 26.5q0 8 2 17.5t6 18
t10.5 14t14.5 5.5q16 16 33 0q25 29 39.5 65t19.5 74t1 76t-16 71l-33 66q-25 41 -63.5 60.5t-79.5 27.5q8 -17 14.5 -34.5t10.5 -33t6 -27t2 -15.5q8 -45 6 -87.5t-14.5 -76.5t-35 -57.5t-55.5 -31.5t-63.5 3t-57.5 35.5t-49.5 60.5t-38.5 77q0 4 -3.5 15.5t-7.5 28
t-7.5 36.5t-3.5 41q-4 0 -11 1t-11 6t-2.5 16t13.5 32q8 8 23 16.5t32 16.5q8 17 24.5 26.5t41.5 17.5t42.5 15t34.5 7q62 8 117 -5t100.5 -42t79.5 -71t55 -91zM322 11h22q-7 3 -11 4q-11 2 -11 -4zM80 308q2 3 5 7q6 8 6 15v-22q-17 -33 0 -66q0 -17 7 -33t15 -33
q4 -8 1 -9t-8 2t-10 8.5t-5 9.5q-5 4 -5 8t1 7q1 4 4 7q0 17 -5.5 26.5t-5.5 17.5v55zM58 242v11v-11zM58 264v11v-11zM58 264v-11v11z" />
    <glyph glyph-name="R" unicode="R" horiz-adv-x="744" 
d="M391 286q0 -8 1.5 -5.5t9.5 -5.5q-3 0 -6 1q-5 2 -5 10zM633 22q8 -8 9.5 -11t1.5 -11v11q-8 0 -9.5 1.5t-1.5 9.5zM424 264l-11 11q8 0 10 -6q1 -3 1 -5zM567 693q33 -21 60.5 -50.5t45 -65t22.5 -73.5t-7 -75q0 -17 -5.5 -27.5t-5.5 -27.5q-8 0 -10 -6q-1 -3 -1 -5
l-11 -11h11h-11l-11 -11v-11q-8 -8 -15 -11t-7 -11v11h11h-11v-11h-11h11h-11q0 -3 -1 -6q-2 -5 -10 -5t-9.5 -1.5t-1.5 -9.5q-17 -8 -40 -15t-48 -7h-22h11h44l-11 11q-8 -8 -8 -9.5t8 -1.5h-44q17 0 33 7t33 15l11 11h11q2 0 5 1q6 2 6 10q8 0 16.5 7t16.5 15v11q8 0 11 7
t11 15l11 11q0 4 1.5 11t2.5 12.5t0.5 6t-4.5 -7.5q-8 -17 -16.5 -27.5t-16.5 -27.5q8 17 16.5 27.5t16.5 27.5q0 17 5.5 27.5t5.5 27.5t-1.5 34.5t-9.5 42.5l-11 11q-8 -12 -27.5 -22t-46.5 -16.5t-59 -8t-65 2.5q-4 0 -32 5t-60 17t-58 33.5t-26 54.5q-17 -17 -26.5 -33
t-17.5 -33q-8 -8 -9.5 -11t-1.5 -11q17 -33 32 -74t23 -91q0 -8 5.5 -37t5.5 -62q8 0 16.5 -5.5t16.5 -5.5h33q33 0 71.5 -13.5t71.5 -30.5l33 -33q8 0 11 -1.5t11 -9.5q8 0 15 -7t7 -15l-22 22q-5 4 -5 3t1 -4q1 -4 4 -10h11q8 0 10 -6q1 -3 1 -5q8 -8 9.5 -11t1.5 -11h11
l11 -11q2 -3 5 -7q6 -8 6 -15l-11 11q0 -3 1 -6q2 -5 10 -5h-11q-8 8 -11 16.5t-11 16.5h-11v11h-11l11 -11l-11 11l-11 11h-11q-8 8 -11 9.5t-11 1.5q-25 17 -51 32t-59 23q-17 0 -33 5.5t-33 5.5h-55q0 -25 -3 -50.5t-11 -47t-23 -37t-40 -19.5q-33 -3 -56.5 13.5
t-39.5 43t-26 59t-16.5 63t-9.5 54t-6 31.5q-4 54 -2 103.5t10 89t22.5 64.5t35.5 29q17 0 32 -7t23 -15q16 33 40.5 61.5t54.5 50t64.5 35.5t71.5 18q50 0 92 -15t84 -40zM512 143h-11h11zM677 407q8 8 9.5 11t1.5 11q-3 -3 -6 -7q-5 -7 -5 -15zM611 55h-11h11zM468 275
h-22q-8 0 -10 5q-1 3 -1 6q-8 0 -20.5 1.5t-12.5 9.5q-8 0 -11 5.5t-11 5.5q8 0 10 -6q1 -3 1 -5q17 -8 32 -9.5t23 -1.5q17 -8 33 -4t33 4q4 0 2.5 -1.5t-5.5 -4t-9.5 -4t-9.5 -1.5h-22zM424 264q8 0 11 -1.5t11 -9.5q-8 8 -11 9.5t-11 1.5zM424 264h-11h11zM622 66v-22h11
h-11v22h-11v11h-11q0 8 -4 15t4 7q8 -8 11 -16.5t11 -16.5zM138 671v-11q0 -8 -6 -10q-3 -1 -5 -1h11v22l22 22v-11h-11v-11h-11zM611 55v-11v11zM160 682l11 11v11h11q0 2 1 5q2 6 10 6q0 8 5 10q3 1 6 1h11v11q-8 0 -11 -5.5t-11 -5.5q8 0 11 5.5t11 5.5q3 2 7 5q8 6 15 6
q0 8 7 11t15 11q33 8 60.5 20.5t60.5 12.5h22q25 0 48 -1.5t40 -9.5q4 -8 11 -12.5t12.5 -5.5t6 1t-7.5 6q8 -8 14.5 -13t10.5 -8t6 -5.5t2 -6.5q4 0 4.5 -3.5t-1.5 -6.5t-6 -4t-8 3q-8 0 -22 5.5t-22 5.5q-25 17 -49.5 19.5t-49.5 2.5q-17 0 -32 -1.5t-23 -9.5
q-33 0 -53.5 -8t-45.5 -25h-11l-11 -11h-11q0 -3 -1 -6q-2 -5 -10 -5h11h-11q-8 -8 -16.5 -15t-16.5 -7v-11v11h11h-11zM237 726h-11h11zM369 330q-4 -4 -9.5 -1t-11 10.5t-9 17t-3.5 17.5q0 4 -1 13t1 18.5t9 16.5t24 7q17 4 25 -2.5t13 -15.5q4 -11 6 -26q0 -25 -13.5 -40
t-30.5 -15zM325 374v11v-11zM325 374q0 -8 5.5 -16.5t5.5 -16.5h11v-11q-8 8 -15 16.5t-7 16.5v11zM116 627q8 0 9.5 1.5t1.5 9.5v-11q-3 0 -6 -1q-5 -2 -5 -10v11zM149 649h-11h11z" />
    <glyph glyph-name="S" unicode="S" horiz-adv-x="580" 
d="M298 605h-11h22v11h11q-8 -8 -11 -9.5t-11 -1.5zM67 374l11 11zM89 396l-11 -11v11h11zM78 385h11h-11zM353 638l11 11v-11h-11zM320 627q0 -8 -7 -15t-15 -7q-4 0 -9.5 0.5t-11 3.5t-9 10t-3.5 19q4 8 10 11t11 3q6 0 12 -3q8 0 15 -7t7 -15zM177 418h-11q16 16 33 0h11
h-33zM210 418h11h-11zM364 682l-11 -11v-11v-11q-8 0 -10 -6q-1 -3 -1 -5l-11 -11l11 11q2 3 5 7q6 8 6 15v33q0 6 5 -1q3 -4 6 -10zM144 517v11v-11zM364 649h-11h11zM364 649v11v-11zM507 187q-17 -42 -42.5 -73t-67.5 -48q-33 -21 -69.5 -31t-72.5 -7.5t-70 17t-63 43.5
l-33 33q-8 8 -9.5 11t-1.5 11h-11q0 8 -1.5 11t-9.5 11v11q-3 3 -6 7q-5 7 -5 15v11q-4 12 -7.5 26.5t-4.5 28.5t1.5 28.5t10.5 26.5v11q3 2 7 5q8 6 15 6q0 8 7 11t15 11t15 16.5t7 16.5h22h-11l-33 -33q8 8 15 10q4 1 7 1q41 16 72.5 16t55 -10.5t40 -27.5t27 -35
t16.5 -33t9 -20q8 -25 12 -51t3 -49.5t-7.5 -43.5t-18.5 -32q25 4 45.5 15.5t37 28t29 36.5t20.5 41q0 17 1.5 27.5t9.5 27.5q4 25 -2.5 47.5t-18 44.5t-24.5 42.5t-21 41.5q-12 12 -28.5 22t-29 15t-16.5 4.5t8 -8.5q-21 12 -36 17.5t-27.5 8.5t-23.5 6.5t-23 11.5h-11
q0 8 -6 10q-3 1 -5 1q-25 8 -43.5 24t-29.5 35.5t-15 41t0 42.5q0 25 8 48t25 40q16 16 36 28.5t41 18.5t40.5 5.5t36.5 -8.5q8 -8 15 -11t7 -11h11v-11h11v-11q8 0 9.5 -1.5t1.5 -9.5v11v-11v-11h11q0 -8 1.5 -14.5t2.5 -13t0.5 -13t-4.5 -14.5v-11v11v22v-11v-22v44h-11
v11v11q-3 0 -6 1q-5 2 -5 10l-11 11q0 2 -1 5q-2 6 -10 6q-3 3 -6 4q-5 2 -5 -4q8 0 15 -7t7 -15q0 8 -7 15t-15 7q0 8 -7 9.5t-15 1.5h-44q-42 -8 -70.5 -38t-28.5 -72v-22q0 -17 5.5 -29.5t13.5 -23t18 -19t18 -16.5q7 -8 15 -10q4 -1 7 -1h11h11h22h33q2 0 5 -1
q6 -2 6 -10q25 0 53.5 -13.5t45.5 -30.5q37 -29 62 -67t37 -79t12 -83t-12 -79zM309 792l-11 11q0 -8 5 -10q3 -1 6 -1zM56 187v11h-11zM111 99q2 -3 5 -7q6 -8 6 -15q0 8 -5.5 11t-5.5 11zM562 253v-22q-8 0 -9.5 -7t-1.5 -15v-22q-8 -33 -23 -59t-32 -51l-11 -11
q-17 -17 -27.5 -30.5t-27.5 -13.5q-8 -4 -15.5 -8t-12 -7t-3.5 -5t9 -2q-12 0 -19 -1.5t-11 -2.5t-7 -0.5t-7 4.5q-4 0 -7.5 2t-4.5 5t1.5 7t10.5 8q8 8 16.5 11t16.5 11q25 8 42.5 23t34.5 32q8 8 16.5 17.5t16.5 26.5t16.5 40t16.5 48v11v11v11v11h11h-11q16 16 0 33
l11 11v-11v-11v22v-33v-11l11 -11h-11v-11v-11q0 -3 1 -6q2 -5 10 -5v22zM540 220v11v-11zM540 264h11h-11zM353 627v11v-11zM540 363l-11 11v11v-22q0 8 5.5 8t5.5 -8zM551 330v11v11v-22q0 -8 5.5 -11t5.5 -11q0 -5 -2 -5t-4 1q-3 1 -5 4v11v11zM540 341v-11v11zM89 594
v11q-8 17 -9.5 33t-1.5 33v11q8 17 11 26.5t11 17.5q0 4 1.5 8t2.5 6t0.5 1.5l-4.5 -4.5q8 8 11 15t11 7q2 0 5 -1q6 -2 6 -10q-8 -8 -11 -15t-11 -7q-8 -8 -9.5 -23t-1.5 -32q0 -8 -5.5 -11t-5.5 -11q8 -17 9.5 -32t1.5 -23v-11h11v-11v-11l11 -11q-3 0 -6 1q-5 2 -5 10
q-3 0 -6 1q-5 2 -5 10v11v-11v11q-8 0 -10 5q-1 3 -1 6zM122 539q2 0 5 -1q6 -2 6 -10q0 8 -6 10q-3 1 -5 1q0 2 -1 5q-2 6 -10 6h11v-11zM100 407q0 -3 -1 -6q-2 -5 -10 -5q8 8 11 9.5t11 1.5h-11z" />
    <glyph glyph-name="T" unicode="T" horiz-adv-x="851" 
d="M777 660q-5 0 -5 -2t1 -4q1 -3 4 -5h-11zM777 638q8 8 11 9.5t11 1.5q0 8 5 10q3 1 6 1l-11 -11q-3 -3 -7 -6q-7 -5 -15 -5q-8 -8 -16.5 -11t-16.5 -11q-5 0 -5 1.5t1 3.5q1 3 4 6h22q0 8 1.5 9.5t9.5 1.5zM744 638q-8 -8 -16.5 -15t-16.5 -7l-11 -11h-11q-8 0 -11 -1.5
t-11 -9.5h-22h-11q-8 0 -13.5 -5.5t2.5 -5.5t16.5 5.5t16.5 5.5q-8 -8 -16.5 -9.5t-16.5 -1.5t-22 -1.5t-22 -9.5q-8 0 -23 -5.5t-32 -5.5q16 -33 23.5 -72t9.5 -74t1 -61.5t-1 -34.5q-4 -66 -16 -124t-29.5 -101.5t-39.5 -68.5t-47 -25t-45.5 25t-36 68.5t-25.5 101.5
t-14 124q0 4 -1 30t1 62t9 76.5t24 73.5q-8 0 -22 5.5t-22 5.5h-33q-17 4 -34.5 8t-34 8.5t-30.5 8.5t-22 8q-17 8 -26.5 15t-17.5 7q0 8 -7 11t-15 11l11 -11l-11 11q-17 8 -23.5 8t1.5 -8q-8 8 -16 13t-14 9t-10 9t-4 13q3 6 8 10q4 3 10.5 4t14.5 -3h11h22q4 -4 12 -10
t17 -12t19 -12t18 -10q8 0 11 -1.5t11 -9.5q25 -8 56.5 -11t64.5 -11q25 -8 44 -9.5t44 -1.5q17 8 27.5 15t27.5 7t32 -7t23 -15q17 0 40 5.5t48 5.5q3 0 7 1q7 2 15 10h11h11h11q8 0 11 5.5t11 5.5l-11 -11h11v11h11q17 8 27.5 11t27.5 11h22h-11h-11l-11 -11q8 0 15 1.5
t7 9.5q-8 -8 -16.5 -15t-16.5 -7q0 -8 -6 -10q-3 -1 -5 -1h-11q-8 0 -11 -5.5t-11 -5.5t-11 -1.5t-11 -9.5q-3 3 -6 4q-5 2 -5 -4q-4 0 -8 -1.5t-6 -2.5t-1.5 -0.5l4.5 4.5q8 0 16.5 1.5t16.5 9.5q-8 -8 -16.5 -11t-16.5 -11h-44q-3 0 -6 -1q-5 -2 -5 -10q8 0 17.5 5.5
t26.5 5.5h22h11h11h-11h11h11v11h22h11q17 8 32 11t23 11h22h-11q-7 0 -15 -6q-4 -3 -7 -5q8 0 15 1.5t7 9.5zM557 627h22h-22zM579 605q8 -8 11 -8t11 8h-22zM656 616h11h-11zM843 693h11h-11zM843 693v-11h-22h11h-11q8 0 15 1.5t7 9.5zM821 748q12 -8 13.5 -16
t-2.5 -15.5t-11 -13.5t-11 -10q-8 -8 -23 -13.5t-32 2.5v-11q-8 -8 -17.5 -11t-26.5 -11l11 11h11q8 8 11 9.5t11 1.5v11h-11q-17 8 -17 23t17 32q10 9 22 14q11 4 24.5 4.5t30.5 -7.5zM788 660h-11h11z" />
    <glyph glyph-name="U" unicode="U" horiz-adv-x="644" 
d="M437 33l11 11h11h-11q0 -8 -7 -11t-15 -11q-3 0 -7 -1q-7 -2 -15 -10l11 11h11zM437 44h-11h11zM536 660q12 -17 26 -45.5t25 -61.5t18.5 -66t7.5 -58q0 -70 -15.5 -132.5t-42.5 -112t-63 -83.5t-77 -46q-50 -17 -92 -15.5t-84 26.5q-41 21 -75.5 55t-59.5 78.5t-38.5 97
t-13.5 110.5q0 17 5.5 33t5.5 33q0 8 1.5 16.5t9.5 16.5v11q2 3 5 7q6 8 6 15v11q8 8 11 16.5t11 16.5l-11 -11v-11v11q2 0 5 1q6 2 6 10t1.5 11t9.5 11q8 0 10 5q1 3 1 6q17 25 34.5 42.5t42.5 34.5q6 0 12 -1q11 -2 21 -10h-11h-11q-8 0 -16.5 -5.5t-16.5 -5.5v-11
q8 8 8 9.5t-8 1.5q17 0 26.5 5.5t17.5 5.5q-17 -8 -32 -22t-23 -22q0 -8 -6 -10q-3 -1 -5 -1q0 -3 -1 -6q-2 -5 -10 -5l-11 -11q-8 -8 -11 -23t-11 -32q-8 -8 -9.5 -22t-1.5 -22q-3 -3 -6 -7q-5 -7 -5 -15q-4 -4 -4.5 -13t0.5 -16t2.5 -9.5t1.5 5.5q0 25 7 44t15 44
q-8 -25 -11 -44t-11 -44q0 -17 -4 -33t4 -33q0 -17 2 -30t6 -25t10.5 -25.5t14.5 -29.5q8 -33 30 -63t47 -47q-17 17 -30.5 40t-13.5 48q0 29 17 51.5t45 39t63.5 27t72.5 14.5q4 0 24.5 -1t47 -7t55 -19.5t49.5 -38.5q0 17 5.5 33t5.5 33q8 25 6 52.5t-7.5 46.5t-9.5 22
t0 -22q-4 37 -11.5 59.5t-14.5 39t-12.5 31t-5.5 35.5q0 4 0.5 14t5 16t13 4t25.5 -23zM63 429q0 -8 -4 -16.5t4 -16.5v33zM393 11h-11h-11q-7 -7 -10 -4q-1 1 -1 4q0 -3 -1 -6q-2 -5 -10 -5v11q-8 0 -13.5 -5.5t2.5 -5.5h22h-22h-22h-33q-33 8 -64.5 19t-56.5 36
q-8 0 -15 5q-4 3 -7 6q-17 17 -37.5 34.5t-28.5 42.5t-15 37t-7 -4q-4 12 -8 21t-6 16t-1.5 14t4.5 15q3 5 7 8q3 2 6.5 1t8.5 -9q4 -4 8 -11.5t8.5 -16t8.5 -16t8 -11.5q8 -33 30 -52t47 -36q8 -17 22 -26.5t22 -17.5q16 -4 29.5 -8t25.5 -7t25 -5t30 -2q0 -8 1.5 -9.5
t9.5 -1.5h11h11h11h-11h11h11q8 0 16.5 5.5t16.5 5.5q-8 0 -9.5 -1.5t-1.5 -9.5v11q0 -8 5.5 -8t5.5 8zM316 22h11q0 3 -1 4q-3 3 -10 -4zM481 66q-8 0 -9.5 -1.5t-1.5 -9.5v11h11zM448 55q0 -3 -1 -6q-2 -5 -10 -5v11h11zM283 704l11 -11q-3 0 -6 1q-5 2 -5 10zM228 671h11
h33h44l22 -22q-8 8 -11 9.5t-11 1.5q-8 8 -23 9.5t-32 1.5t-27.5 -7t-27.5 -15q-4 -4 -2.5 -1t5.5 8t9.5 10t9.5 5zM283 704h11h-11zM283 704h-22h22zM316 693h-11h22h-11z" />
    <glyph glyph-name="V" unicode="V" horiz-adv-x="613" 
d="M20 583v-11v-11v-11v33v22v11v-11v-11v-11zM526 748q25 -12 35.5 -47.5t9.5 -87t-12.5 -116t-32.5 -134.5q-3 -6 -12.5 -33t-25.5 -63.5t-37.5 -75.5t-47.5 -69t-56 -44.5t-63 -0.5q-8 0 -15 5q-4 3 -7 6q-17 8 -33.5 26t-33 41.5t-33 51.5t-32.5 57q-3 5 -11.5 23
t-19 42.5t-19 52.5t-11.5 54.5t3 48t25 32.5q25 8 49 -5.5t44.5 -38.5t36.5 -55t24 -55q17 33 25 56.5t8 31.5q29 70 62.5 128.5t66.5 98.5t62.5 59t50.5 11zM31 627l-11 11h11q-8 0 -8 5.5t8 5.5v-22zM196 77q8 -17 22 -32t22 -23q8 -17 8 -19.5t-8 -2.5l-33 33
q4 -4 2.5 -2.5t-5.5 6.5t-9.5 13t-9.5 16q-8 4 -14.5 14t-13 23.5t-13 29t-14.5 32.5q-3 3 -6 7q-5 7 -5 15q-25 49 -37.5 93t-28.5 94q-8 8 -9.5 22t-1.5 22t-1.5 16.5t-9.5 16.5v33v-33l4.5 -4.5t-0.5 1.5t-2.5 6t-1.5 8v11v11v11v11v11l-11 11v33q2 -3 5 -7q6 -8 6 -15
v22h-11v11q0 -8 5 -15q3 -4 6 -7v-44v-11v-11v11q0 -8 5.5 -11t5.5 -11v-11v-11q0 -8 5.5 -11t5.5 -11q8 -42 17.5 -77t26.5 -77q8 -17 16.5 -34.5t16.5 -42.5q17 -33 33 -64.5t33 -56.5zM42 440q0 -8 5 -10q3 -1 6 -1zM31 649v11v-11zM31 583v11v-11zM31 594v11v-11z" />
    <glyph glyph-name="W" unicode="W" horiz-adv-x="899" 
d="M206 121q4 -4 10 -11.5t12 -16t12 -16t10 -11.5q8 -8 8 -15t-8 -7l-33 33q4 -4 2.5 -1t-5.5 9t-9.5 13.5t-9.5 11.5q-17 17 -27.5 45.5t-27.5 53.5q0 8 -5.5 16.5t-5.5 16.5q-25 41 -37.5 83.5t-28.5 92.5q-8 17 -9.5 26.5t-1.5 17.5t-1.5 16.5t-9.5 16.5v33v-33
q6 -7 4 1q-1 4 -4 10v11v22v22v11h-11v11v33q0 -8 5 -15q3 -4 6 -7v-11v22q-3 0 -6 1q-5 2 -5 10l11 -11v-44v-11v-11l11 -11v-11v-11v-11q2 -3 5 -7q6 -8 6 -15q8 -33 17.5 -71.5t26.5 -71.5q8 -25 16.5 -42.5t16.5 -34.5q33 -83 66 -132zM52 484q8 0 10 -6q1 -3 1 -5z
M811 429q19 -11 24 -31.5t1 -45.5t-14 -52t-21.5 -50t-21 -40t-12.5 -23q-25 -41 -51 -75t-49.5 -57t-43.5 -32t-32 -1q-17 8 -19.5 24.5t-2.5 41.5q-8 8 -16.5 9.5t-16.5 1.5v-22q-4 -4 -6.5 -11.5t-4.5 -16t-4.5 -16t-6.5 -11.5q0 -8 -2 -12.5t-4 -6.5q-3 -3 -5 -3
q-8 8 -4 17.5t4 26.5q0 -4 1.5 -1t4 9t4 13.5t1.5 11.5q0 8 1.5 16.5t9.5 16.5l-33 33q-8 -17 -31.5 -38.5t-56.5 -38.5l-33 -33q-33 -11 -63 4.5t-56 45.5t-47.5 69.5t-37.5 76t-25.5 65t-12.5 36.5q-25 70 -39 134t-16 114.5t8.5 84t35.5 41.5t55 -11t62 -58t64 -95
t61 -122l12 -24t17 -38t19 -48t18 -55q8 17 23 25t32 8h11q3 3 7 4q8 2 15 -4q17 0 38.5 -9.5t38.5 -34.5q17 33 40 67t48 76l33 33q0 8 7 11t15 11q0 8 7 15t15 7q-8 0 -15 -7t-7 -15l11 11q0 8 5.5 11t5.5 11q8 0 11 5.5t11 5.5v11h11q8 8 11 15t11 7l-11 -11l11 11
l-33 -33q0 -8 -1.5 -9.5t-9.5 -1.5v-11h-11h11q-8 0 -9.5 -1.5t-1.5 -9.5h-11v-11l-11 -11l-11 -11q-25 -33 -48.5 -62t-39.5 -70q-8 -8 -16.5 -23t-16.5 -32q0 -3 1 -6q2 -5 10 -5q0 8 7 22t15 22q0 3 7.5 19t21 38t31 46t37 41.5t40 24.5t39.5 -4zM723 429v-11v11z
M822 539q8 0 15 5q4 3 7 6h11h-11q0 -8 -6 -10q-3 -1 -5 -1l-11 -11q-8 0 -10 -6q-1 -3 -1 -5q-3 -3 -6 -4q-2 -1 -3.5 -1t-1.5 5q8 8 15 11t7 11zM866 561q2 0 5 1q6 2 6 10h11q-8 0 -11 -5.5t-11 -5.5zM41 693v-11h-11h11q-8 8 -8 11t8 11v-11zM41 638v11v-11zM30 616v-11
v22v33v-11v-11v-22zM41 627v11v-11z" />
    <glyph glyph-name="X" unicode="X" horiz-adv-x="476" 
d="M72 550v11v-11zM83 627q0 -8 -1.5 -11t-9.5 -11v11q0 3 1 7q2 7 10 15v-11zM446 33q8 -5 9 -10.5t-1 -10.5q-3 -6 -8 -12q-8 -4 -15 -4.5t-14 1.5t-16 6t-21 8q8 0 2.5 1.5t-13.5 9.5h-11h11q-8 8 -16.5 9.5t-16.5 1.5t-16.5 5.5t-16.5 5.5q-25 8 -42.5 28.5t-34.5 37.5
q-41 -41 -81 -62t-73 -4q-17 8 -21.5 31.5t-0.5 56.5t15.5 73t28.5 81q0 8 -1.5 16.5t-9.5 16.5q0 8 -5.5 22t-5.5 22t-5.5 16.5t-5.5 16.5v44v-44q0 -4 1.5 -2.5t4 5.5t4 9.5t1.5 9.5h-11v22v22v11q0 8 -1.5 9.5t-9.5 1.5h11v44q0 -8 1.5 -11t9.5 -11h-11h11q0 2 -1 5
q-2 6 -10 6v11l11 -11v-44v-11l11 -11v-11v-11v-11l11 -11v-22q8 -8 11 -16.5t11 -16.5v11q-8 8 -9.5 16.5t-1.5 16.5q-8 17 -9.5 26.5t-1.5 17.5q8 -8 9.5 -17.5t1.5 -26.5v22v11v11q-3 0 -4 1q-3 3 4 10v22v11v11v33q0 -8 1.5 -11t9.5 -11h-11h11v11v11h-11q8 0 10 -6
q1 -3 1 -5v-44v-11v-11v-11v11l11 -11v-11v-11v-11q0 -8 5.5 -11t5.5 -11v-11q16 25 40.5 58t53 59t61 36.5t65.5 -10.5q27 -17 35.5 -43t4.5 -56t-16.5 -60.5t-26.5 -57t-26 -45.5t-15 -24q-17 -25 -27.5 -41.5t-27.5 -24.5q17 -25 34.5 -42.5t42.5 -34.5h22
q8 -8 28.5 -16.5t37.5 -16.5q8 0 10 -6q1 -3 1 -5zM83 451v-11v11h-11h11zM94 396v-11v11zM127 396q0 -8 5 -10q3 -1 6 -1zM61 528q-4 -4 -6.5 -9.5t-3.5 -9.5t-1 -5.5t0 2.5v44q0 8 5.5 16.5t5.5 16.5v-11q-3 -3 -6 -7q-5 -7 -5 -15h11q-8 0 -9.5 -7t-1.5 -15h11zM105 528
q0 -8 -5.5 -13.5t-5.5 2.5t1.5 16.5t9.5 16.5v33v11l11 -11q0 -7 -6 -15q-3 -4 -5 -7v-11v-11q-7 -7 -4 -10q1 -1 4 -1zM127 550l-11 11h11v-11zM138 594q-33 16 -33 66q0 15 5 26q4 9 13 15.5t26 2.5q17 -5 24 -14t9 -18q3 -11 0 -23q-8 -25 -17.5 -40t-26.5 -15zM127 550
h-11h11z" />
    <glyph glyph-name="Y" unicode="Y" horiz-adv-x="747" 
d="M687 506q21 -25 18 -45t-15.5 -34.5t-27.5 -22.5t-19 -8q-21 -12 -41 -18.5t-36.5 -6.5t-28 6.5t-15.5 18.5q-8 8 -8.5 21.5t5.5 29t18 31.5t29 28q4 4 19 14t33.5 15t37.5 0.5t31 -29.5zM500 275q-4 -58 -14 -108t-24.5 -87t-32.5 -58.5t-39 -21.5q-25 0 -45 21.5
t-34.5 58.5t-22.5 87t-8 108v55h-22q-33 17 -64.5 36t-56.5 52q-8 8 -15 11t-7 11q-17 17 -37.5 40t-28.5 48q0 12 -3.5 23.5t-6.5 17.5t-4 5t3 -13q-4 16 -8 27t-6 19.5t-1.5 15.5t4.5 15q3 3 8 4q4 1 10.5 0.5t14.5 -4.5q0 -8 2 -18t5 -19t7 -17t8 -12q8 -41 30 -68.5
t47 -52.5q8 -8 17.5 -22t26.5 -22q17 -17 38.5 -26.5t38.5 -17.5v22q-8 4 -14.5 6.5t-13 5.5t-13 8t-14.5 13h-11q-4 8 -11.5 14.5t-14.5 13t-12.5 13t-5.5 14.5q0 4 -3.5 9.5t-6.5 9.5t-4 5.5t3 -2.5q-8 16 -13.5 20.5t2.5 12.5q0 6 1 10q2 8 10 1q8 -8 15 -22t7 -22
q8 -17 23 -27.5t32 -27.5q8 -8 17.5 -11t26.5 -11q4 25 12.5 48.5t22 42t32 30t43.5 11.5q33 0 53 -18.5t31 -46t16.5 -60.5t9.5 -62v-88z" />
    <glyph glyph-name="Z" unicode="Z" horiz-adv-x="582" 
d="M208 627q-3 0 -18 0.5t-35.5 2t-44 4.5t-43.5 9t-33 15.5t-13 23.5q0 25 26 36.5t59 15.5t63.5 3.5t38.5 -0.5q37 0 71 -4t59.5 -11t41 -17.5t15.5 -22.5q0 -8 -15.5 -16t-41 -15.5t-59.5 -13.5t-71 -10zM406 649q8 0 11 1.5t11 9.5h11h-11q0 -3 -1 -6q-2 -5 -10 -5h-11z
M98 616q-4 4 -9.5 6.5t-9.5 3.5t-5.5 1t2.5 0q-8 0 -15 1.5t-7 9.5h11q8 0 22 -1.5t22 -9.5h88q8 -8 22 -4t22 4q25 0 48 1.5t40 9.5h22h11h11h11v11h22h11h-11h11h-22v-11h-11h-11h-11q-8 0 -13.5 -5.5t2.5 -5.5q8 8 11 9.5t11 1.5q-8 0 -11 -1.5t-11 -9.5h-22h-22
q-33 -8 -60.5 -9.5t-60.5 -1.5h-11h-77zM340 638h-11h11zM208 308q-17 -33 -32 -64.5t-23 -56.5q0 -17 -5.5 -32t-5.5 -23q-5 -8 -8.5 -12.5t-6.5 -6.5q-4 -3 -7 -3q0 8 1.5 17.5t9.5 26.5q-4 -8 -4.5 -7t1.5 7t6 15.5t8 17.5q0 8 3.5 20t9 25.5t11 27.5t9.5 26q8 8 11 15
t11 7q17 42 40 77t48 77l33 33q8 8 11 15t11 7q0 8 7 15t15 7q-8 0 -15 -7t-7 -15q-8 0 -4 1.5t4 9.5h11q0 8 5 10q3 1 6 1v11q8 0 9.5 1.5t1.5 9.5h11v11h11q0 8 7 11t15 11q-8 -8 -11 -9.5t-11 -1.5v-11l11 11h11v11l-11 -11l-33 -33v-11h-11h11q-8 0 -9.5 -1.5t-1.5 -9.5
h-11v-11h-11q0 -8 -5.5 -11t-5.5 -11q-25 -25 -44 -56.5t-44 -64.5zM329 506v-11v11zM373 66q41 -4 75.5 -8t59 -8.5t38.5 -8.5t14 -8q0 -8 -14 -14.5t-38.5 -10.5t-59 -6t-75.5 -2h-17.5t-32 1t-40 3.5t-42.5 6.5q-8 -8 -22 -4t-22 4q-30 16 -39.5 46.5t-5 67t18.5 75
t30 72t31 58.5t20 33q33 58 69 106t70 80t63.5 44.5t50.5 0.5t27 -44t-1 -77t-27.5 -101.5t-53.5 -118.5q0 -8 -9.5 -29t-26 -48t-38.5 -56t-47 -54h44zM428 660h11h-11zM406 583q0 8 7 15t15 7q0 8 7 9.5t15 1.5v11q0 -3 -1 -6q-2 -5 -10 -5l-11 -11q-3 0 -6 -1
q-5 -2 -5 -10h-11q-3 -3 -4 -6q-1 -2 -1 -3.5t5 -1.5zM472 638q0 -3 -1 -6q-2 -5 -10 -5q8 8 8 4t-8 -4q8 8 11 9.5t11 1.5h-11zM450 671h11h-11zM428 605h11h-11zM439 605v11v-11z" />
    <glyph glyph-name="bracketleft" unicode="[" horiz-adv-x="263" 
d="M245 80q5 -23 -15 -43t-52 -31q-2 -1 -9.5 -3t-18.5 -2.5t-23.5 2t-22.5 10.5l4 -10q3 -10 3 -15.5t-1.5 -8t-3.5 -3l-2 -0.5q-9 3 -13.5 15.5t-15.5 35.5q4 -8 4 -5.5t-2 10.5t-5.5 18t-7.5 18q-11 22 -15.5 60t-9.5 73q-2 9 -2.5 18.5t-1.5 20.5q-1 6 -1.5 15t-0.5 17
q-1 10 -1 19v78q0 17 1 34q1 14 1.5 30t2.5 28l2 30t4 30q8 130 32 156l3.5 7t3.5 5t2.5 5t1.5 5l12 26l3 8l-3 -11q-2 -5 -4.5 -8t-4.5 -8q-1 -1 0 -2.5t0 -3.5q-2 -2 -4 -8l11 9q9 6 20 7t20.5 -0.5t16.5 -3.5t9 -3q32 -11 52 -31t15 -44q-5 -23 -32 -33.5t-60 -6.5
q-2 1 -6.5 1.5t-10.5 2.5q3 -20 7 -55t7 -69q4 -40 7 -84l4 -94q1 -34 0 -66q-1 -27 -2.5 -55.5t-3.5 -48.5l14 2q34 4 60.5 -6t31.5 -34zM96 703v-2v2zM123 770l-2 -3v1l2 3v-1zM119 761q-1 -5 -2.5 -8l-3.5 -7v4q1 2 1.5 1.5t-0.5 -2.5q3 11 7 18q1 -1 0 -4zM100 712
q0 1 2 3l-3 -7q1 1 1 4z" />
    <glyph glyph-name="backslash" unicode="\" horiz-adv-x="419" 
d="M14 654q1 -4 0 -8t1 -10q0 -1 1 -1.5t1 -2.5l2 -17q0 -1 2 -3l1 1q9 6 30 -11t50 -51t63.5 -81.5t71.5 -102.5q5 -7 20 -29.5t33.5 -53t37.5 -65t32 -65.5t16 -55t-10 -32l-3 -2q8 -7 15.5 -12.5t12.5 -9.5q15 -14 13.5 -20t-3.5 -6q-9 -2 -19.5 6.5t-30.5 22.5
q7 -5 5.5 -2.5t-7.5 8t-14.5 12.5t-15.5 12q-10 6 -21.5 17.5t-23 25.5t-23 29t-21.5 29q-6 7 -11.5 15t-11.5 17q-33 45 -59.5 92t-52.5 98q-7 14 -11.5 26.5t-9.5 23.5q-32 63 -47.5 106t-7.5 55q-1 5 -1.5 9.5t-2.5 9.5q-1 8 -1.5 14.5t-0.5 14.5q-2 4 -2 8zM11 706v3v1
v-4zM12 700q2 -5 2 -9v-8l-1 3q-1 3 -0.5 2.5t1.5 -2.5q-3 12 -3 20l2 -4zM21 648v3l1 -7q0 1 -0.5 1.5t-0.5 2.5zM24 637v-2v1v1zM23 635q1 -1 1 0l1 -4z" />
    <glyph glyph-name="bracketright" unicode="]" horiz-adv-x="264" 
d="M85 6q-32 11 -52 31t-15 43q5 24 32 34t60 6l15 -2q-3 20 -4 48.5t-2 55.5q-1 32 0 66l3 94q3 44 7 84q3 34 7 69t8 55q-7 -2 -11 -2.5t-6 -1.5q-34 -4 -60.5 6.5t-31.5 33.5q-5 24 15 44t52 31q2 1 9 3t16.5 3.5t20 0.5t20.5 -7l11 -9l-4 8q-1 2 -0.5 3.5t0.5 2.5
q-2 5 -5 8t-4 8l-3 11l2 -8q4 -6 7 -12.5t6 -13.5l3 -10q4 -4 7 -12q24 -26 32 -156q3 -15 4.5 -30t2.5 -30q1 -12 1.5 -28t1.5 -30l2 -34v-78q0 -9 -1 -19q-1 -8 -1.5 -17t-1.5 -15q-1 -11 -1 -20.5t-2 -18.5q-5 -35 -9.5 -73t-15.5 -60q-4 -8 -7.5 -18t-5.5 -18t-2 -10.5
t3 5.5q-11 -23 -15.5 -35.5t-12.5 -15.5q-1 -1 -5.5 3t0.5 24q2 4 4 10q-10 -8 -22 -10.5t-23 -2t-19 2.5t-10 3zM168 701v2v-2zM141 771l1 -3v-1l-1 3v1zM142 763v4l4 -8t4 -10q-2 5 1 1v-4l-3.5 7t-3.5 8zM164 712v-4l-2 7z" />
    <glyph glyph-name="asciicircum" unicode="^" horiz-adv-x="482" 
d="M24 189v7t2 8q-2 -6 -2 0l2 2q0 -3 0.5 -5.5t-1.5 -6.5l1 -2zM24 189v-2v2zM23 240q0 -5 1 -7.5t0 -5.5l-3 -9l2 6v10.5t1 10.5l2 14q-8 9 4.5 41t40.5 78q4 8 7.5 17t9.5 20q23 38 46.5 73.5t53.5 69.5q10 13 21 24q20 20 41.5 43.5t41.5 33.5l5 4q-3 16 -2.5 27t7.5 14
q12 4 29 -16q14 8 22.5 13.5t16.5 4.5q1 0 3 -4t-12 -15l-19 -13q11 -17 22.5 -38t20.5 -40.5t16 -35t9 -20.5q16 -37 28 -70t19.5 -58.5t9 -41.5t-4.5 -19t-17 9t-25.5 34.5t-31.5 53.5t-34 67q-2 4 -10.5 22.5t-18.5 43.5q-12 -21 -27.5 -43.5t-29.5 -41.5t-25 -33
t-15 -18q-33 -42 -64.5 -78t-58.5 -61.5t-47 -38.5t-29 -10l-1 1q-1 -1 -1 -3q-1 -4 -1 -12q0 -1 -1.5 -1.5t-1.5 -1.5zM30 230v2q1 1 1 3zM33 240v2v-1v-1zM32 241q0 1 0.5 1.5t0.5 1.5v-2z" />
    <glyph glyph-name="underscore" unicode="_" horiz-adv-x="442" 
d="M224 -27q40 -1 75.5 -3.5t61.5 -6t41.5 -9t15.5 -11.5t-15.5 -11t-41.5 -9t-61 -7t-75 -4h-20t-37.5 0.5t-45.5 2t-44.5 4.5t-33.5 8.5t-13 14.5t13 15t32.5 9.5t43.5 5t45.5 2t37.5 0t21 -0.5z" />
    <glyph glyph-name="grave" unicode="`" horiz-adv-x="165" 
d="M156 711q1 0 1.5 0.5t1.5 0.5h1h1q-2 -1 -5 -1zM139 705q-2 1 -2.5 0.5t-1.5 -0.5q2 -1 3.5 -1t0.5 0l-7 -2h-1h-3h-5v2l-3 1l-3 -3h3h2q-4 -1 -8 0h-7h-4.5t-5.5 1q-11 3 -20 6.5t-17 9.5l-5 5q-5 4 -11 8t-7 10q-1 5 -3.5 8.5t-1.5 -0.5l-2 14q-2 5 -3 11.5t0.5 13.5
t6.5 13t16 10q14 5 23.5 1t15.5 -11.5t8.5 -15t2.5 -8.5q5 -20 1.5 -36.5t-17.5 -21.5q-2 -1 -5 -1q1 0 1 -0.5t1 -0.5q13 -5 29 -10q2 0 3 -0.5t3 -0.5h2l1 -1h1h1h4h1l1 -1l1 1q2 -1 4.5 -0.5t5.5 0.5h2zM144 703q-2 0 -3.5 -0.5t-3.5 -0.5q-1 0 3 2l2 -1q-1 0 3 2l1 -1
l4 2h1z" />
    <glyph glyph-name="a" unicode="a" horiz-adv-x="777" 
d="M683 55v-11v11zM89 429q-17 -25 -26.5 -49.5t-17.5 -49.5v-11v-11q-5 0 -5 -2t1 -4q1 -3 4 -5q-8 0 -10 -6q-1 -3 -1 -5v-11v-33v-11v11v11v-11q-3 3 -6 7q-5 7 -5 15v11q6 0 4 5q-1 3 -4 6v11v11h11q0 8 -5.5 13.5t-5.5 -2.5v-22v22q0 8 5.5 11t5.5 11v33q17 33 29 59
t37 51q0 8 1.5 11t9.5 11q17 17 29 32t37 23q4 0 9.5 1.5t9.5 4t5.5 4t-2.5 1.5q17 0 26.5 4t17.5 -4q3 -3 4 -7q1 -3 0.5 -7t-4.5 -8q-8 0 -22 -7t-22 -15q-25 -8 -42.5 -23t-34.5 -32q-8 -17 -16.5 -26.5t-16.5 -17.5zM45 187v-11v-11v22zM606 88q7 -8 15 -10q4 -1 7 -1
q0 -3 1 -6q2 -5 10 -5q-8 0 -10 5q-1 3 -1 6q-8 0 -15 5q-4 3 -7 6q-8 8 -16.5 11t-16.5 11q-7 6 1 4q4 -1 10 -4q8 0 10 -6q1 -3 1 -5zM716 121q12 -4 21 -11q8 -6 12 -16.5t0 -27.5q-8 -17 -16.5 -19.5t-16.5 -2.5v-11q0 8 -6 10q-3 1 -5 1q-8 0 -15 5q-4 3 -7 6l-11 11
v-11h11q-8 0 -11 1.5t-11 9.5q2 0 5 -1q6 -2 6 -10v11q-8 0 -16.5 5.5t-16.5 5.5q0 8 -7 11t-15 11l11 -11q0 8 -6 10q-3 1 -5 1v11q-7 0 1 -6q4 -3 10 -5v-11h11l11 -11q2 0 5 -1q6 -2 6 -10q-8 8 -13.5 22t2.5 22q8 17 24.5 18t41.5 -7zM595 110q-8 8 -16.5 11t-16.5 11
l-11 11q0 8 -7 11t-15 11q0 2 -1 5q-2 6 -10 6v11q-6 2 -10 5q-8 6 -1 6q0 -8 7 -16.5t15 -16.5q-8 8 -15 16.5t-7 16.5q-8 0 -11 7t-11 15q0 8 -7 17.5t-15 26.5q-17 50 -30.5 93.5t-13.5 93.5q-8 8 -9.5 16.5t-1.5 16.5v11q-3 2 -7 5q-8 6 -15 6q-17 0 -27.5 5.5
t-27.5 5.5t-34.5 -7t-42.5 -15t-48 -24.5t-40 -41.5q33 33 66 33q21 -4 33.5 -23.5t18.5 -48t6.5 -64.5t-3.5 -73q0 -4 -2.5 -24t-10 -46t-20 -52.5t-33.5 -42.5q17 -8 27.5 -11t27.5 -11q12 -8 30 -9t31.5 1t17 5t-12.5 3q25 0 42 5t30.5 10t25 8t23.5 -1q11 -2 16 -6
q4 -5 2.5 -13t-18.5 -25q-12 -8 -33.5 -17.5t-46.5 -17t-50 -10.5t-46 1q-45 4 -85.5 25t-71.5 53t-50.5 72t-23.5 81q-8 50 0 92t33 84q21 37 49 67t62 49.5t73 27t80 -0.5q17 0 26.5 -5.5t17.5 -5.5t10 -6q1 -3 1 -5q0 25 7 42.5t15 34.5q8 4 14 13t8 16t-0.5 9.5
t-10.5 -5.5q8 12 13 21t9 15t9 10.5t13 8.5q4 0 9.5 -0.5t9.5 -2.5t5.5 -6.5t-2.5 -12.5q0 -8 -2 -18t-5 -19t-7 -17t-8 -12q-17 -25 -19.5 -55t-2.5 -55q2 0 5 -1q6 -2 6 -10q0 33 2.5 64.5t19.5 56.5q8 4 14 13t9 16t3 9.5t-4 -5.5q8 12 13 21t9 15t9 10.5t13 8.5
q6 0 11 -4q4 -3 7.5 -10t3.5 -19q-8 -8 -16.5 -28.5t-16.5 -37.5q-25 -33 -29 -67t-4 -76v-33q8 -17 9.5 -26.5t1.5 -17.5v-22q0 -17 1.5 -26.5t9.5 -17.5q0 -25 7 -44t15 -44q8 0 9.5 -7t1.5 -15l11 -11v-11q8 0 10 -6q1 -3 1 -5v-11h11q8 -17 11 -26.5t11 -17.5l11 -11v11
h-11q0 2 -1 5q-2 6 -10 6h11q0 -8 1.5 -11t9.5 -11q-8 8 -16.5 15t-16.5 7l-11 11v11q-3 2 -7 5q-8 6 -15 6q3 0 4 1q2 2 -4 10q-3 0 -6 1q-5 2 -5 10v11q-6 3 -10 4q-8 2 -1 -4l22 -22q-8 0 -15 7t-7 15q-8 8 -9.5 16.5t-1.5 16.5q-8 8 -16.5 17.5t-16.5 26.5v11v-11h-11
q8 -8 11 -16.5t11 -16.5q0 -8 5 -15q3 -4 6 -7h-11h11l11 -11v-11q8 -8 9.5 -11t1.5 -11v11v-11q8 0 9.5 -1.5t1.5 -9.5l33 -33v-11q-8 8 -9.5 11t-1.5 11v-11v11q0 -8 1.5 -15t9.5 -7zM562 209v22v-22zM518 396v-11v11q0 -17 1.5 -26.5t9.5 -17.5v11q0 8 -1.5 16.5
t-9.5 16.5zM342 550q8 0 16.5 -5.5t16.5 -5.5q-8 8 -16.5 9.5t-16.5 1.5zM408 495v11h-22q7 0 15 -6q4 -3 7 -5zM474 484q-3 0 -6 1q-5 2 -5 10zM463 374q16 -66 33 -99q2 0 5 1q6 2 6 10q-8 21 -14.5 40t-10.5 38.5t-6 40.5t-2 46v11h-11v-11v-77zM518 220v11v-11zM34 220
h-11l11 -11v-11v11l-11 11v33v-11q6 0 4 -6q-1 -3 -4 -5z" />
    <glyph glyph-name="b" unicode="b" horiz-adv-x="651" 
d="M252 429l11 11zM241 429q33 0 33 -33q4 -17 -2.5 -26t-15.5 -13q-11 -5 -26 -5q-50 0 -66 33v11v-11q-8 -8 -16.5 -22t-16.5 -22q-8 -17 -9.5 -29t-1.5 -37q0 -8 -5.5 4t-5.5 29q2 0 5 1q6 2 6 10t5.5 16.5t5.5 16.5h11q0 8 1.5 16.5t9.5 16.5q8 0 9.5 1.5t1.5 9.5
q8 8 17.5 16.5t26.5 16.5q8 0 16.5 5.5t16.5 5.5h11v-11h-11zM604 253q0 2 1 5q2 6 10 6h-11v-11v-11v11q2 0 5 1q6 2 6 10q0 -7 -6 -15q-3 -4 -5 -7v-11v-11v-11h-11v-11v-11q0 3 1 7q2 7 10 15q-8 -8 -9.5 -16.5t-1.5 -16.5l-11 -11q-8 -8 -11 -16.5t-11 -16.5
q-17 -25 -40 -48t-48 -40q-8 0 -11 -5.5t-11 -5.5q-17 -8 -38.5 -20.5t-38.5 -12.5q-4 4 -11 4.5t-12.5 -0.5t-6 -2.5t7.5 -1.5h-19t-11 1t-7 3.5t-7 6.5q-8 0 -8 7t8 15h55q25 0 44 13.5t44 30.5q17 0 26.5 7t17.5 15q25 17 42.5 38.5t34.5 38.5v11l11 11v11l11 11v-11v11
v11q0 8 5.5 11t5.5 11zM571 176v11v-11zM186 33h-11h11zM175 33q0 3 -1 7t-10 15q8 -8 9.5 -11t1.5 -11zM626 297h-11q8 -8 9.5 -11t1.5 -11q-8 -8 -9.5 -11t-1.5 -11v11v11h11q0 8 -5.5 11t-5.5 11h11zM505 121q-33 -29 -69.5 -49t-75 -28t-77 -3.5t-75.5 25.5
q-8 8 -22 16.5t-22 16.5l-11 11v11v-11l-11 11q0 2 -1 5q-2 6 -10 6v11l-11 11q0 -8 1.5 -11t9.5 -11v-11h-11q2 0 5 1q6 2 6 10h-11v22v-11v-22q0 8 -5.5 16.5t-5.5 16.5l-11 11v11q0 8 -5.5 11t-5.5 11q3 0 4 1q2 2 -4 10v11v11q0 8 -5.5 13.5t-5.5 -2.5t5.5 -16.5
t5.5 -16.5q0 8 -5.5 16.5t-5.5 16.5v33q0 8 -5.5 16.5t-5.5 16.5v-11v-33l11 -11h-11h11q-8 0 -8 -5.5t8 -5.5v-22v11v-11v-11q0 -17 5.5 -27.5t5.5 -27.5v-11v11v22l-11 -11h11v-22q0 8 -7 16.5t-15 16.5v11v22l-11 11v11v11q-5 0 -5 1.5t1 3.5q1 3 4 6q0 8 -5.5 13.5
t-5.5 -2.5t1.5 -16.5t9.5 -16.5q-8 8 -9.5 16.5t-1.5 16.5v33q-8 17 -9.5 27.5t-1.5 27.5q0 50 4 99t29 99q0 8 5.5 16.5t5.5 16.5q8 12 15 27.5t14 30t16 26t21 15.5q8 4 17.5 11.5t15.5 13.5t7 9t-7 -1q12 8 19 14.5t12.5 10.5t10.5 6t13 2t15 -8t7 -25q0 8 7 9.5t15 1.5
v-11v11q8 8 17.5 16.5t26.5 16.5q8 0 9.5 1.5t1.5 9.5h11h-11h11h11h11q2 0 5 1q6 2 6 10q8 0 16.5 -5.5t16.5 -5.5q21 -4 37.5 -16t28.5 -28.5t20.5 -36t12.5 -40.5q0 -25 -7 -48t-15 -40l-11 -11q37 -25 63.5 -57t42 -68t19.5 -74.5t-4 -75.5q-8 -50 -31.5 -85.5
t-56.5 -68.5zM65 286v11v-11zM406 770h-11h11zM285 737v-11q0 -3 -1 -6q-2 -5 -10 -5h11v22zM120 176v-11v11zM120 154v11v-11zM197 77q3 -3 7 -6q7 -5 15 -5q-11 9 -15 10t-7 1zM318 88q33 0 59 8t51 25q-25 -8 -42.5 -9.5t-34.5 -1.5q-17 12 -23.5 35.5t-4 53.5t12 64
t26.5 67q0 4 8 22t22.5 40t34.5 42t45 28q-8 17 -16.5 26.5t-16.5 17.5h-11q-25 -8 -51 -13.5t-59 2.5q-17 0 -32 13.5t-23 30.5h-22q-5 3 -8 8q-2 4 -1 10.5t9 14.5h11q0 2 1 5q2 6 10 6q16 4 39.5 6t48.5 1t48 -5.5t40 -12.5q2 0 5 -1q6 -2 6 -10v11q25 42 23.5 81.5
t-34.5 72.5q-8 8 -16.5 15t-16.5 7q-8 8 -16.5 9.5t-16.5 1.5h-33h33h-11h-22q-8 -8 -11 -5.5t-11 -5.5h-11v-11q-8 -8 -15 -11t-7 -11l11 11q-8 -8 -9.5 -11t-1.5 -11q0 -3 -1 -6q-2 -5 -10 -5v-11v-22v11v11l-44 -44q-33 -25 -52.5 -62t-35.5 -70q-8 -17 -15 -38.5
t-7 -38.5q-8 -33 -9.5 -60.5t-1.5 -60.5v11v-11v-11v11q-8 -17 -4 -33t4 -33v-11q8 0 9.5 -1.5t1.5 -9.5v-22l22 -22q-3 -3 -4 -6q-1 -2 -1 -3.5t5 -1.5q0 -8 7 -11t15 -11v-11q4 -4 11.5 -8t13.5 -6t9 -1.5t-1 4.5q-17 8 -26.5 17.5t-17.5 26.5q8 -8 17.5 -22t26.5 -22
q8 -8 17.5 -16.5t26.5 -16.5h77zM395 528q-12 4 -22 4.5t-14 -0.5t-1 -2.5t15 -1.5h22zM307 528q8 0 16.5 -5.5t16.5 -5.5t16.5 5.5t16.5 5.5h-66zM285 616l-11 11q8 0 11 -5.5t11 -5.5h-11zM296 616v-11v11zM263 671v-11v11zM109 352q0 2 1 5q2 6 10 6q-8 0 -10 -6
q-1 -3 -1 -5zM120 374h11h-11zM120 374v-11v11zM142 99v11v-11zM87 121q8 -8 15 -11t7 -11v-11v11q-8 8 -11 15t-11 7q-8 8 -9.5 16.5t-1.5 16.5l-4.5 4.5t1.5 -0.5t6 -2.5t8 -1.5q0 -8 -4 -9.5t4 -1.5q0 -8 1.5 -11t9.5 -11h-11zM120 99v22v-11v11h-11v11v-11v11l11 -11
v-11l11 -11q0 -8 5.5 -11t5.5 -11v-11v11zM615 319v11v-11zM604 286l11 11zM142 55q0 8 -5.5 11t-5.5 11l11 -11v-11zM142 396v-11h-11q8 0 10 5q1 3 1 6zM153 99h-11h11z" />
    <glyph glyph-name="c" unicode="c" 
d="M565 605v-22l33 -33q-3 0 -6 -1q-5 -2 -5 -10q8 -8 15 -16.5t7 -16.5v-33v22q-8 17 -11 33t-11 33l-55 55q-4 4 -1 4.5t9 -1.5t13.5 -6t11.5 -8zM697 297q12 8 21 7q8 -1 12 -11.5t0 -39.5q-8 -21 -24 -46t-35.5 -49t-41 -43t-42.5 -27q-54 -29 -110 -37.5t-110 0.5
t-102 35.5t-85 67.5q-33 42 -56.5 91t-31.5 107q-4 49 4 99.5t29 94.5t54 79.5t78 56.5q17 8 33 11t33 11h22h11h-11h11h22h11h44h-11h-11h11v-11v11h11q0 -8 5 -10q3 -1 6 -1h11h11q12 -8 26 -15t27.5 -14t25.5 -16t20 -21q2 -6 5 -12q2 -5 4 -11t2 -10v11v11h-11
q0 8 -12.5 16.5t-20.5 16.5l11 -11l33 -33q-17 17 -33 26.5t-33 17.5h-11q-8 0 -11 5.5t-11 5.5q-3 0 -7 1q-8 2 -15 10h-44v11q-17 -8 -26.5 -9.5t-17.5 -1.5q-3 3 -7 4q-3 1 -7 0.5t-8 -4.5q-4 0 -11 -3.5t-12.5 -6.5t-6 -4t7.5 3q12 4 21 6.5t17.5 3.5t17.5 1h21
q-17 0 -38.5 -5.5t-38.5 -5.5q-17 -8 -32 -11t-23 -11q-25 -17 -37 -38.5t-29 -38.5q-29 -45 -38 -93.5t-3 -95t25.5 -88.5t48.5 -75q17 -17 27.5 -26.5t27.5 -17.5q25 -21 55 -28.5t60.5 -8.5t60.5 1.5t55 2.5q21 4 40 18t30 26t11.5 17.5t-15.5 -6.5q25 16 39 32.5
t24.5 31t20 26.5t26.5 20zM290 682q-8 0 -16.5 -1.5t-16.5 -9.5q8 0 16.5 5.5t16.5 5.5zM488 11h-11h-11q8 0 11 4t11 -4zM433 22v-11q-3 0 -6 1q-5 2 -5 10h11zM444 11q-3 0 -6 1q-5 2 -5 10zM400 11h-22h-11h-11h-22q0 8 -6 10q-3 1 -5 1h-11h-11q8 0 16.5 -5.5t16.5 -5.5
q-8 0 -16.5 1.5t-16.5 9.5q-8 0 -11 5.5t-11 5.5t-17.5 1.5t-26.5 9.5q-33 25 -64.5 45.5t-56.5 53.5q0 8 -5.5 11t-5.5 11q-8 8 -18 18.5t-18 21.5t-13.5 23.5t-5.5 24.5q0 8 -1.5 17.5t-4 15.5t-4 7t-1.5 -7q0 12 -1.5 21t-1.5 15t3 10.5t11 8.5q3 3 7 3q7 0 15 -14
q0 -8 5.5 -23t5.5 -32q8 -33 28.5 -59t37.5 -51q8 -8 17.5 -22t26.5 -22q49 -50 99 -66q8 -8 11 -9.5t11 -1.5l11 -11h11h11v-11v11l11 -11q8 0 22 -1.5t22 -9.5h11h-11h-11h11zM290 55q8 0 10 -6q1 -3 1 -5q-3 0 -6 1q-5 2 -5 10zM422 0q8 0 11 4t11 -4h11h-11h-22h-33
q-4 0 -3 0t4 1t6.5 3.5t3.5 6.5q0 -3 1 -6q2 -5 10 -5h11v0zM631 517v-11v11zM620 550v-11v11zM609 572q8 -8 9.5 -11t1.5 -11q0 8 -5.5 11t-5.5 11zM609 407v11h11q-8 -8 -11 -20.5t-11 -12.5v-11l-11 -11q8 17 15 26.5t7 17.5zM521 572q37 0 55.5 -15.5t25.5 -35t7 -37.5
v-22q-8 -50 -26 -81.5t-51 -39.5q-17 0 -31 9.5t-25.5 25t-19.5 35t-12 40.5q0 4 -0.5 22t6 38.5t22.5 38.5t49 22z" />
    <glyph glyph-name="d" unicode="d" horiz-adv-x="846" 
d="M555 594q8 -8 22 -11t22 -11q-8 8 -17.5 16.5t-26.5 16.5q-17 17 -34.5 32t-42.5 23h-66q-17 0 -38.5 -1.5t-38.5 -9.5q12 4 21 6.5t17.5 3.5t17.5 1h21q8 0 7 1.5t-7 4t-15.5 4t-17.5 1.5l-11 -11q-8 0 -17.5 -1.5t-26.5 -9.5t-26.5 -11t-17.5 -11l-11 -11l-11 -11
l-11 -11q-17 -8 -26.5 -22t-17.5 -22v-11l9.5 9.5t9.5 8.5t5.5 2t-2.5 -9q-8 -8 -11 -16.5t-11 -16.5q8 -58 9.5 -97.5t1.5 -56.5q-8 -42 -11 -87t-11 -78q12 -4 21.5 -10t18.5 -13.5t20 -15.5t28 -16q-33 66 -33 165q-8 4 -13 8t-8 8.5t-5.5 8.5t-6.5 8h11q0 -8 -1.5 -8
t-9.5 8l33 -33q0 17 5.5 38.5t5.5 38.5q3 5 8.5 26.5t17.5 49.5t32 57.5t52 51t78 30t109 -5.5zM214 583q0 -8 -5.5 -11t-5.5 -11v-11q0 8 5 15q3 4 6 7v11zM445 704h33h-33zM709 231q-21 -50 -56.5 -90t-82 -67t-101 -38t-112.5 -3q-21 4 -44.5 14t-47.5 23.5t-46 29
t-38 32.5q-8 -42 -23 -59.5t-32 -17.5t-31 25t-24 67t-16 98t-6 118q0 5 -0.5 31t1 61.5t5 75.5t12 73.5t23 55.5t36.5 22q16 0 29 -9.5t22 -25t15.5 -35t10.5 -40.5q8 17 28.5 38.5t37.5 38.5h11v11q8 0 11 1.5t11 9.5v-11v11h11h-11q8 0 16.5 5.5t16.5 5.5q0 2 1 5
q2 6 10 6h22v11v-11l11 11h22h66q49 -4 92 -25.5t77 -55.5t58.5 -78.5t36.5 -93.5q8 -58 5.5 -114t-27.5 -106zM632 88q8 0 10 5q1 3 1 6q-3 0 -6 -1q-5 -2 -5 -10zM808 374q4 -12 2.5 -26.5t-5.5 -28.5t-9.5 -28.5t-9.5 -26.5q0 -3 -1 -7q-2 -7 -10 -15q-8 -41 -30 -70
t-47 -62q-8 -8 -16.5 -15t-16.5 -7q-8 -8 -15 -11t-7 -11q-8 -8 -15 -10q-4 -1 -7 -1q3 2 7 5q8 6 15 6q0 6 -6 4q-3 -1 -5 -4q0 -3 -1 -6q-2 -5 -10 -5h-11v-11h-11q-8 0 -9.5 -1.5t-1.5 -9.5h-11q-8 0 -16.5 -5.5t-16.5 -5.5q8 0 11 5.5t11 5.5h-11l-11 -11l11 11
q8 0 16.5 7t16.5 15h11v11v-11v11v-11q0 8 1.5 9.5t9.5 1.5l11 11v11q8 0 11 1.5t11 9.5q8 12 18 23t19 22.5t17 24t12 29.5q16 16 20.5 32.5t12.5 33.5q4 12 9.5 26.5t9.5 30t5.5 31.5t-2.5 33v11.5t-1 16t-3.5 16t-6.5 11.5q8 17 16.5 18t16.5 -7t11 -17.5t11 -26.5
q-4 4 -6 1t-2 -9t2 -13.5t6 -11.5zM467 0q8 8 11 9.5t11 1.5v-11q-8 0 -9.5 1.5t-1.5 9.5q0 -8 -6 -10q-3 -1 -5 -1zM566 22q-8 -8 -16.5 -9.5t-16.5 -1.5q-3 0 -7 -1q-7 -2 -15 -10v11h22h11q8 0 10 5q1 3 1 6h11zM533 22h-11h11z" />
    <glyph glyph-name="e" unicode="e" horiz-adv-x="718" 
d="M593 451h-11h11zM395 407q4 0 20 2t35 -1t35 -15t20 -41q8 -29 -1.5 -46.5t-25 -26.5t-31 -12t-19.5 -3q-21 0 -40.5 2.5t-35 8.5t-25 16.5t-9.5 27.5q-8 25 13.5 48t63.5 40zM615 110q-8 0 -11 -7t-11 -15h-11q0 -3 -1 -6q-2 -5 -10 -5q0 -3 -1 -6q-2 -5 -10 -5
t-11 -1.5t-11 -9.5q-8 0 -13.5 -5.5t2.5 -5.5q8 8 15 11t7 11q0 -8 -7 -11t-15 -11q-8 0 -16.5 -1.5t-16.5 -9.5q-8 0 -16.5 -5.5t-16.5 -5.5q-50 -17 -92 -23.5t-84 1.5h-33q-8 0 -16.5 5.5t-16.5 5.5q-8 -8 -15 -10q-4 -1 -7 -1q-17 0 -26.5 8t-17.5 25h-11q-4 8 -13 14
t-16 9t-9.5 3t5.5 -4q-8 8 -16 13t-14 9t-10 9t-4 13q3 6 8 10q4 3 10.5 4t14.5 -3q0 8 1.5 9.5t9.5 1.5q-8 33 -15 72.5t-7 81.5q0 8 -1 36t1 64t9 74.5t24 67.5v-11l-66 -33q-8 -5 -12.5 -3.5t-6.5 4.5q-3 4 -3 10q0 12 2 19t7.5 12.5t14 10.5t20.5 13q-8 -8 -7 -9t7 2
t15.5 8.5t17.5 9.5q17 25 47 29t63 4q3 0 7 1q7 2 15 10q50 0 92 -7t84 -15q17 0 26.5 -7t17.5 -15q8 0 16.5 -1.5t16.5 -9.5q8 0 11 -5.5t11 -5.5q-8 0 -11 5.5t-11 5.5l-4.5 4.5t0.5 -1.5t2.5 -6t1.5 -8h11q8 0 9.5 -1.5t1.5 -9.5q2 3 5 4q6 2 6 -4l11 -11h11l11 -11
l22 -22q-8 0 -11 5.5t-11 5.5l11 -11h11h-11q-8 8 -17.5 15t-26.5 7l-11 11h-11q0 8 -6 10q-3 1 -5 1h-11q-8 0 -11 5.5t-11 5.5q-33 8 -66 15t-66 7h-77h-22q22 -14 36.5 -37.5t23 -51t12 -57t5 -55.5t1 -46t-0.5 -28q-8 -58 -17.5 -112.5t-26.5 -96.5h55h77q33 8 66 17.5
t66 26.5q3 0 7 1q7 2 15 10h11h-11h11v11h11h11h-11h11v11h11l33 33h11v-11q-8 0 -11 -1.5t-11 -9.5h11v11q2 0 5 1q6 2 6 10q-8 -8 -11 -16.5t-11 -16.5h-11v-11q-8 0 -11 -5.5t-11 -5.5l-11 -11h-11q0 -8 -5.5 -13.5t-5.5 2.5q16 0 20.5 5.5t12.5 5.5q-8 0 -16.5 -5.5
t-16.5 -5.5q0 -8 -7 -9.5t-15 -1.5q-8 -8 -16.5 -15t-16.5 -7h22l11 11h11q8 0 10 5q1 3 1 6v-11v11h11h11q8 8 16.5 15t16.5 7l11 11v-11v11q0 -8 -6 -10q-3 -1 -5 -1l-11 -11q8 8 8 9.5t-8 1.5h22zM538 110h-11h11zM472 528h-11h11zM494 66q0 -5 1.5 -5t3.5 1q3 1 6 4h-11
zM626 143v-11v11zM692 242q0 -3 -1 -6q-2 -5 -10 -5q0 2 1 5q2 6 10 6zM637 121q8 8 10 15q1 4 1 7h11h-11q0 -7 -6 -15q-3 -4 -5 -7l-22 -22l-4.5 -4.5t0.5 1.5t2.5 6t1.5 8h11q0 2 1 5q2 6 10 6zM692 242l11 11zM681 187q0 -8 -5.5 -11t-5.5 -11h-11l11 11zM593 473
q-8 8 -9.5 5.5t-1.5 5.5q-8 0 -10 5q-1 3 -1 6q8 -8 16.5 -15t16.5 -7q0 -8 5 -15q3 -4 6 -7l11 -11q-8 0 -10 5q-1 3 -1 6q-8 0 -10 5q-1 3 -1 6zM648 187v11v-11zM637 407l-11 11h11h-11q8 0 11 -5.5t11 -5.5h-11zM659 187q8 0 10 5q1 3 1 6q0 2 1 5q2 6 10 6l-11 -11
q-3 -3 -6 -7q-5 -7 -5 -15l-22 -22q-5 -5 -5 -3.5t1 4.5q1 4 4 10h11q0 8 1.5 11t9.5 11zM637 154v-11v11z" />
    <glyph glyph-name="f" unicode="f" horiz-adv-x="615" 
d="M500 506h11l-11 11q-8 0 -16.5 5.5t-16.5 5.5v11h-11h-11v11h-11q3 -3 7 -6q7 -5 15 -5q-8 0 -16.5 1.5t-16.5 9.5l11 -11h11l11 -11q8 0 10 -6q1 -3 1 -5h11h11v-11h11zM456 517h-11h11v0zM401 561q8 0 11 -5.5t11 -5.5q-8 0 -11 5.5t-11 5.5zM401 539h11h-11zM412 561
h-11h11zM566 495q12 -13 18 -25q5 -11 5 -22t-12 -19q-17 -13 -29.5 -12.5t-20.5 5.5q-10 6 -16 18q-8 17 -15 27.5t-7 27.5q-3 2 -7 5q-8 6 -15 6v11h-11h-11l-11 11h-11q-8 0 -11 1.5t-11 9.5q-25 8 -56.5 11t-64.5 11q-17 0 -33 -1.5t-33 -9.5h-11q33 0 54.5 -16.5
t35 -42.5t20.5 -57t11 -60q8 8 17.5 11t26.5 11q22 6 40 3q16 -2 29.5 -12t18.5 -35q4 -25 -6 -40t-24.5 -23.5t-28.5 -11t-18 -2.5q-17 0 -33 1.5t-33 9.5v-11q0 -58 -8 -108t-22.5 -87t-34.5 -58.5t-45 -21.5q-21 0 -39 21.5t-31.5 58.5t-21 87t-7.5 108q-3 5 -5 26
t-1.5 50t5 61.5t15.5 61.5t29 49.5t45 26.5q-25 0 -48 -8t-40 -25q-17 -8 -32 -16.5t-23 -16.5q-14 0 -19 11q-3 4 -3 11q0 8 1.5 11t9.5 11q0 8 2 13t6 9t10.5 9t14.5 13q-4 -8 -1 -10.5t9 -0.5t13.5 8t11.5 14q17 17 40 19.5t48 2.5q8 8 16.5 9.5t16.5 1.5q33 0 71.5 -7
t71.5 -15q16 0 20.5 -5.5t12.5 -5.5q8 -8 16.5 -9.5t16.5 -1.5t11 -5.5t11 -5.5q-8 0 -11 5.5t-11 5.5q-5 0 -5 -2t1 -4q1 -3 4 -5h11q2 0 5 -1q6 -2 6 -10q8 0 10 -6q1 -3 1 -5h11h11q0 -8 7 -15t15 -7h-22q8 0 8 1.5t-8 9.5v-11h11h11q-8 0 -10 5q-1 3 -1 6q8 0 11 -5.5
t11 -5.5t22 -7t22 -15z" />
    <glyph glyph-name="g" unicode="g" horiz-adv-x="730" 
d="M664 242q25 -25 32 -70t-10 -95q0 -4 -6.5 -22.5t-20 -35t-34 -23t-49.5 14.5q-33 16 -33 33q-17 -8 -38.5 -15t-38.5 -7q-54 -12 -106 -5t-97.5 31t-81 62t-56.5 88q-25 50 -33 106t0 114q8 49 28 93.5t50 79.5t69 59t84 32h55h33v-11v11v-11h33q8 -8 16.5 -11t16.5 -11
h-11v11v-11h11v-11v11h11l11 -11l11 -11q25 -17 47 -40t30 -48q2 -6 5 -12q2 -5 4 -11t2 -10l-11 11q3 0 4 1q2 2 -4 10q0 17 -7 26.5t-15 17.5v-11q8 -8 15 -22t7 -22q0 8 -7 16.5t-15 16.5v-11q8 -8 9.5 -11t1.5 -11q8 0 5.5 -7t5.5 -15q0 -8 1.5 -16.5t9.5 -16.5
q-3 0 -6 -1q-5 -2 -5 -10q8 -8 9.5 -22t1.5 -22t-5.5 -11t-5.5 -11q0 8 5.5 11t5.5 11q0 17 -5.5 33t-5.5 33q0 8 -5.5 22t-5.5 22q0 -8 -2 -14.5t-4 -10.5q-3 -5 -5 -8q0 -50 -22 -80t-55 -30q-17 0 -31 9.5t-24 26t-16 38.5t-6 47q-2 31 5 54q6 20 22.5 34.5t49.5 10.5h33
l-22 22q-8 8 -18 5.5t-26 5.5v11h-33q-8 0 -11 5.5t-11 5.5q-4 0 -11 -1.5t-12.5 -4t-6 -4t7.5 -1.5q17 0 33 -1.5t33 -9.5q-17 8 -34.5 9.5t-42.5 1.5h-55q-17 -17 -38.5 -27.5t-38.5 -27.5q-37 -33 -58 -76.5t-27 -91t1.5 -95.5t28.5 -89q8 -17 16.5 -32t16.5 -23
q21 -29 47 -45t53.5 -24t55.5 -11.5t53 -7.5q21 -4 43 2t36.5 14.5t16.5 14.5t-19 2h22q4 12 8 22t7 18q4 9 7 15q25 41 56.5 61.5t64.5 4.5zM345 671q-17 16 -33 0h33zM169 66v11v-11zM158 77q-8 8 -16.5 11t-16.5 11v11h-11q0 8 -1.5 9.5t-9.5 1.5v11l-11 11
q0 8 -5.5 13.5t-5.5 -2.5l22 -22q-8 0 -11 7t-11 15q0 8 -1.5 15t-9.5 7q0 8 -7 16.5t-15 16.5q-8 42 -15 81.5t-7 72.5v33q0 25 2.5 53.5t19.5 45.5q8 4 12.5 11.5t5.5 13.5t-1 9t-6 -1q8 8 13 14.5t9 10.5t9 6t13 2q6 0 10 -3q3 -2 4 -6.5t-3 -12.5q0 -8 -7 -22t-15 -22
q-17 -33 -19.5 -66t-2.5 -66q-8 -8 -8 -28.5t8 -37.5q0 -33 8 -60.5t25 -60.5v-11l11 -11v-11l11 -11h-11h11v-11q8 -8 15 -16.5t7 -16.5l11 -11l-11 11v11v-11zM103 176q-8 0 -9.5 1.5t-1.5 9.5zM158 55h22v-11l-22 22q-8 0 -11 5.5t-11 5.5q0 6 5 4q3 -1 6 -4v-11h11
q6 0 4 -6q-1 -3 -4 -5zM224 33v-11q-8 8 -11 9.5t-11 1.5h11h11zM180 66h-11h11zM180 55v11l11 -11h-11zM620 440v11v-11zM620 462v-11v11zM620 462v11v-11zM576 319v11h11q-8 -8 -12.5 -16.5t-20.5 -16.5v-11h-11zM620 418v-11v22v-11z" />
    <glyph glyph-name="h" unicode="h" horiz-adv-x="741" 
d="M643 220h11h-11q-17 8 -26.5 16.5t-17.5 16.5h-11h-11q0 2 -1 5q-2 6 -10 6h-11l-11 11h-33q-33 17 -72.5 25t-81.5 8h-11q0 -62 -9.5 -118t-26 -98t-38.5 -67t-47 -25q-21 0 -39 19.5t-33.5 53.5t-28 80t-20.5 100q-8 -8 -22 -16.5t-22 -16.5q-13 -5 -19.5 -1.5
t-9.5 8.5q-4 6 -4 15q0 8 4 13t10 10.5t14 12.5t16 19q-4 -8 -2.5 -10.5t6.5 -1.5t13 4.5t16 7.5v22q0 5 -1 30t0.5 59.5t7.5 73t19.5 70.5t36 53.5t58.5 21.5q45 0 71.5 -30.5t40 -74t17 -90.5t3.5 -80q25 0 55 -7t55 -15q17 0 26.5 -7t17.5 -15q8 0 20.5 -1.5t12.5 -9.5
q8 0 14 -2t11 -4q4 -3 8 -5q-8 0 -12.5 5.5t-20.5 5.5q0 6 5 -1q3 -4 6 -10h11q8 0 11 -5.5t11 -5.5t10 -6q1 -3 1 -5q8 0 10 -6q1 -3 1 -5h11l33 -33q-8 8 -11 9.5t-11 1.5q0 -3 1 -6q2 -5 10 -5zM511 286q8 -8 9.5 -8t1.5 8h-11zM577 253v11v-11q8 0 9.5 1.5t1.5 9.5z
M665 198v-11v11zM533 253q37 0 55.5 -15.5t25.5 -35t7 -37.5v-22q0 -21 -6 -40.5t-16 -35t-24.5 -25t-30.5 -9.5q-17 -4 -31 3t-25.5 21.5t-19.5 34t-12 40.5q0 4 -0.5 22t6 38.5t22.5 38.5t49 22zM566 330q-17 -5 -26 2t-13 16q-5 11 -5 26q0 25 12.5 40t20.5 15
q17 0 30.5 -15t13.5 -40q3 -12 0 -22q-2 -8 -9 -15t-24 -7zM665 198h11h-11zM709 154q8 0 11 -1.5t11 -9.5h-11q-8 8 -9.5 11t-1.5 11v-11zM676 220q0 -8 7 -16.5t15 -16.5h-11q0 8 -1.5 15t-9.5 7l-11 11q0 4 -1.5 4.5t-4 0.5t-4 1t-1.5 5q-4 0 -6.5 3.5t-3.5 6.5t-1 4
t0 -3q8 -8 16.5 -11t16.5 -11z" />
    <glyph glyph-name="i" unicode="i" horiz-adv-x="252" 
d="M144 583q-33 -8 -62 -7t-37 18q-17 25 -3 48t47 40q0 4 11 12t26.5 11t32.5 -3t29 -31q12 -21 6.5 -37.5t-16.5 -27.5q-13 -13 -34 -23zM210 275q0 -58 -6 -108t-17.5 -87t-27.5 -58.5t-37 -21.5q-17 0 -31 21.5t-25.5 58.5t-19.5 87t-12 108q0 5 -0.5 28t1 53.5t6 64.5
t14.5 62.5t26 47.5t41 19q27 0 45 -19t29 -47.5t15.5 -62.5t5 -64.5t-1.5 -53t-5 -28.5z" />
    <glyph glyph-name="j" unicode="j" horiz-adv-x="674" 
d="M578 198q8 0 9.5 1.5t1.5 9.5zM633 396q8 -41 2.5 -77t-13.5 -77q0 -8 -7 -22t-15 -22v-22q-8 -8 -9.5 -11t-1.5 -11q0 8 1.5 11t9.5 11q0 6 -6 4q-3 -1 -5 -4v-11q0 -8 -6 -10q-3 -1 -5 -1v-11q-3 0 -6 -1q-5 -2 -5 -10v-11h-11q0 -7 -6 -15q-3 -4 -5 -7v11v-11h-11
l11 11q0 8 5.5 16.5t5.5 16.5h11v11v11q8 0 10 5q1 3 1 6v11v22q8 25 15 56.5t7 64.5v66q-8 33 -12.5 60.5t-20.5 60.5q-8 8 -16.5 22t-16.5 22q0 14 5 19q3 3 6 3q8 0 13 -2t9 -6t9 -10.5t13 -14.5q-8 8 -2.5 -4t13.5 -29q8 -8 13 -20t8 -24t5.5 -24t6.5 -20v-33zM545 99
q2 3 5 4q6 2 6 -4l-22 -22l-11 -11q-8 0 -10 -6q-1 -3 -1 -5q0 8 5 10q3 1 6 1l11 11q0 8 5 10q3 1 6 1v11zM490 33h-11h11zM490 44q0 2 1 5q2 6 10 6q-8 -8 -9.5 -8t-1.5 8v-22l-11 11h11zM281 11q8 -8 16.5 -9.5t16.5 -1.5q-8 0 -16.5 5.5t-16.5 5.5zM94 154q-3 3 -6 7
q-5 7 -5 15q2 -3 5 -7q6 -8 6 -15zM567 220q-17 -45 -43 -85t-60 -70t-75 -47.5t-86 -17.5q-8 0 -23 1.5t-32 9.5h-22v11h-11q-3 0 -6 1q-5 2 -5 10h-11q-8 8 -16.5 11t-16.5 11l11 -11h11h-11v11l-11 11l11 -11h-11l-11 11q0 2 -1 5q-2 6 -10 6q-17 25 -32 51t-23 59v22
q0 8 1.5 16.5t9.5 16.5q8 12 22 18.5t30.5 6.5t34 -6.5t34.5 -18.5q0 -4 13 -16t24 -29.5t14 -39.5t-18 -47q-33 -50 -66 -33q0 -8 1.5 -9.5t9.5 -1.5t16.5 -5.5t16.5 -5.5l11 -11h22q-17 8 -27.5 11t-27.5 11q8 0 24.5 -7t41.5 -15h55q17 8 38.5 17.5t38.5 26.5
q41 25 68 62.5t40.5 82t13.5 92.5t-12 93q-8 17 -15 33t-7 33l-22 22q-25 -12 -57.5 -15.5t-62.5 -2.5t-52 4t-26 3q-25 0 -49.5 3.5t-47 9t-43 11t-36.5 9.5q-3 0 -6 1q-5 2 -5 10q-25 17 -40 27.5t-15 27.5q0 16 15.5 30.5t43.5 24.5t66.5 16t83.5 6q8 0 16.5 5.5
t16.5 5.5q25 0 48 -5.5t40 -5.5q25 -4 52 -11t49.5 -18t37.5 -28t15 -42q49 -66 66 -132q8 -50 7 -106t-18 -114z" />
    <glyph glyph-name="k" unicode="k" horiz-adv-x="842" 
d="M721 121v-11v11zM699 66h-11h11zM765 110h-11q-8 0 -16.5 -5.5t-16.5 -5.5q-8 -8 -12.5 -9.5t-20.5 -1.5q0 -8 5.5 -2.5t5.5 13.5q8 0 10 -6q1 -3 1 -5q8 8 11 9.5t11 1.5t11 5.5t11 5.5h11zM677 44q8 0 11 5.5t11 5.5h11h-11q-8 -8 -16.5 -9.5t-16.5 -1.5
q-8 -8 -17.5 -9.5t-26.5 -1.5q-4 0 -3 0t4 1t6.5 3.5t3.5 6.5q8 0 11 -5.5t11 -5.5q0 8 5 10q3 1 6 1h11zM666 66h11h-11zM798 143q-3 -3 -7 -6q-7 -5 -15 -5q8 8 11 9.5t11 1.5zM765 561q4 0 13 -2.5t17 -8.5t13 -17t1 -27q-5 -17 -14 -22.5t-18 -5.5q-11 0 -23 6
q-25 8 -38.5 23t-5.5 32q0 2 1 5q2 6 10 6q8 8 22 9.5t22 1.5zM721 121h11h-11zM765 77h-11h11zM754 77h-22q8 0 8 -1.5t-8 -9.5v11h22zM798 561h11h-11zM699 572q0 -3 -1 -6q-2 -5 -10 -5q-6 2 -10 5q-8 6 -1 6h33h33h11h-11h-22h-22zM644 44q-8 0 -22 -1.5t-22 -9.5h-11
h-11q-8 8 -16.5 4t-16.5 -4h-22q-3 3 -6 4q-5 2 -5 -4h-11h44h-44q-8 0 -17.5 1.5t-26.5 9.5q-8 0 -23 -4t-32 4q-25 8 -55 16.5t-55 16.5q-4 -17 -12 -31t-17 -24t-19 -16t-18 -6q-21 0 -37.5 15.5t-30 42.5t-24 63t-18.5 77q-33 33 -33 66l-9.5 19t-11 18t-9 7.5
t-3.5 -11.5q0 16 -3.5 27t-6.5 19.5t-4 15.5t3 15q4 0 8.5 3t9.5 5t11.5 1t14.5 -9q0 -8 12.5 -23t20.5 -32q0 33 3.5 73t14.5 75.5t33 59t59 23.5q33 0 53 -20t31 -50t16.5 -64.5t9.5 -63.5q8 8 11 16.5t11 16.5q25 42 63 69t80 52q8 8 22 11t22 11q8 0 16.5 5.5t16.5 5.5
q8 8 16.5 9.5t16.5 1.5q-8 0 -16.5 -1.5t-16.5 -9.5h11q0 2 1 5q2 6 10 6h11h11h11l11 11h11h44q-8 0 -11 -1.5t-11 -9.5v11v-11q2 0 5 1q6 2 6 10h11l-11 -11q-8 0 -22 -1.5t-22 -9.5h-11h-11h11q-8 0 -11 -5.5t-11 -5.5h-11v-11h-11q-8 0 -11 -5.5t-11 -5.5
q-33 -17 -60.5 -40t-60.5 -48q-17 -17 -27.5 -33t-27.5 -33q-8 -17 -18 -31.5t-19 -30t-17 -32.5t-12 -38v-44q3 -3 7 -6q7 -5 15 -5l66 -33q42 -17 77 -25t77 -8h22h11q0 -8 5.5 -8t5.5 8h22l-11 -11h11v11h11h55h11h-11h-22h11h11h11q-8 0 -22 -5.5t-22 -5.5
q0 -8 -1.5 -9.5t-9.5 -1.5l-11 11l-11 -11h-11h-11h-11q-8 0 -13.5 -5.5t2.5 -5.5t16.5 1.5t16.5 9.5q-8 -8 -16.5 -9.5t-16.5 -1.5h-33h-55q-17 0 -33 5.5t-33 5.5q8 0 22 -1.5t22 -9.5h22l22 -11h11h22h-11h11h11h11h55q2 0 5 -1q6 -2 6 -10q0 2 -1 5q-2 6 -10 6v-11
q-8 8 -11 8t-11 -8h11h22zM578 88q-8 0 -11 1.5t-11 9.5q8 0 11 -1.5t11 -9.5zM578 517q-8 0 -10 -6q-1 -3 -1 -5zM479 66h11h-11zM776 561h22h-22z" />
    <glyph glyph-name="l" unicode="l" horiz-adv-x="568" 
d="M35 44h11h-11h-11h11zM79 22q-8 6 -10 4q-1 -1 -1 -4q0 8 -6 10q-3 1 -5 1h-11h11q3 0 7 -1t15 -10h22h-11h-11zM541 55q8 4 12.5 4.5t6.5 -0.5q3 -1 3 -4q0 -8 -8 -11t-25 -11q4 4 2.5 4.5t-5.5 -0.5t-9.5 -2.5t-9.5 -1.5q0 -8 -28.5 -15t-70.5 -7q-8 -8 -11 -9.5
t-11 -1.5h-143h-44h-22q-11 9 -15 10t-7 1h22h-11h-11h-11h-11h-11h-11v11h-22h11h11h-11h-11h11h33q-3 0 -6 1q-5 2 -5 10t8 11t25 11q-25 33 -41.5 94.5t-24.5 136.5q0 5 -0.5 28t2 53.5t8 64.5t18 62.5t32.5 47.5t50 19q33 0 54.5 -18t35 -46t19 -61t7 -64t-0.5 -54.5
t-5 -31.5q0 -33 -4 -65.5t-10 -61t-14 -53t-16 -40.5h55q66 0 114 -7t73 -15q8 0 16.5 5.5t16.5 5.5zM79 33h-11h11zM79 33h-11h11z" />
    <glyph glyph-name="m" unicode="m" horiz-adv-x="1046" 
d="M598 154v-11v11zM598 77v-11v11zM598 77v22v-22zM587 187v-11v-22h-11q0 -8 5 -15q3 -4 6 -7v-11v11q0 7 -6 15q-3 4 -5 7q0 17 1.5 26.5t9.5 17.5v-11zM653 22v-11v-11q0 8 -4 15t4 7h-11h11zM642 66h11v-11zM653 77h-11h11zM642 88v-11v11zM631 88v-11v-22v-11v11v33
q-8 8 -9.5 16.5t-1.5 16.5t5.5 2.5t5.5 -13.5v-11v-11zM576 209l-11 -11zM576 264q0 -8 5 -10q3 -1 6 -1q-8 0 -9.5 1.5t-1.5 9.5q2 3 5 7q6 8 6 15h-11q0 8 5.5 11t5.5 11h-11q0 8 1.5 15t9.5 7v-44q0 -8 -1.5 -15t-9.5 -7zM246 605q60 5 100 -10t64.5 -41.5t36 -60
t16 -64.5t4 -55.5t-0.5 -32.5q0 -54 -12 -103.5t-34.5 -89t-55.5 -64.5t-74 -29t-76 15t-63 55t-48.5 86t-32.5 108q0 3 -2 23.5t-1 50.5t8.5 65t27 65.5t54 53.5t89.5 28zM565 286v-11v11zM1005 594q8 0 12 -7t-12 -15q0 -4 1.5 -8t1.5 -8.5t-3 -8.5t-11 -8
q-8 0 -16.5 -5.5t-16.5 -5.5q8 -29 11 -60t3 -58t-1.5 -46t-1.5 -23q-4 -58 -14 -108t-24.5 -87t-32.5 -58.5t-39 -21.5q-25 0 -43.5 21.5t-32 58.5t-22 87t-12.5 108v33q-25 -33 -42.5 -66t-34.5 -66q0 -8 -5.5 -11t-5.5 -11v-11q-8 0 -10 -6q-1 -3 -1 -5v-22v11v-11v-11
q-8 -17 -9.5 -27.5t-1.5 -27.5v-11l-11 11h11v22q0 -7 -6 -15q-3 -4 -5 -7v33v11v11q8 0 4 7t-4 15h11v22v11v11q0 -8 -5.5 -16.5t-5.5 -16.5q0 8 1.5 16.5t9.5 16.5q0 8 5.5 16.5t5.5 16.5t1.5 17.5t9.5 26.5q17 42 36 74.5t52 57.5q-8 0 -11 -1.5t-11 -9.5
q-25 -25 -44 -56.5t-44 -64.5q0 -8 -1.5 -11t-9.5 -11v-11l-11 -11v-22v11v-11q-8 0 -9.5 -1.5t-1.5 -9.5t-5.5 -22t-5.5 -22v-11v11v11v-22q-8 8 -5.5 16.5t-5.5 16.5v11q2 0 5 1q6 2 6 10v22q0 4 1.5 4.5t4 0.5t4 1t1.5 5v11v11v11q0 -8 -1.5 -16.5t-9.5 -16.5
q0 8 5.5 16.5t5.5 16.5t5.5 16.5t5.5 16.5q8 8 11 22t11 22q25 42 52 80t69 63l11 11q4 16 12 32t19.5 28.5t25.5 20t31 7.5t32 -7t23 -15q17 0 29 5.5t4 5.5q12 0 21 1.5t15 1.5t10.5 -3t8.5 -11zM642 297v11v-11zM664 231l11 11q-3 0 -6 -1q-5 -2 -5 -10zM565 363l11 -11
v-11v-33q0 8 -5.5 11t-5.5 11v-11v-11h11q-8 0 -10 5q-1 3 -1 6q0 8 -5.5 22t-5.5 22v11h-11h11q0 8 -6 10q-3 1 -5 1v-11v22q0 2 -1 5q-2 6 -10 6v11q0 8 -5.5 11t-5.5 11q-17 33 -40 60.5t-48 60.5q-17 17 -33 27.5t-33 27.5q-17 8 -31.5 18t-30 19t-32.5 17t-38 12
q-8 0 -18 1.5t-19 4t-17 4t-12 1.5q-13 4 -16 10t-2 11q1 6 7 12q4 8 10 11t14.5 3t19 -1.5t22.5 -1.5q-8 0 -7 -1.5t8.5 -4t19 -4t23.5 -1.5t24.5 -5.5t26 -14t28 -18t31.5 -17.5q0 -8 7 -11t15 -11q42 -25 69 -63t52 -80q8 -17 11 -26.5t11 -17.5q0 -8 5.5 -16.5
t5.5 -16.5q8 -8 9.5 -16.5t1.5 -16.5q0 8 -5.5 16.5t-5.5 16.5v-11v-11q8 0 9.5 -7t1.5 -15v-22zM521 440v-11v11zM576 220h-11q8 0 10 -6q1 -3 1 -5h-11v22z" />
    <glyph glyph-name="n" unicode="n" horiz-adv-x="560" 
d="M435 715q-8 0 -10 5q-1 3 -1 6zM424 737v-11v11zM402 781q0 -8 1.5 -9.5t9.5 -1.5h-11v22v-11zM501 484q8 -58 15 -110t7 -110v-33q-4 -17 -6.5 -36.5t-4.5 -38t-4.5 -34t-6.5 -23.5t-6.5 -19t-3.5 -19.5t-1 -11t0 5.5q-8 -25 -11 -40t-11 -15q-3 0 -4 3q-1 2 -1 6.5
t5 12.5q0 8 1.5 17.5t9.5 26.5q-8 0 -10 -6q-1 -3 -1 -5q-8 0 -11 7t-11 15v-11v11q-12 21 -19 54t-11 70t-7 74t-7 66q-8 25 -23 55t-32 55q-17 17 -32 33t-23 33q-17 12 -31.5 26t-30 26.5t-32.5 22t-38 13.5q-8 0 -18 3.5t-20.5 7.5t-20.5 7.5t-18 3.5q-8 8 -9 14t1 11
q3 4 8 8q8 8 15 10.5t14 1.5t16 -4.5t21 -7.5q-8 4 -7 2.5t8.5 -5.5t19 -9.5t23.5 -9.5q12 0 24.5 -7t25 -17.5t25 -22t24.5 -19.5q8 -8 16.5 -15t16.5 -7q25 -25 42.5 -56.5t34.5 -64.5q0 58 2 108t7.5 87t14 58.5t20.5 21.5q0 8 -5.5 11t-5.5 11t-5.5 11t-5.5 11v11v-11
q0 -8 5 -15q3 -4 6 -7q8 -8 9.5 -11t1.5 -11q17 -8 26.5 -49t17.5 -116q8 -8 9.5 -23t1.5 -32zM446 66v-11v11zM149 583q38 0 63 -18t39.5 -45.5t21 -60t8.5 -62t1 -51.5t-1 -27q-4 -54 -14.5 -102t-27 -84t-39 -57t-51.5 -21q-25 0 -45.5 21t-36 57t-25.5 84t-14 102v27
t2 51.5t9 62t20 60t35 45.5t55 18z" />
    <glyph glyph-name="o" unicode="o" horiz-adv-x="735" 
d="M69 429v-11v11zM58 407q0 2 1 5q2 6 10 6zM696 374q0 -8 4 -16.5t-4 -16.5v-33v-33q-8 -42 -19 -80t-36 -63q-8 -8 -11 -16.5t-11 -16.5t-15 -18t-14 -19t-16 -17t-21 -12q-8 0 -17.5 -5t-15.5 -10t-7 -8t7 1q-17 -8 -27.5 -13.5t-27.5 2.5q-3 3 -4 7q-1 3 -1 6.5t5 8.5
q8 8 23 20.5t32 12.5q25 17 44 40t44 48l33 66q8 25 16.5 55t16.5 55v22v11h11h-11h11v11v11v11v11q0 8 -1.5 16.5t-9.5 16.5l11 11v-11v-11v22q0 -8 1.5 -16.5t9.5 -16.5v-11v-22v-11v-11v-11v33zM674 319q3 2 4 5q2 6 -4 6v-11zM69 418q0 8 5 10q3 1 6 1zM102 451
q-8 0 -9.5 -1.5t-1.5 -9.5v11h11zM58 308q0 -4 -1.5 -1t-4 9t-4 13.5t-1.5 11.5t3.5 6.5t7.5 4.5t7.5 4.5t3.5 6.5q0 8 1.5 16.5t9.5 16.5q0 6 5 4q3 -1 6 -4q8 17 11 26.5t11 17.5q8 0 11 5.5t11 5.5l-11 -11q-17 -17 -26.5 -27.5t-17.5 -27.5t-15 -34.5t-7 -42.5zM630 264
q-8 -50 -39.5 -96.5t-81.5 -79.5q-37 -33 -83 -53.5t-94.5 -26.5t-96.5 2.5t-89 33.5q-8 8 -22 17.5t-22 26.5q-8 0 -11 7t-11 15q0 7 -6 15q-3 4 -5 7l-11 11q0 8 -5.5 16.5t-5.5 16.5v-11v11l-11 11v11v11v11q-8 25 -8 56.5t8 64.5q2 3 5 7q6 8 6 15v-11h-11v-11
q-8 -8 -9.5 -22t-1.5 -22l11 11q0 8 5.5 22t5.5 22q-8 -17 -8 -38.5t8 -38.5v-11v-22v-22q8 -8 16.5 -17.5t16.5 -26.5h-11l33 -33v-22q4 -4 11.5 -8t13.5 -6t9 -1.5t-1 4.5l-55 55q17 -8 27.5 -23t27.5 -32q8 -8 23 -16.5t32 -16.5q25 -8 45.5 -9.5t53.5 -1.5
q49 -4 94 12.5t81 46.5t62 69.5t38 80.5q8 25 9.5 42.5t1.5 34.5q0 42 -15 81.5t-40 72.5q-8 -42 -22 -72t-22 -38q-21 -41 -48.5 -73.5t-58.5 -52t-63 -24.5t-61 7t-47.5 38t-27 61t-6 77.5t14.5 87.5q0 4 4 15.5t11 26t17.5 30t22.5 27.5q-4 4 -9 10t-5 13.5t7.5 15.5
t28.5 16h66q17 8 38.5 8t38.5 -8q25 -8 47 -16.5t30 -16.5q54 -29 91 -71t56.5 -91.5t21 -103.5t-14.5 -108zM135 66q0 -8 7 -15t15 -7q-8 8 -11 15t-11 7zM663 462h11h-11zM674 462v-11v11zM685 462q0 8 -6 10q-3 1 -5 1v11q9 -11 10 -15t1 -7q8 -8 9.5 -16.5t1.5 -16.5
t-5.5 -2.5t-5.5 13.5v11v11zM652 517v11v-11zM652 517l11 -11q-8 0 -9.5 1.5t-1.5 9.5z" />
    <glyph glyph-name="p" unicode="p" horiz-adv-x="734" 
d="M404 220v-11l-11 11h11zM426 198h22h-22zM415 319q0 -25 -13.5 -40t-30.5 -15q-8 0 -20.5 15t-12.5 40q-3 15 0 27q2 11 9 19.5t24 8.5q16 0 25 -7t13.5 -16.5t5 -18.5t0.5 -13zM338 275q0 8 1.5 8t9.5 -8q-8 0 -15 8t-7 25v11q0 -8 5.5 -22t5.5 -22zM426 209h-11h11z
M426 209h-11h11zM569 638q33 -21 60.5 -51t45 -66t22.5 -76.5t-7 -81.5q0 -8 -5.5 -22t-5.5 -22q-8 -8 -9.5 -11t-1.5 -11h-11h11h-11q0 -8 -5.5 -11t-5.5 -11l-22 -22q0 8 1.5 9.5t9.5 1.5q-8 0 -10 -6q-1 -3 -1 -5h-11h11l-11 -11h-11v-11h-11q-17 -17 -40 -25t-48 -8
q-7 0 -11 1q-11 2 -11 10q0 -3 1 -6q2 -5 10 -5v11q17 -8 26.5 -8t17.5 8h-11h-44q17 0 33 7t33 15h11l11 11h11l33 33q8 8 11 15t11 7q0 8 5 10q3 1 6 1q0 4 1.5 11.5t2.5 13.5t0.5 9t-4.5 -1q-8 -17 -16.5 -32t-16.5 -23q8 8 16.5 23t16.5 32q0 8 5.5 22t5.5 22
q0 25 -1.5 42.5t-9.5 34.5q0 8 -5.5 11t-5.5 11q-8 -17 -27.5 -27t-46.5 -15.5t-59 -5.5t-65 4q-4 0 -32 5t-60 17t-58 33.5t-26 54.5q-17 -17 -26.5 -38.5t-17.5 -38.5q-8 0 -10 -6q-1 -3 -1 -5q17 -33 32 -79.5t23 -96.5q0 -6 3.5 -27.5t6.5 -51.5t2.5 -64t-7.5 -64
t-24 -52t-47 -27q-33 -6 -56.5 9.5t-39.5 41.5t-26 59t-16.5 63t-9.5 52t-6 28q-4 58 -2 110t10 91t22.5 62t35.5 23q17 8 32 1.5t23 -23.5q33 75 94.5 120t136.5 45q50 0 92 -9.5t84 -34.5zM679 352q8 0 9.5 7t1.5 15q0 -7 -6 -15q-3 -4 -5 -7zM492 209q-8 0 -11 5.5
t-11 5.5h-22h-11q-10 8 -21 10q-6 1 -12 1l-22 22l11 -11q17 -8 32 -11t23 -11h66q4 4 2.5 3t-5.5 -4t-9.5 -6.5t-9.5 -3.5zM426 209v-11v11zM118 561l11 11q0 -3 -1 -6q-2 -5 -10 -5zM162 616q0 8 5.5 11t5.5 11l11 11q0 2 1 5q2 6 10 6q2 0 5 1q6 2 6 10h11v11l-22 -22
l22 22q3 0 7 1q7 2 15 10q3 2 7 5q8 6 15 6q33 17 60.5 25t60.5 8h22q12 0 24.5 1.5t23.5 1.5t21.5 -3t18.5 -11q4 -4 11 -8t12.5 -6t6 -1.5t-7.5 4.5q17 -8 25 -11t8 -11q8 -8 2.5 -15t-13.5 -7q-8 8 -22 11t-22 11q-25 8 -49.5 9.5t-49.5 1.5h-55q-33 -8 -53.5 -16.5
t-45.5 -16.5l-11 -11h-11l-11 -11h-11h11h-11v-11q-8 0 -16.5 -7t-16.5 -15l11 11q-8 0 -10 -6q-1 -3 -1 -5zM239 671h-11h11zM140 605v-11h-11h11v22q8 0 11 5.5t11 5.5v-11h-11v-11h-11zM151 594h-11h11zM151 605v-11v11z" />
    <glyph glyph-name="q" unicode="q" horiz-adv-x="660" 
d="M58 297v11v-11zM608 473q17 -50 18 -106t-7 -114q-17 -42 -34.5 -76t-42.5 -67v-11q4 0 10.5 -12.5t7.5 -29t-7 -33t-33 -24.5q-33 -8 -51 4t-26 29q-25 -8 -49.5 -15t-49.5 -7h-66q-8 0 -16.5 5.5t-16.5 5.5t-11 5.5t-11 5.5h-11q-8 8 -16.5 11t-16.5 11l11 -11
q0 8 -6 10q-3 1 -5 1v11v-11q-8 0 -11 5.5t-11 5.5v11h-11q-50 33 -66 99q-3 6 -4 12q-1 5 -1 10.5t5 10.5v-11q-3 0 -4 -1t-1 -3.5t5 -6.5v-11q0 -8 7 -16.5t15 -16.5v11h-11q0 8 -5.5 17.5t-5.5 26.5q4 -8 8.5 -18t9.5 -19t11.5 -17t14.5 -12q2 0 5 -1q6 -2 6 -10
q2 0 5 -1q6 -2 6 -10q2 -3 5 -7q6 -8 6 -15q8 0 22 -1.5t22 -9.5q0 -3 1 -6q2 -5 10 -5t16.5 -1.5t16.5 -9.5q3 -3 7 -6q7 -5 15 -5q4 0 11 1.5t12.5 4t6 4t-7.5 1.5q-17 0 -34.5 5.5t-42.5 5.5q25 0 42.5 -5.5t34.5 -5.5h66q25 8 42.5 17.5t34.5 26.5q0 8 2 17.5t6 18
t10.5 14t14.5 5.5q16 16 33 0q25 29 39.5 65t19.5 74t1 76t-16 71l-33 66q-25 41 -63.5 60.5t-79.5 27.5q8 -17 14.5 -34.5t10.5 -33t6 -27t2 -15.5q8 -45 6 -87.5t-14.5 -76.5t-35 -57.5t-55.5 -31.5t-63.5 3t-57.5 35.5t-49.5 60.5t-38.5 77q0 4 -3.5 15.5t-7.5 28
t-7.5 36.5t-3.5 41q-4 0 -11 1t-11 6t-2.5 16t13.5 32q8 8 23 16.5t32 16.5q8 17 24.5 26.5t41.5 17.5t42.5 15t34.5 7q62 8 117 -5t100.5 -42t79.5 -71t55 -91zM322 11h22q-7 3 -11 4q-11 2 -11 -4zM80 308q2 3 5 7q6 8 6 15v-22q-17 -33 0 -66q0 -17 7 -33t15 -33
q4 -8 1 -9t-8 2t-10 8.5t-5 9.5q-5 4 -5 8t1 7q1 4 4 7q0 17 -5.5 26.5t-5.5 17.5v55zM58 242v11v-11zM58 264v11v-11zM58 264v-11v11z" />
    <glyph glyph-name="r" unicode="r" horiz-adv-x="744" 
d="M391 286q0 -8 1.5 -5.5t9.5 -5.5q-3 0 -6 1q-5 2 -5 10zM633 22q8 -8 9.5 -11t1.5 -11v11q-8 0 -9.5 1.5t-1.5 9.5zM424 264l-11 11q8 0 10 -6q1 -3 1 -5zM567 693q33 -21 60.5 -50.5t45 -65t22.5 -73.5t-7 -75q0 -17 -5.5 -27.5t-5.5 -27.5q-8 0 -10 -6q-1 -3 -1 -5
l-11 -11h11h-11l-11 -11v-11q-8 -8 -15 -11t-7 -11v11h11h-11v-11h-11h11h-11q0 -3 -1 -6q-2 -5 -10 -5t-9.5 -1.5t-1.5 -9.5q-17 -8 -40 -15t-48 -7h-22h11h44l-11 11q-8 -8 -8 -9.5t8 -1.5h-44q17 0 33 7t33 15l11 11h11q2 0 5 1q6 2 6 10q8 0 16.5 7t16.5 15v11q8 0 11 7
t11 15l11 11q0 4 1.5 11t2.5 12.5t0.5 6t-4.5 -7.5q-8 -17 -16.5 -27.5t-16.5 -27.5q8 17 16.5 27.5t16.5 27.5q0 17 5.5 27.5t5.5 27.5t-1.5 34.5t-9.5 42.5l-11 11q-8 -12 -27.5 -22t-46.5 -16.5t-59 -8t-65 2.5q-4 0 -32 5t-60 17t-58 33.5t-26 54.5q-17 -17 -26.5 -33
t-17.5 -33q-8 -8 -9.5 -11t-1.5 -11q17 -33 32 -74t23 -91q0 -8 5.5 -37t5.5 -62q8 0 16.5 -5.5t16.5 -5.5h33q33 0 71.5 -13.5t71.5 -30.5l33 -33q8 0 11 -1.5t11 -9.5q8 0 15 -7t7 -15l-22 22q-5 4 -5 3t1 -4q1 -4 4 -10h11q8 0 10 -6q1 -3 1 -5q8 -8 9.5 -11t1.5 -11h11
l11 -11q2 -3 5 -7q6 -8 6 -15l-11 11q0 -3 1 -6q2 -5 10 -5h-11q-8 8 -11 16.5t-11 16.5h-11v11h-11l11 -11l-11 11l-11 11h-11q-8 8 -11 9.5t-11 1.5q-25 17 -51 32t-59 23q-17 0 -33 5.5t-33 5.5h-55q0 -25 -3 -50.5t-11 -47t-23 -37t-40 -19.5q-33 -3 -56.5 13.5
t-39.5 43t-26 59t-16.5 63t-9.5 54t-6 31.5q-4 54 -2 103.5t10 89t22.5 64.5t35.5 29q17 0 32 -7t23 -15q16 33 40.5 61.5t54.5 50t64.5 35.5t71.5 18q50 0 92 -15t84 -40zM512 143h-11h11zM677 407q8 8 9.5 11t1.5 11q-3 -3 -6 -7q-5 -7 -5 -15zM611 55h-11h11zM468 275
h-22q-8 0 -10 5q-1 3 -1 6q-8 0 -20.5 1.5t-12.5 9.5q-8 0 -11 5.5t-11 5.5q8 0 10 -6q1 -3 1 -5q17 -8 32 -9.5t23 -1.5q17 -8 33 -4t33 4q4 0 2.5 -1.5t-5.5 -4t-9.5 -4t-9.5 -1.5h-22zM424 264q8 0 11 -1.5t11 -9.5q-8 8 -11 9.5t-11 1.5zM424 264h-11h11zM622 66v-22h11
h-11v22h-11v11h-11q0 8 -4 15t4 7q8 -8 11 -16.5t11 -16.5zM138 671v-11q0 -8 -6 -10q-3 -1 -5 -1h11v22l22 22v-11h-11v-11h-11zM611 55v-11v11zM160 682l11 11v11h11q0 2 1 5q2 6 10 6q0 8 5 10q3 1 6 1h11v11q-8 0 -11 -5.5t-11 -5.5q8 0 11 5.5t11 5.5q3 2 7 5q8 6 15 6
q0 8 7 11t15 11q33 8 60.5 20.5t60.5 12.5h22q25 0 48 -1.5t40 -9.5q4 -8 11 -12.5t12.5 -5.5t6 1t-7.5 6q8 -8 14.5 -13t10.5 -8t6 -5.5t2 -6.5q4 0 4.5 -3.5t-1.5 -6.5t-6 -4t-8 3q-8 0 -22 5.5t-22 5.5q-25 17 -49.5 19.5t-49.5 2.5q-17 0 -32 -1.5t-23 -9.5
q-33 0 -53.5 -8t-45.5 -25h-11l-11 -11h-11q0 -3 -1 -6q-2 -5 -10 -5h11h-11q-8 -8 -16.5 -15t-16.5 -7v-11v11h11h-11zM237 726h-11h11zM369 330q-4 -4 -9.5 -1t-11 10.5t-9 17t-3.5 17.5q0 4 -1 13t1 18.5t9 16.5t24 7q17 4 25 -2.5t13 -15.5q4 -11 6 -26q0 -25 -13.5 -40
t-30.5 -15zM325 374v11v-11zM325 374q0 -8 5.5 -16.5t5.5 -16.5h11v-11q-8 8 -15 16.5t-7 16.5v11zM116 627q8 0 9.5 1.5t1.5 9.5v-11q-3 0 -6 -1q-5 -2 -5 -10v11zM149 649h-11h11z" />
    <glyph glyph-name="s" unicode="s" horiz-adv-x="580" 
d="M298 605h-11h22v11h11q-8 -8 -11 -9.5t-11 -1.5zM67 374l11 11zM89 396l-11 -11v11h11zM78 385h11h-11zM353 638l11 11v-11h-11zM320 627q0 -8 -7 -15t-15 -7q-4 0 -9.5 0.5t-11 3.5t-9 10t-3.5 19q4 8 10 11t11 3q6 0 12 -3q8 0 15 -7t7 -15zM177 418h-11q16 16 33 0h11
h-33zM210 418h11h-11zM364 682l-11 -11v-11v-11q-8 0 -10 -6q-1 -3 -1 -5l-11 -11l11 11q2 3 5 7q6 8 6 15v33q0 6 5 -1q3 -4 6 -10zM144 517v11v-11zM364 649h-11h11zM364 649v11v-11zM507 187q-17 -42 -42.5 -73t-67.5 -48q-33 -21 -69.5 -31t-72.5 -7.5t-70 17t-63 43.5
l-33 33q-8 8 -9.5 11t-1.5 11h-11q0 8 -1.5 11t-9.5 11v11q-3 3 -6 7q-5 7 -5 15v11q-4 12 -7.5 26.5t-4.5 28.5t1.5 28.5t10.5 26.5v11q3 2 7 5q8 6 15 6q0 8 7 11t15 11t15 16.5t7 16.5h22h-11l-33 -33q8 8 15 10q4 1 7 1q41 16 72.5 16t55 -10.5t40 -27.5t27 -35
t16.5 -33t9 -20q8 -25 12 -51t3 -49.5t-7.5 -43.5t-18.5 -32q25 4 45.5 15.5t37 28t29 36.5t20.5 41q0 17 1.5 27.5t9.5 27.5q4 25 -2.5 47.5t-18 44.5t-24.5 42.5t-21 41.5q-12 12 -28.5 22t-29 15t-16.5 4.5t8 -8.5q-21 12 -36 17.5t-27.5 8.5t-23.5 6.5t-23 11.5h-11
q0 8 -6 10q-3 1 -5 1q-25 8 -43.5 24t-29.5 35.5t-15 41t0 42.5q0 25 8 48t25 40q16 16 36 28.5t41 18.5t40.5 5.5t36.5 -8.5q8 -8 15 -11t7 -11h11v-11h11v-11q8 0 9.5 -1.5t1.5 -9.5v11v-11v-11h11q0 -8 1.5 -14.5t2.5 -13t0.5 -13t-4.5 -14.5v-11v11v22v-11v-22v44h-11
v11v11q-3 0 -6 1q-5 2 -5 10l-11 11q0 2 -1 5q-2 6 -10 6q-3 3 -6 4q-5 2 -5 -4q8 0 15 -7t7 -15q0 8 -7 15t-15 7q0 8 -7 9.5t-15 1.5h-44q-42 -8 -70.5 -38t-28.5 -72v-22q0 -17 5.5 -29.5t13.5 -23t18 -19t18 -16.5q7 -8 15 -10q4 -1 7 -1h11h11h22h33q2 0 5 -1
q6 -2 6 -10q25 0 53.5 -13.5t45.5 -30.5q37 -29 62 -67t37 -79t12 -83t-12 -79zM309 792l-11 11q0 -8 5 -10q3 -1 6 -1zM56 187v11h-11zM111 99q2 -3 5 -7q6 -8 6 -15q0 8 -5.5 11t-5.5 11zM562 253v-22q-8 0 -9.5 -7t-1.5 -15v-22q-8 -33 -23 -59t-32 -51l-11 -11
q-17 -17 -27.5 -30.5t-27.5 -13.5q-8 -4 -15.5 -8t-12 -7t-3.5 -5t9 -2q-12 0 -19 -1.5t-11 -2.5t-7 -0.5t-7 4.5q-4 0 -7.5 2t-4.5 5t1.5 7t10.5 8q8 8 16.5 11t16.5 11q25 8 42.5 23t34.5 32q8 8 16.5 17.5t16.5 26.5t16.5 40t16.5 48v11v11v11v11h11h-11q16 16 0 33
l11 11v-11v-11v22v-33v-11l11 -11h-11v-11v-11q0 -3 1 -6q2 -5 10 -5v22zM540 220v11v-11zM540 264h11h-11zM353 627v11v-11zM540 363l-11 11v11v-22q0 8 5.5 8t5.5 -8zM551 330v11v11v-22q0 -8 5.5 -11t5.5 -11q0 -5 -2 -5t-4 1q-3 1 -5 4v11v11zM540 341v-11v11zM89 594
v11q-8 17 -9.5 33t-1.5 33v11q8 17 11 26.5t11 17.5q0 4 1.5 8t2.5 6t0.5 1.5l-4.5 -4.5q8 8 11 15t11 7q2 0 5 -1q6 -2 6 -10q-8 -8 -11 -15t-11 -7q-8 -8 -9.5 -23t-1.5 -32q0 -8 -5.5 -11t-5.5 -11q8 -17 9.5 -32t1.5 -23v-11h11v-11v-11l11 -11q-3 0 -6 1q-5 2 -5 10
q-3 0 -6 1q-5 2 -5 10v11v-11v11q-8 0 -10 5q-1 3 -1 6zM122 539q2 0 5 -1q6 -2 6 -10q0 8 -6 10q-3 1 -5 1q0 2 -1 5q-2 6 -10 6h11v-11zM100 407q0 -3 -1 -6q-2 -5 -10 -5q8 8 11 9.5t11 1.5h-11z" />
    <glyph glyph-name="t" unicode="t" horiz-adv-x="851" 
d="M777 660q-5 0 -5 -2t1 -4q1 -3 4 -5h-11zM777 638q8 8 11 9.5t11 1.5q0 8 5 10q3 1 6 1l-11 -11q-3 -3 -7 -6q-7 -5 -15 -5q-8 -8 -16.5 -11t-16.5 -11q-5 0 -5 1.5t1 3.5q1 3 4 6h22q0 8 1.5 9.5t9.5 1.5zM744 638q-8 -8 -16.5 -15t-16.5 -7l-11 -11h-11q-8 0 -11 -1.5
t-11 -9.5h-22h-11q-8 0 -13.5 -5.5t2.5 -5.5t16.5 5.5t16.5 5.5q-8 -8 -16.5 -9.5t-16.5 -1.5t-22 -1.5t-22 -9.5q-8 0 -23 -5.5t-32 -5.5q16 -33 23.5 -72t9.5 -74t1 -61.5t-1 -34.5q-4 -66 -16 -124t-29.5 -101.5t-39.5 -68.5t-47 -25t-45.5 25t-36 68.5t-25.5 101.5
t-14 124q0 4 -1 30t1 62t9 76.5t24 73.5q-8 0 -22 5.5t-22 5.5h-33q-17 4 -34.5 8t-34 8.5t-30.5 8.5t-22 8q-17 8 -26.5 15t-17.5 7q0 8 -7 11t-15 11l11 -11l-11 11q-17 8 -23.5 8t1.5 -8q-8 8 -16 13t-14 9t-10 9t-4 13q3 6 8 10q4 3 10.5 4t14.5 -3h11h22q4 -4 12 -10
t17 -12t19 -12t18 -10q8 0 11 -1.5t11 -9.5q25 -8 56.5 -11t64.5 -11q25 -8 44 -9.5t44 -1.5q17 8 27.5 15t27.5 7t32 -7t23 -15q17 0 40 5.5t48 5.5q3 0 7 1q7 2 15 10h11h11h11q8 0 11 5.5t11 5.5l-11 -11h11v11h11q17 8 27.5 11t27.5 11h22h-11h-11l-11 -11q8 0 15 1.5
t7 9.5q-8 -8 -16.5 -15t-16.5 -7q0 -8 -6 -10q-3 -1 -5 -1h-11q-8 0 -11 -5.5t-11 -5.5t-11 -1.5t-11 -9.5q-3 3 -6 4q-5 2 -5 -4q-4 0 -8 -1.5t-6 -2.5t-1.5 -0.5l4.5 4.5q8 0 16.5 1.5t16.5 9.5q-8 -8 -16.5 -11t-16.5 -11h-44q-3 0 -6 -1q-5 -2 -5 -10q8 0 17.5 5.5
t26.5 5.5h22h11h11h-11h11h11v11h22h11q17 8 32 11t23 11h22h-11q-7 0 -15 -6q-4 -3 -7 -5q8 0 15 1.5t7 9.5zM557 627h22h-22zM579 605q8 -8 11 -8t11 8h-22zM656 616h11h-11zM843 693h11h-11zM843 693v-11h-22h11h-11q8 0 15 1.5t7 9.5zM821 748q12 -8 13.5 -16
t-2.5 -15.5t-11 -13.5t-11 -10q-8 -8 -23 -13.5t-32 2.5v-11q-8 -8 -17.5 -11t-26.5 -11l11 11h11q8 8 11 9.5t11 1.5v11h-11q-17 8 -17 23t17 32q10 9 22 14q11 4 24.5 4.5t30.5 -7.5zM788 660h-11h11z" />
    <glyph glyph-name="u" unicode="u" horiz-adv-x="644" 
d="M437 33l11 11h11h-11q0 -8 -7 -11t-15 -11q-3 0 -7 -1q-7 -2 -15 -10l11 11h11zM437 44h-11h11zM536 660q12 -17 26 -45.5t25 -61.5t18.5 -66t7.5 -58q0 -70 -15.5 -132.5t-42.5 -112t-63 -83.5t-77 -46q-50 -17 -92 -15.5t-84 26.5q-41 21 -75.5 55t-59.5 78.5t-38.5 97
t-13.5 110.5q0 17 5.5 33t5.5 33q0 8 1.5 16.5t9.5 16.5v11q2 3 5 7q6 8 6 15v11q8 8 11 16.5t11 16.5l-11 -11v-11v11q2 0 5 1q6 2 6 10t1.5 11t9.5 11q8 0 10 5q1 3 1 6q17 25 34.5 42.5t42.5 34.5q6 0 12 -1q11 -2 21 -10h-11h-11q-8 0 -16.5 -5.5t-16.5 -5.5v-11
q8 8 8 9.5t-8 1.5q17 0 26.5 5.5t17.5 5.5q-17 -8 -32 -22t-23 -22q0 -8 -6 -10q-3 -1 -5 -1q0 -3 -1 -6q-2 -5 -10 -5l-11 -11q-8 -8 -11 -23t-11 -32q-8 -8 -9.5 -22t-1.5 -22q-3 -3 -6 -7q-5 -7 -5 -15q-4 -4 -4.5 -13t0.5 -16t2.5 -9.5t1.5 5.5q0 25 7 44t15 44
q-8 -25 -11 -44t-11 -44q0 -17 -4 -33t4 -33q0 -17 2 -30t6 -25t10.5 -25.5t14.5 -29.5q8 -33 30 -63t47 -47q-17 17 -30.5 40t-13.5 48q0 29 17 51.5t45 39t63.5 27t72.5 14.5q4 0 24.5 -1t47 -7t55 -19.5t49.5 -38.5q0 17 5.5 33t5.5 33q8 25 6 52.5t-7.5 46.5t-9.5 22
t0 -22q-4 37 -11.5 59.5t-14.5 39t-12.5 31t-5.5 35.5q0 4 0.5 14t5 16t13 4t25.5 -23zM63 429q0 -8 -4 -16.5t4 -16.5v33zM393 11h-11h-11q-7 -7 -10 -4q-1 1 -1 4q0 -3 -1 -6q-2 -5 -10 -5v11q-8 0 -13.5 -5.5t2.5 -5.5h22h-22h-22h-33q-33 8 -64.5 19t-56.5 36
q-8 0 -15 5q-4 3 -7 6q-17 17 -37.5 34.5t-28.5 42.5t-15 37t-7 -4q-4 12 -8 21t-6 16t-1.5 14t4.5 15q3 5 7 8q3 2 6.5 1t8.5 -9q4 -4 8 -11.5t8.5 -16t8.5 -16t8 -11.5q8 -33 30 -52t47 -36q8 -17 22 -26.5t22 -17.5q16 -4 29.5 -8t25.5 -7t25 -5t30 -2q0 -8 1.5 -9.5
t9.5 -1.5h11h11h11h-11h11h11q8 0 16.5 5.5t16.5 5.5q-8 0 -9.5 -1.5t-1.5 -9.5v11q0 -8 5.5 -8t5.5 8zM316 22h11q0 3 -1 4q-3 3 -10 -4zM481 66q-8 0 -9.5 -1.5t-1.5 -9.5v11h11zM448 55q0 -3 -1 -6q-2 -5 -10 -5v11h11zM283 704l11 -11q-3 0 -6 1q-5 2 -5 10zM228 671h11
h33h44l22 -22q-8 8 -11 9.5t-11 1.5q-8 8 -23 9.5t-32 1.5t-27.5 -7t-27.5 -15q-4 -4 -2.5 -1t5.5 8t9.5 10t9.5 5zM283 704h11h-11zM283 704h-22h22zM316 693h-11h22h-11z" />
    <glyph glyph-name="v" unicode="v" horiz-adv-x="613" 
d="M20 583v-11v-11v-11v33v22v11v-11v-11v-11zM526 748q25 -12 35.5 -47.5t9.5 -87t-12.5 -116t-32.5 -134.5q-3 -6 -12.5 -33t-25.5 -63.5t-37.5 -75.5t-47.5 -69t-56 -44.5t-63 -0.5q-8 0 -15 5q-4 3 -7 6q-17 8 -33.5 26t-33 41.5t-33 51.5t-32.5 57q-3 5 -11.5 23
t-19 42.5t-19 52.5t-11.5 54.5t3 48t25 32.5q25 8 49 -5.5t44.5 -38.5t36.5 -55t24 -55q17 33 25 56.5t8 31.5q29 70 62.5 128.5t66.5 98.5t62.5 59t50.5 11zM31 627l-11 11h11q-8 0 -8 5.5t8 5.5v-22zM196 77q8 -17 22 -32t22 -23q8 -17 8 -19.5t-8 -2.5l-33 33
q4 -4 2.5 -2.5t-5.5 6.5t-9.5 13t-9.5 16q-8 4 -14.5 14t-13 23.5t-13 29t-14.5 32.5q-3 3 -6 7q-5 7 -5 15q-25 49 -37.5 93t-28.5 94q-8 8 -9.5 22t-1.5 22t-1.5 16.5t-9.5 16.5v33v-33l4.5 -4.5t-0.5 1.5t-2.5 6t-1.5 8v11v11v11v11v11l-11 11v33q2 -3 5 -7q6 -8 6 -15
v22h-11v11q0 -8 5 -15q3 -4 6 -7v-44v-11v-11v11q0 -8 5.5 -11t5.5 -11v-11v-11q0 -8 5.5 -11t5.5 -11q8 -42 17.5 -77t26.5 -77q8 -17 16.5 -34.5t16.5 -42.5q17 -33 33 -64.5t33 -56.5zM42 440q0 -8 5 -10q3 -1 6 -1zM31 649v11v-11zM31 583v11v-11zM31 594v11v-11z" />
    <glyph glyph-name="w" unicode="w" horiz-adv-x="899" 
d="M206 121q4 -4 10 -11.5t12 -16t12 -16t10 -11.5q8 -8 8 -15t-8 -7l-33 33q4 -4 2.5 -1t-5.5 9t-9.5 13.5t-9.5 11.5q-17 17 -27.5 45.5t-27.5 53.5q0 8 -5.5 16.5t-5.5 16.5q-25 41 -37.5 83.5t-28.5 92.5q-8 17 -9.5 26.5t-1.5 17.5t-1.5 16.5t-9.5 16.5v33v-33
q6 -7 4 1q-1 4 -4 10v11v22v22v11h-11v11v33q0 -8 5 -15q3 -4 6 -7v-11v22q-3 0 -6 1q-5 2 -5 10l11 -11v-44v-11v-11l11 -11v-11v-11v-11q2 -3 5 -7q6 -8 6 -15q8 -33 17.5 -71.5t26.5 -71.5q8 -25 16.5 -42.5t16.5 -34.5q33 -83 66 -132zM52 484q8 0 10 -6q1 -3 1 -5z
M811 429q19 -11 24 -31.5t1 -45.5t-14 -52t-21.5 -50t-21 -40t-12.5 -23q-25 -41 -51 -75t-49.5 -57t-43.5 -32t-32 -1q-17 8 -19.5 24.5t-2.5 41.5q-8 8 -16.5 9.5t-16.5 1.5v-22q-4 -4 -6.5 -11.5t-4.5 -16t-4.5 -16t-6.5 -11.5q0 -8 -2 -12.5t-4 -6.5q-3 -3 -5 -3
q-8 8 -4 17.5t4 26.5q0 -4 1.5 -1t4 9t4 13.5t1.5 11.5q0 8 1.5 16.5t9.5 16.5l-33 33q-8 -17 -31.5 -38.5t-56.5 -38.5l-33 -33q-33 -11 -63 4.5t-56 45.5t-47.5 69.5t-37.5 76t-25.5 65t-12.5 36.5q-25 70 -39 134t-16 114.5t8.5 84t35.5 41.5t55 -11t62 -58t64 -95
t61 -122l12 -24t17 -38t19 -48t18 -55q8 17 23 25t32 8h11q3 3 7 4q8 2 15 -4q17 0 38.5 -9.5t38.5 -34.5q17 33 40 67t48 76l33 33q0 8 7 11t15 11q0 8 7 15t15 7q-8 0 -15 -7t-7 -15l11 11q0 8 5.5 11t5.5 11q8 0 11 5.5t11 5.5v11h11q8 8 11 15t11 7l-11 -11l11 11
l-33 -33q0 -8 -1.5 -9.5t-9.5 -1.5v-11h-11h11q-8 0 -9.5 -1.5t-1.5 -9.5h-11v-11l-11 -11l-11 -11q-25 -33 -48.5 -62t-39.5 -70q-8 -8 -16.5 -23t-16.5 -32q0 -3 1 -6q2 -5 10 -5q0 8 7 22t15 22q0 3 7.5 19t21 38t31 46t37 41.5t40 24.5t39.5 -4zM723 429v-11v11z
M822 539q8 0 15 5q4 3 7 6h11h-11q0 -8 -6 -10q-3 -1 -5 -1l-11 -11q-8 0 -10 -6q-1 -3 -1 -5q-3 -3 -6 -4q-2 -1 -3.5 -1t-1.5 5q8 8 15 11t7 11zM866 561q2 0 5 1q6 2 6 10h11q-8 0 -11 -5.5t-11 -5.5zM41 693v-11h-11h11q-8 8 -8 11t8 11v-11zM41 638v11v-11zM30 616v-11
v22v33v-11v-11v-22zM41 627v11v-11z" />
    <glyph glyph-name="x" unicode="x" horiz-adv-x="476" 
d="M72 550v11v-11zM83 627q0 -8 -1.5 -11t-9.5 -11v11q0 3 1 7q2 7 10 15v-11zM446 33q8 -5 9 -10.5t-1 -10.5q-3 -6 -8 -12q-8 -4 -15 -4.5t-14 1.5t-16 6t-21 8q8 0 2.5 1.5t-13.5 9.5h-11h11q-8 8 -16.5 9.5t-16.5 1.5t-16.5 5.5t-16.5 5.5q-25 8 -42.5 28.5t-34.5 37.5
q-41 -41 -81 -62t-73 -4q-17 8 -21.5 31.5t-0.5 56.5t15.5 73t28.5 81q0 8 -1.5 16.5t-9.5 16.5q0 8 -5.5 22t-5.5 22t-5.5 16.5t-5.5 16.5v44v-44q0 -4 1.5 -2.5t4 5.5t4 9.5t1.5 9.5h-11v22v22v11q0 8 -1.5 9.5t-9.5 1.5h11v44q0 -8 1.5 -11t9.5 -11h-11h11q0 2 -1 5
q-2 6 -10 6v11l11 -11v-44v-11l11 -11v-11v-11v-11l11 -11v-22q8 -8 11 -16.5t11 -16.5v11q-8 8 -9.5 16.5t-1.5 16.5q-8 17 -9.5 26.5t-1.5 17.5q8 -8 9.5 -17.5t1.5 -26.5v22v11v11q-3 0 -4 1q-3 3 4 10v22v11v11v33q0 -8 1.5 -11t9.5 -11h-11h11v11v11h-11q8 0 10 -6
q1 -3 1 -5v-44v-11v-11v-11v11l11 -11v-11v-11v-11q0 -8 5.5 -11t5.5 -11v-11q16 25 40.5 58t53 59t61 36.5t65.5 -10.5q27 -17 35.5 -43t4.5 -56t-16.5 -60.5t-26.5 -57t-26 -45.5t-15 -24q-17 -25 -27.5 -41.5t-27.5 -24.5q17 -25 34.5 -42.5t42.5 -34.5h22
q8 -8 28.5 -16.5t37.5 -16.5q8 0 10 -6q1 -3 1 -5zM83 451v-11v11h-11h11zM94 396v-11v11zM127 396q0 -8 5 -10q3 -1 6 -1zM61 528q-4 -4 -6.5 -9.5t-3.5 -9.5t-1 -5.5t0 2.5v44q0 8 5.5 16.5t5.5 16.5v-11q-3 -3 -6 -7q-5 -7 -5 -15h11q-8 0 -9.5 -7t-1.5 -15h11zM105 528
q0 -8 -5.5 -13.5t-5.5 2.5t1.5 16.5t9.5 16.5v33v11l11 -11q0 -7 -6 -15q-3 -4 -5 -7v-11v-11q-7 -7 -4 -10q1 -1 4 -1zM127 550l-11 11h11v-11zM138 594q-33 16 -33 66q0 15 5 26q4 9 13 15.5t26 2.5q17 -5 24 -14t9 -18q3 -11 0 -23q-8 -25 -17.5 -40t-26.5 -15zM127 550
h-11h11z" />
    <glyph glyph-name="y" unicode="y" horiz-adv-x="747" 
d="M687 506q21 -25 18 -45t-15.5 -34.5t-27.5 -22.5t-19 -8q-21 -12 -41 -18.5t-36.5 -6.5t-28 6.5t-15.5 18.5q-8 8 -8.5 21.5t5.5 29t18 31.5t29 28q4 4 19 14t33.5 15t37.5 0.5t31 -29.5zM500 275q-4 -58 -14 -108t-24.5 -87t-32.5 -58.5t-39 -21.5q-25 0 -45 21.5
t-34.5 58.5t-22.5 87t-8 108v55h-22q-33 17 -64.5 36t-56.5 52q-8 8 -15 11t-7 11q-17 17 -37.5 40t-28.5 48q0 12 -3.5 23.5t-6.5 17.5t-4 5t3 -13q-4 16 -8 27t-6 19.5t-1.5 15.5t4.5 15q3 3 8 4q4 1 10.5 0.5t14.5 -4.5q0 -8 2 -18t5 -19t7 -17t8 -12q8 -41 30 -68.5
t47 -52.5q8 -8 17.5 -22t26.5 -22q17 -17 38.5 -26.5t38.5 -17.5v22q-8 4 -14.5 6.5t-13 5.5t-13 8t-14.5 13h-11q-4 8 -11.5 14.5t-14.5 13t-12.5 13t-5.5 14.5q0 4 -3.5 9.5t-6.5 9.5t-4 5.5t3 -2.5q-8 16 -13.5 20.5t2.5 12.5q0 6 1 10q2 8 10 1q8 -8 15 -22t7 -22
q8 -17 23 -27.5t32 -27.5q8 -8 17.5 -11t26.5 -11q4 25 12.5 48.5t22 42t32 30t43.5 11.5q33 0 53 -18.5t31 -46t16.5 -60.5t9.5 -62v-88z" />
    <glyph glyph-name="z" unicode="z" horiz-adv-x="582" 
d="M208 627q-3 0 -18 0.5t-35.5 2t-44 4.5t-43.5 9t-33 15.5t-13 23.5q0 25 26 36.5t59 15.5t63.5 3.5t38.5 -0.5q37 0 71 -4t59.5 -11t41 -17.5t15.5 -22.5q0 -8 -15.5 -16t-41 -15.5t-59.5 -13.5t-71 -10zM406 649q8 0 11 1.5t11 9.5h11h-11q0 -3 -1 -6q-2 -5 -10 -5h-11z
M98 616q-4 4 -9.5 6.5t-9.5 3.5t-5.5 1t2.5 0q-8 0 -15 1.5t-7 9.5h11q8 0 22 -1.5t22 -9.5h88q8 -8 22 -4t22 4q25 0 48 1.5t40 9.5h22h11h11h11v11h22h11h-11h11h-22v-11h-11h-11h-11q-8 0 -13.5 -5.5t2.5 -5.5q8 8 11 9.5t11 1.5q-8 0 -11 -1.5t-11 -9.5h-22h-22
q-33 -8 -60.5 -9.5t-60.5 -1.5h-11h-77zM340 638h-11h11zM208 308q-17 -33 -32 -64.5t-23 -56.5q0 -17 -5.5 -32t-5.5 -23q-5 -8 -8.5 -12.5t-6.5 -6.5q-4 -3 -7 -3q0 8 1.5 17.5t9.5 26.5q-4 -8 -4.5 -7t1.5 7t6 15.5t8 17.5q0 8 3.5 20t9 25.5t11 27.5t9.5 26q8 8 11 15
t11 7q17 42 40 77t48 77l33 33q8 8 11 15t11 7q0 8 7 15t15 7q-8 0 -15 -7t-7 -15q-8 0 -4 1.5t4 9.5h11q0 8 5 10q3 1 6 1v11q8 0 9.5 1.5t1.5 9.5h11v11h11q0 8 7 11t15 11q-8 -8 -11 -9.5t-11 -1.5v-11l11 11h11v11l-11 -11l-33 -33v-11h-11h11q-8 0 -9.5 -1.5t-1.5 -9.5
h-11v-11h-11q0 -8 -5.5 -11t-5.5 -11q-25 -25 -44 -56.5t-44 -64.5zM329 506v-11v11zM373 66q41 -4 75.5 -8t59 -8.5t38.5 -8.5t14 -8q0 -8 -14 -14.5t-38.5 -10.5t-59 -6t-75.5 -2h-17.5t-32 1t-40 3.5t-42.5 6.5q-8 -8 -22 -4t-22 4q-30 16 -39.5 46.5t-5 67t18.5 75
t30 72t31 58.5t20 33q33 58 69 106t70 80t63.5 44.5t50.5 0.5t27 -44t-1 -77t-27.5 -101.5t-53.5 -118.5q0 -8 -9.5 -29t-26 -48t-38.5 -56t-47 -54h44zM428 660h11h-11zM406 583q0 8 7 15t15 7q0 8 7 9.5t15 1.5v11q0 -3 -1 -6q-2 -5 -10 -5l-11 -11q-3 0 -6 -1
q-5 -2 -5 -10h-11q-3 -3 -4 -6q-1 -2 -1 -3.5t5 -1.5zM472 638q0 -3 -1 -6q-2 -5 -10 -5q8 8 8 4t-8 -4q8 8 11 9.5t11 1.5h-11zM450 671h11h-11zM428 605h11h-11zM439 605v11v-11z" />
    <glyph glyph-name="braceleft" unicode="{" horiz-adv-x="271" 
d="M257 99q0 -8 -6 -18t-16 -19t-24.5 -17t-30.5 -12q-13 -5 -25 -8q-11 -2 -22 -1t-19 9v-11q4 -8 4.5 -12.5t-0.5 -6.5q-1 -3 -4 -3q-8 0 -16.5 15t-16.5 40q4 -8 4.5 -5.5t-1.5 9.5t-6 16t-8 13q-8 25 -15 62t-7 70q0 17 -1.5 26.5t-9.5 17.5v55q-3 3 -6 7q-5 7 -5 15
q0 17 1.5 32t9.5 23q0 17 1.5 40t9.5 48v55q16 132 33 165l11 11v11q0 8 5.5 11t5.5 11v11v-11q0 -8 -1.5 -11t-9.5 -11v-11l11 11q8 4 18 4.5t19 -0.5t17 -2.5t12 -1.5q16 -4 30 -12t23.5 -18.5t13 -22.5t-0.5 -24q-8 -25 -31.5 -34.5t-56.5 -9.5q-8 0 -11 5.5t-11 5.5
q8 -42 15 -96.5t7 -112.5q17 -8 26.5 -17.5t17.5 -26.5q0 -17 -9.5 -32t-34.5 -23q4 -17 4.5 -37t-0.5 -41.5t-2.5 -43.5t-1.5 -43h11q33 8 62 -5.5t37 -38.5zM125 781q0 -3 -1 -6q-2 -5 -10 -5q8 8 9.5 8t1.5 -8v22v-11z" />
    <glyph glyph-name="bar" unicode="|" horiz-adv-x="169" 
d="M34 319q0 8 -0.5 36t0 64.5t3 77t9 74.5t17 56t26.5 22q14 0 22.5 -22t13.5 -56t7 -74.5t2 -77t-0.5 -64.5t-0.5 -36q0 -66 -4 -124t-10 -101.5t-14 -68.5t-16 -25q-12 0 -22.5 25t-17.5 68.5t-11 101.5t-4 124z" />
    <glyph glyph-name="braceright" unicode="}" horiz-adv-x="278" 
d="M232 396q8 -8 15 -23t7 -32q-8 -8 -11 -15t-11 -7v-55v-44q-4 -17 -6.5 -35t-5.5 -35.5t-8 -33.5t-13 -28q0 -4 -1.5 -13t-4 -16t-4 -9.5t-1.5 5.5q-8 -25 -11 -40t-11 -15q-3 0 -6 3q-5 5 -5 19l11 11q-13 -8 -26.5 -9t-24.5 1q-13 3 -26 8q-17 4 -30.5 12t-23 17
t-13 19t0.5 18q8 25 31.5 38.5t56.5 5.5h22q-8 42 -9.5 87t-1.5 78q-17 8 -25 23t-8 32t8 26.5t25 17.5q8 58 11 112.5t11 96.5l-11 -11q-33 0 -62 9.5t-37 34.5q0 25 22 47t55 30q10 3 21 4q9 1 20.5 0.5t24.5 -4.5q0 -3 1 -6q2 -5 10 -5q-8 0 -10 5q-1 3 -1 6q0 8 -5.5 11
t-5.5 11v11v-11q8 -8 9.5 -11t1.5 -11l11 -11v-11q33 -33 33 -165q0 -17 5.5 -27.5t5.5 -27.5v-88zM144 792q0 -8 5.5 -11t5.5 -11q0 2 -1 5q-2 6 -10 6v11z" />
    <glyph glyph-name="asciitilde" unicode="~" horiz-adv-x="543" 
d="M177 55h-11h11zM111 44q0 -8 -5.5 -8t-5.5 8h11zM144 44h11q-3 0 -6 -1q-5 -2 -5 -10h-11h11v11zM265 44h11h-11zM309 22q-8 0 -10 5q-1 3 -1 6l-11 11l-22 22v11v-11q8 -8 15 -11t7 -11q8 -8 16.5 -11t16.5 -11h-11zM485 209q17 -50 8.5 -96.5t-41.5 -79.5l-22 -22h-11
h-11l-11 -11h-22h11h-11h-11q-17 0 -32 5.5t-23 5.5l-11 11h11q0 -8 5 -10q3 -1 6 -1q-8 0 -11 5.5t-11 5.5q8 0 22 -5.5t22 -5.5h11h11h22q8 0 11 5.5t11 5.5q4 0 8 3.5t6 6.5t1.5 4t-4.5 -3q-8 -8 -16.5 -9.5t-16.5 -1.5q8 0 16.5 5.5t16.5 5.5q8 8 15 11t7 11
q8 8 15 17.5t7 26.5q8 21 6.5 43t-10.5 42.5t-25 38.5t-37 30q-11 9 -15 10t-7 1q-17 8 -33 9t-30.5 -3.5t-26.5 -12t-20 -15.5q-12 -4 -20.5 -13t-12.5 -16t-4 -9.5t4 5.5q-8 -12 -11 -21t-5.5 -16t-5.5 -14t-11 -15q0 -8 -1.5 -15t-9.5 -7q-17 -33 -41.5 -42.5t-57.5 -1.5
q-8 0 -22 7t-22 15q-17 25 -22.5 49.5t11.5 49.5q0 8 1.5 9.5t9.5 1.5h-11h11v11h11q0 8 5 10q3 1 6 1h11h33h-11h11h-22h-11l-11 -11q-3 0 -6 -1q-5 -2 -5 -10q-8 0 -9.5 -4t-1.5 4q8 0 11 1.5t11 9.5l-22 -22v-11q-8 -8 -9.5 -11t-1.5 -11q0 -25 20.5 -47t45.5 -30h11
q25 0 36 12.5t19 20.5q4 4 6.5 9.5t3.5 9.5t1 5.5t0 -2.5q4 8 4.5 13t0.5 8t1 5.5t5 6.5q0 25 12.5 48t20.5 40q21 16 46.5 26.5t52.5 13.5t52.5 -1.5t46.5 -16.5q25 -17 41.5 -34.5t24.5 -42.5zM34 198v11v-11zM441 22l11 11zM265 66v-11v11zM276 33v11v-11zM254 99v22v11
h11q0 -7 -6 -15q-3 -4 -5 -7v-11zM111 231v-11h11q8 0 10 -6q1 -3 1 -5h11h-11l-11 11h-22q0 8 5 10q3 1 6 1zM243 319h11h-11zM287 330l11 11h11h11h11h-11h11h11h22q16 -8 32.5 -12.5t33.5 -20.5h11q8 -8 20.5 -16.5t12.5 -16.5l11 -11l6.5 -13t3.5 -8t1 -5.5v-6.5
q-3 -3 -6 -4q-2 -1 -3.5 -1t-1.5 5q-8 8 -11 15t-11 7q-8 17 -17.5 26.5t-26.5 17.5q0 8 -7 9.5t-15 1.5q-17 8 -32 15t-23 7h-11h-11h-11h-22h-11h11zM342 330h-11h11zM276 330h-11h-11h11h11l11 11v-11h-11zM155 187q-3 0 -6 1q-5 2 -5 10l11 -11v-11v11zM122 231l11 -11z
M133 220h11h-11zM122 187q0 8 7 9.5t15 1.5v-22q0 -3 -1 -6q-2 -5 -10 -5t-10 11q-1 4 -1 11z" />
    <glyph glyph-name="uni00A0" unicode="&#xa0;" horiz-adv-x="233" 
 />
    <glyph glyph-name="currency" unicode="&#xa4;" horiz-adv-x="777" 
d="M156 253h-11h11zM145 242v-11v11zM156 286q3 -3 4 -6q2 -5 -4 -5v11zM156 253l-11 -11v11h11zM673 132q4 0 16 -6t22.5 -17.5t14 -27.5t-8.5 -37q-12 -25 -29 -31t-32.5 -3t-26.5 11t-11 12q-33 17 -42.5 40t-1.5 48l11 11q8 8 11 16.5t11 16.5q17 17 19.5 41.5t2.5 57.5
q8 8 9.5 23t1.5 32q-8 17 -9.5 33t-1.5 33h-22v-33q8 -42 7 -88t-18 -88q-17 -37 -42.5 -67.5t-57.5 -52t-68.5 -33.5t-73.5 -12q-17 0 -27.5 5.5t-27.5 5.5q-3 2 -7 5q-8 6 -15 6q-8 8 -11 9.5t-11 1.5q-8 8 -15 11t-7 11q-8 -17 -22 -26.5t-22 -17.5q-4 -4 -15.5 -12
t-26 -11t-30 3t-27.5 31q-12 21 -8.5 37t14 27.5t22.5 17.5t16 6q8 8 17.5 9.5t26.5 1.5q-8 8 -15 22t-7 22v22l11 -11h-11l11 -11q-8 -8 -4 -16.5t4 -16.5l11 11h-11v33q0 -17 7 -27.5t15 -27.5h11q8 0 16.5 -7t16.5 -15v-22q2 0 5 -1q6 -2 6 -10h11q0 -8 7 -9.5t15 -1.5
t10 -6q1 -3 1 -5h22q-17 8 -27.5 11t-27.5 11q17 -8 33 -11t33 -11q8 0 22 -4t22 4q17 0 38.5 7t38.5 15q37 21 62 50.5t38.5 65t15.5 73.5t-6 75q0 17 -7 26.5t-15 17.5q-8 41 -37 60.5t-62 27.5q8 -12 12.5 -26t6.5 -26.5t2.5 -22t0.5 -13.5q0 -37 -8 -69.5t-22.5 -57
t-34.5 -40.5t-45 -20q-29 -4 -53.5 7.5t-44 34t-34 54.5t-22.5 69v33q-17 -8 -40 -1.5t-48 23.5q-4 0 -16 7.5t-21 21t-11 31.5t15 39q16 16 34 16.5t33.5 -5.5t27 -14t15.5 -8q0 -8 1.5 -9.5t9.5 -1.5q8 8 17.5 16.5t26.5 16.5q8 8 24.5 15t41.5 7q17 8 32 9.5t23 1.5
q66 0 121 -30t88 -80q8 8 11 16.5t11 16.5h-11v11q0 -8 5 -10q3 -1 6 -1q0 2 -1 5q-2 6 -10 6q8 0 10 -6q1 -3 1 -5q8 0 15 5q4 3 7 6q4 0 17 6t28.5 8t30.5 -4.5t23 -31.5q12 -25 6.5 -40t-17.5 -24.5t-26 -14.5t-18 -9q8 -33 13.5 -66t-2.5 -66v-22q0 -17 -2.5 -38.5
t-19.5 -38.5q-8 0 -10 -6q-1 -3 -1 -5q8 0 22 -5.5t22 -5.5zM233 66q0 -3 1 -6q2 -5 10 -5q-8 0 -10 5q-1 3 -1 6zM332 22q8 0 11 -4t11 4h-22zM167 231q0 8 5 10q3 1 6 1q0 8 -4 16.5t4 16.5q0 8 5.5 11t5.5 11q0 -8 -6 -10q-3 -1 -5 -1v-55q0 -17 1.5 -33t9.5 -33
q0 -4 -3.5 -2.5t-7.5 5.5t-7.5 9.5t-3.5 9.5q3 3 4 7q2 8 -4 15v22zM552 506h11h-11zM552 506v11v-11zM530 539l11 -11q-8 0 -10 5q-1 3 -1 6zM574 517h-11l-11 11q8 -8 15 -11t7 -11q8 0 11 -5.5t11 -5.5q0 -5 -2 -5t-4 1q-3 1 -5 4q0 2 -1 5q-2 6 -10 6q-5 0 -5 1.5t1 3.5
q1 3 4 6zM519 539h11h-11z" />
    <glyph glyph-name="brokenbar" unicode="&#xa6;" horiz-adv-x="168" 
d="M34 539q0 8 -0.5 36.5t3.5 58.5t15.5 52t36.5 18q21 -4 30.5 -30.5t12.5 -57.5t2 -57.5t-1 -30.5q0 -33 -4 -63t-11 -52.5t-17.5 -36t-22.5 -13.5q-8 4 -16 19.5t-14 39.5t-10 54t-4 63zM34 165q0 33 4 63t11 54t17.5 39.5t22.5 19.5q17 0 30.5 -45t13.5 -120
q0 -4 1 -30.5t-2 -57.5t-12.5 -57.5t-30.5 -30.5t-32 18t-16 52t-6 58.5t-1 36.5z" />
    <glyph glyph-name="section" unicode="&#xa7;" horiz-adv-x="386" 
d="M172 143h-11h-11h22zM128 110v11l11 11q-8 -8 -9.5 -11t-1.5 -11t-5.5 -11t-5.5 -11v11h11v11zM117 121h11h-11zM238 550q-3 -3 -7 -4q-3 -1 -7 -1t-8 5q-6 0 -10 1q-3 1 -4.5 3t3.5 7q0 8 11 10q4 1 11 1q8 -8 9.5 -11t1.5 -11zM216 539h11h-11zM337 330v-11h-11
q0 -8 -1.5 -16.5t-9.5 -16.5q0 -8 -6 -10q-3 -1 -5 -1q-17 -25 -34.5 -41.5t-42.5 -24.5h-11q8 -8 16.5 -9.5t16.5 -1.5q33 -17 48 -47t7 -63l-33 -66q-25 -17 -56.5 -22.5t-64.5 11.5q-3 0 -6 1q-5 2 -5 10h-11v11q0 8 -6 10q-3 1 -5 1v11q0 8 -4 22t4 22v-11v11v-22v-11
v-11q2 0 5 -1q6 -2 6 -10q2 0 5 -1q6 -2 6 -10q2 -3 5 -4q2 -1 4 -1t2 5q-8 0 -11 5.5t-11 5.5q8 0 11 -5.5t11 -5.5q0 -8 5 -10q3 -1 6 -1q16 -17 33 0q33 0 56.5 20.5t31.5 45.5v22q0 17 -13.5 33t-30.5 33q-4 4 -9.5 6t-9.5 2t-5.5 -2t2.5 -6q-8 4 -14.5 4.5t-11.5 0.5
t-9.5 1t-8.5 5q-3 0 -4 1q-3 3 4 10q-33 0 -64.5 9.5t-56.5 34.5q0 8 -5.5 16.5t-5.5 16.5l-11 11v11v-11v11v-11q0 2 -1 5q-2 6 -10 6v11v11v11v-11v11v11v22q0 17 7 38.5t15 38.5q2 0 5 1q6 2 6 10q4 4 6.5 9.5t5.5 11t8 9t13 3.5t13.5 5.5t-2.5 5.5q8 0 11 4t11 -4
q3 0 4 -1q3 -3 -4 -10q-3 -3 -7 -6q-7 -5 -15 -5q-8 -8 -16.5 -22t-16.5 -22t-11 -16.5t-11 -16.5v-11v11q3 2 7 5q8 6 15 6l-11 -11q-8 0 -9.5 -7t-1.5 -15v11l11 11q0 -8 -5.5 -16.5t-5.5 -16.5v-11v-11v-11v11q17 17 45.5 17t53.5 -17q4 -4 16 -12.5t21 -20.5t10.5 -28.5
t-14.5 -37.5q0 -8 -5.5 -11t-5.5 -11q33 0 64.5 20.5t56.5 45.5q0 8 1.5 16.5t9.5 16.5q8 33 1.5 59t-23.5 51q0 8 -6.5 15.5t-12.5 12t-8.5 3.5t5.5 -9q-12 12 -22.5 17.5t-19 8.5t-14.5 6.5t-10 11.5q-8 0 -16.5 1.5t-16.5 9.5q-12 8 -22 20t-15 25.5t-4.5 27.5t8.5 26
q0 17 8 26.5t25 17.5q8 8 20 14t24 8t24 -0.5t20 -10.5q8 0 10 -6q1 -3 1 -5q8 0 9.5 -1.5t1.5 -9.5l11 -11v-11v-33v-11v11v11v-11v11v11v11q-3 0 -6 1q-5 2 -5 10v11h-11l11 -11q-8 0 -10 5q-1 3 -1 6q-8 8 -11 9.5t-11 1.5q0 8 -7 9.5t-15 1.5q-12 0 -24 -5.5t-22.5 -14
t-18.5 -18t-12 -17.5v-22q0 -17 7 -32t15 -23q4 -4 11 -8t12.5 -6t6 -1.5t-7.5 4.5q16 -8 26 -5.5t18 -5.5q8 -4 19.5 -8.5t23 -9.5t21 -11.5t13.5 -14.5q25 -25 33 -62t0 -70h11zM249 649q0 8 -6 10q-3 1 -5 1q2 0 5 -1q6 -2 6 -10zM51 253q0 -3 1 -6q2 -5 10 -5zM150 11
h11h-11zM271 583l-11 -11v-11h-11q0 -8 -1.5 -9.5t-9.5 -1.5h11q0 8 5.5 11t5.5 11v11q0 6 5 4q3 -1 6 -4zM260 550h-11h11zM51 396h11q8 8 9.5 11t1.5 11h11l11 11h11q-8 -8 -16.5 -11t-16.5 -11l-22 -22v11zM227 264v11q7 0 15 -6q4 -3 7 -5h11h-22h-11zM161 440v-11
q-8 8 -11 9.5t-11 1.5h11h11zM73 429h11h-11zM73 429q0 -3 -1 -6q-2 -5 -10 -5q8 0 10 5q1 3 1 6zM95 440q-3 0 -6 -1q-5 -2 -5 -10q0 8 1.5 9.5t9.5 1.5zM40 242v11l11 -11h-11zM40 264v11v-11zM73 572v-11v-11h11v-11q0 8 -6 10q-3 1 -5 1v22zM29 275v-11v11q0 8 -1.5 9.5
t-9.5 1.5q0 6 5 4q3 -1 6 -4v-11zM348 418h11h-11zM84 539v-11v11l11 -11q-3 0 -6 1q-5 2 -5 10zM51 253h-11h11zM326 154q0 8 -1.5 9.5t-9.5 1.5v11v-11h11v-11q0 -8 4 -9.5t-4 -1.5v11zM359 407q8 0 9.5 -1.5t1.5 -9.5q-3 0 -6 1q-5 2 -5 10v11v11v-11v-11zM326 297
q0 -8 -1.5 -9.5t-9.5 -1.5q8 0 9.5 1.5t1.5 9.5zM359 396l-11 11q8 0 10 -6q1 -3 1 -5zM348 429v11v-11zM315 176q-3 0 -6 1q-5 2 -5 10zM315 165v-11v11z" />
    <glyph glyph-name="copyright" unicode="&#xa9;" horiz-adv-x="773" 
d="M524 352v11v-11zM392 88h-11h11zM524 374v11v-11zM546 605q45 -25 81.5 -61.5t60 -81.5t33 -98t1.5 -111q0 -17 -5.5 -33t-5.5 -33q-8 -8 -11 -15t-11 -7v-11q-8 -8 -9.5 -11t-1.5 -11l-11 -11q-8 -8 -11 -16.5t-11 -16.5l11 11v11v-11h-11l-11 -11l11 11v-11
q-8 -8 -11 -9.5t-11 -1.5v-11q-8 0 -9.5 -1.5t-1.5 -9.5q-25 -17 -51 -30.5t-59 -13.5h-33h11h11q17 0 26.5 1.5t17.5 9.5q-17 0 -27.5 -1.5t-27.5 -9.5q25 8 42.5 17.5t34.5 26.5h11q0 8 1.5 9.5t9.5 1.5t11 5.5t11 5.5q8 8 11 22t11 22h11q8 8 11 22t11 22l11 11
q4 8 6 17.5t2 15.5t-2 7t-6 -7q-4 -12 -6.5 -21t-5.5 -17.5t-8 -17.5t-13 -21q8 25 16.5 42.5t16.5 34.5t9.5 38.5t1.5 38.5q0 25 -7 49.5t-15 49.5q-21 54 -54.5 91.5t-76 60t-91 31t-97.5 4.5q-17 -8 -33 -11t-33 -11q-33 -12 -56.5 -35.5t-41 -51t-31 -57t-25.5 -54.5
q-8 -21 -7.5 -48t4.5 -46.5t9 -24.5t5 20q0 -33 5 -55t11.5 -39.5t11.5 -33.5t5 -37q-4 0 -7 -9.5t-9.5 -15.5t-17.5 -3t-32 28q-12 16 -24 45t-20 62t-11.5 66t0.5 58q8 66 33.5 122.5t64 100t86.5 71.5t102 36q58 8 114 -1.5t106 -42.5zM711 231q8 8 9.5 16.5t1.5 16.5
q0 -8 -5.5 -16.5t-5.5 -16.5zM491 22q-8 0 -15 5q-4 3 -7 6q-8 0 -22 -4t-22 4q-17 0 -32 1.5t-23 9.5q-3 3 -6 7q-5 7 -5 15q0 -8 1.5 -9.5t9.5 -1.5q17 -8 33 -15t33 -7t34.5 1.5t42.5 9.5q8 4 7.5 1t-6 -8t-12.5 -10t-11 -5zM403 0v11l11 -11h-11zM370 22l11 -11
q-8 0 -11 5.5t-11 5.5h11zM370 77v11h-22h-11h11h11h11v-11zM392 11l11 -11zM425 0h-11h11zM271 143v11q-8 8 -16.5 17.5t-16.5 26.5q-17 25 -25 56.5t-8 64.5q4 29 14.5 57t27 50.5t39 38t51.5 19.5q8 8 16.5 9.5t16.5 1.5h22q8 0 11 -5.5t11 -5.5h22l11 -11h11
q8 -8 22 -23t22 -32l11 -11h-11q2 0 5 1q6 2 6 10h-11q0 8 -5.5 11t-5.5 11q8 -8 9.5 -16.5t1.5 -16.5q0 17 -12.5 25t-20.5 8v11h-11q0 2 -1 5q-2 6 -10 6h-22q0 2 -1 5q-2 6 -10 6h-11h-22q-6 -3 -10 -4q-3 -1 -4.5 -1t3.5 5q17 0 26.5 -1.5t17.5 -9.5q-8 8 -22 8t-22 -8
h-33q-17 -8 -26.5 -16.5t-17.5 -16.5q-42 -50 -44.5 -104.5t22.5 -104.5q8 -8 15 -16.5t7 -16.5q33 -25 66 -29t66 -4q12 -4 25 0.5t21.5 10.5t9 10.5t-11.5 0.5q16 4 25.5 11.5t17 14.5t15 12.5t19.5 5.5q9 2 14 1q4 -1 4.5 -6t-7.5 -17t-20 -26t-25.5 -26.5t-27.5 -22
t-26 -13.5q-25 -8 -51 -8.5t-51 5.5t-47 18t-38 29v-11zM425 484h11v-11v11h-11zM348 484h-11q0 6 5 4q3 -1 6 -4zM645 594v11l11 -11h-11zM326 88v11h-11h-11v11h-11l11 -11q-3 0 -6 1q-5 2 -5 10v-11h11v-11l-22 22v11q-8 0 -15 1.5t-7 9.5q-25 17 -41.5 29t-24.5 37v11
q-4 8 -9.5 16t-9.5 15.5t-5.5 13.5t2.5 10v22v33q3 0 7 -1t15 -10v-33q0 -17 7 -33t15 -33q0 -8 7 -16.5t15 -16.5l33 -33q8 0 10 -6q1 -3 1 -5l11 -11h11v-11v11v-11h11v-11h11h22v-11l-11 11q0 -8 1.5 -9.5t9.5 -1.5h-22zM282 121h11h-11zM491 275h-11h11zM491 275v11
q8 0 15 5q4 3 7 6q-8 -8 -15 -11t-7 -11zM513 385v-11v-22v-22v11q0 17 -1.5 26.5t-9.5 17.5q0 8 -5.5 16.5t-5.5 16.5l11 -11v-11zM469 396q20 -5 30 -15.5t13 -21.5q4 -13 1 -29q-8 -25 -23 -45.5t-32 -20.5q-25 8 -34.5 30t-9.5 47q4 19 11 32q6 11 16.5 19t27.5 4z" />
    <glyph glyph-name="guillemotleft" unicode="&#xab;" horiz-adv-x="450" 
d="M277 211h-11h11zM431 684h11h-11zM299 200h-11h11zM409 695q8 0 9.5 -1.5t1.5 -9.5h11h-11v11h-11q0 -12 -11.5 -30t-31 -38.5t-45.5 -42.5t-55 -43q-4 -4 -13.5 -12t-22 -17t-26.5 -19t-26 -18q8 -17 15 -26.5t7 -17.5q16 -25 30 -47t23.5 -39.5t13 -29.5t-0.5 -16
q0 -8 -7.5 -4.5t-20 15.5t-28.5 32t-32 45q0 4 -5.5 13.5t-14 22t-18 26.5t-17.5 26l-11 -11q8 -8 14.5 -18t11.5 -18t9.5 -13.5t8.5 -5.5q21 -33 40.5 -65t34 -59t21.5 -46.5t3 -27.5v-11h11h11h-11h-11q-8 -8 -24.5 5.5t-41.5 38.5q0 8 -7 11t-15 11q-17 25 -38.5 45.5
t-38.5 53.5q0 8 -5.5 11t-5.5 11q-8 17 -22 40t-22 48h-22q0 8 1.5 16.5t9.5 16.5q-8 17 -9.5 26.5t-1.5 17.5q0 3 1 3q2 0 10 -14q0 -8 1.5 -11t9.5 -11q8 12 19 24t22 21q12 11 25 21q42 33 70.5 48t28.5 7q4 -4 -1.5 -15.5t-18 -27t-30 -33.5t-38.5 -34q-4 -3 -8 -7
q-5 -3 -11 -7t-14 -8q8 -8 15 -16.5t7 -16.5q8 0 11 7t11 15q-8 7 -10 15q-1 4 -1 7q8 8 15 8t7 -8q8 0 9.5 1.5t1.5 9.5q8 17 23 27.5t32 27.5q0 8 5.5 11t5.5 11q25 17 49.5 32t49.5 23q8 8 15 10q4 1 7 1q33 17 51 23.5t26 -1.5z" />
    <glyph glyph-name="logicalnot" unicode="&#xac;" horiz-adv-x="828" 
d="M67 222h11h-11zM793 233q0 -3 -3 -4q-2 -1 -6.5 -1t-12.5 5h-11q8 -8 11 -19.5t3 -23t-1.5 -21t-1.5 -13.5q-17 -33 -34.5 -53.5t-42.5 -12.5t-34.5 31.5t-9.5 56.5v22q-33 -8 -72 -11t-74 -3t-61.5 1.5t-34.5 1.5q-66 0 -124 4t-101.5 10t-68.5 14t-25 16v11
q-8 -8 -11 -9.5t-11 -1.5t-11 -5.5t-11 -5.5h-11h11q8 0 15 5q4 3 7 6q8 0 11 5.5t11 5.5q4 4 18 9.5t35.5 11t50 9t61.5 3.5q17 8 27.5 9.5t27.5 1.5q58 8 110 9.5t110 1.5q8 0 17.5 -1.5t26.5 -9.5q33 0 70 -2.5t62 -19.5q4 0 13 -1.5t16 -4t9.5 -4t-5.5 -1.5
q25 -8 40 -11t15 -11zM56 222h11h-11zM23 211q0 -8 -6 -10q-3 -1 -5 -1h-11q8 0 11 1.5t11 9.5z" />
    <glyph glyph-name="uni00AD" unicode="&#xad;" horiz-adv-x="450" 
d="M233 66q37 -4 71 -8t59.5 -8.5t41 -8.5t15.5 -8q0 -8 -15.5 -14.5t-41 -10.5t-59.5 -6t-71 -2h-22.5t-38.5 1t-46 3t-44.5 5.5t-33.5 9.5t-13 14t13 14t33.5 9.5t44.5 5.5t46 3t38.5 1h22.5z" />
    <glyph glyph-name="registered" unicode="&#xae;" horiz-adv-x="773" 
d="M524 110v11h-11v11q8 -8 9.5 -11t1.5 -11q2 0 5 -1q6 -2 6 -10q-4 0 -5 1.5t-1 4t-0.5 4t-4.5 1.5zM392 242l11 -11q-8 0 -10 5q-1 3 -1 6zM414 231h-11h11zM524 110v-11v11zM414 231h11h-11zM447 231q0 2 -1 5q-2 6 -10 6h-11h-11q-3 0 -7 1q-8 2 -15 10q8 -8 16.5 -9.5
t16.5 -1.5h33q8 0 2.5 -5.5t-13.5 -5.5zM392 11l11 -11zM491 22q-8 0 -15 5q-4 3 -7 6q-8 0 -22 -4t-22 4q-17 0 -32 1.5t-23 9.5q-3 3 -6 7q-5 7 -5 15q0 -8 1.5 -9.5t9.5 -1.5q17 -8 33 -15t33 -7t34.5 1.5t42.5 9.5q8 4 7.5 1t-6 -8t-12.5 -10t-11 -5zM546 605
q45 -25 81.5 -61.5t60 -81.5t33 -98t1.5 -111q0 -17 -5.5 -33t-5.5 -33q-8 -8 -11 -15t-11 -7v-11q-8 -8 -9.5 -11t-1.5 -11l-11 -11q-8 -8 -11 -16.5t-11 -16.5l11 11v11v-11h-11l-11 -11l11 11v-11q-8 -8 -11 -9.5t-11 -1.5v-11q-8 0 -9.5 -1.5t-1.5 -9.5
q-25 -17 -51 -30.5t-59 -13.5h-33h11h11q17 0 26.5 1.5t17.5 9.5q-17 0 -27.5 -1.5t-27.5 -9.5q25 8 42.5 17.5t34.5 26.5h11q0 8 1.5 9.5t9.5 1.5t11 5.5t11 5.5q8 8 11 22t11 22h11q8 8 11 22t11 22l11 11q4 8 6 17.5t2 15.5t-2 7t-6 -7q-4 -12 -6.5 -21t-5.5 -17.5
t-8 -17.5t-13 -21q8 25 16.5 42.5t16.5 34.5t9.5 38.5t1.5 38.5q0 25 -7 49.5t-15 49.5q-21 54 -54.5 91.5t-76 60t-91 31t-97.5 4.5q-17 -8 -33 -11t-33 -11q-33 -12 -56.5 -35.5t-41 -51t-31 -57t-25.5 -54.5q-8 -21 -7.5 -48t4.5 -46.5t9 -24.5t5 20q0 -33 5 -55
t11.5 -39.5t11.5 -33.5t5 -37q-4 0 -7 -9.5t-9.5 -15.5t-17.5 -3t-32 28q-12 16 -24 45t-20 62t-11.5 66t0.5 58q8 66 33.5 122.5t64 100t86.5 71.5t102 36q58 8 114 -1.5t106 -42.5zM711 231q8 8 9.5 16.5t1.5 16.5q0 -8 -5.5 -16.5t-5.5 -16.5zM370 22l11 -11
q-8 0 -11 5.5t-11 5.5h11zM348 297l11 -11v-11q0 8 -1.5 11t-9.5 11zM425 0h-11h11zM381 264q-8 0 -15 8t-7 25q-2 9 -1 16q1 6 5.5 11.5t17.5 5.5q8 0 12.5 -3.5t6.5 -9t2.5 -11t0.5 -9.5q0 -8 -7 -20.5t-15 -12.5zM403 0v11l11 -11h-11zM227 440q0 2 1 5q2 6 10 6
q-3 0 -6 -1q-5 -2 -5 -10zM458 154q-33 33 -66 33q-8 0 -17.5 5.5t-26.5 5.5h-22q0 -25 -8 -48t-25 -40v-11h11v-11l-22 22h-11q-29 -4 -46.5 16.5t-26.5 48t-12 54.5t-3 35q-4 33 -4 63t5.5 52.5t15.5 36t27 13.5q8 8 16.5 2.5t16.5 -13.5q17 42 53.5 70.5t78.5 28.5
q25 0 53.5 -7t45.5 -15q50 -33 72 -74t5 -91q0 -8 -1.5 -16.5t-9.5 -16.5v-11h-11v-11l-22 -22v11h11h-11v-11h-11v-11q-17 -8 -27.5 -9.5t-27.5 -1.5h-11h11h22h-11h-22q8 0 16.5 5.5t16.5 5.5h11v11h11q8 0 11 7t11 15l11 11q0 8 5 10q3 1 6 1v11q-8 -8 -11 -16.5
t-11 -16.5q8 8 11 16.5t11 16.5q0 8 1.5 16.5t9.5 16.5q0 8 -5.5 22t-5.5 22t-6 10q-3 1 -5 1q-4 -8 -16 -14t-28.5 -9t-36 -3t-40.5 4q-28 3 -50 12q-19 8 -34 20.5t-15 33.5q-8 -17 -16.5 -26.5t-16.5 -17.5v-11l33 -99q0 -8 1.5 -24.5t9.5 -41.5h11h22q12 0 23 -3.5
t21 -9t21 -11t23 -9.5q8 0 11 -5.5t11 -5.5q0 -8 1.5 -9.5t9.5 -1.5l11 -11l-11 11q-8 0 -4 -1.5t4 -9.5h11q0 -8 1.5 -9.5t9.5 -1.5v-11q8 0 10 -6q1 -3 1 -5h-11h11q-8 0 -11 5.5t-11 5.5v11h-11v11h-11h-11zM469 154q0 8 -6 10q-3 1 -5 1q0 -8 1.5 -9.5t9.5 -1.5z
M568 330v-11v11zM535 88v-11h11h-11v11zM282 495h-11h11zM249 484v-11h-11v-11v11zM249 462h-11h11z" />
    <glyph glyph-name="degree" unicode="&#xb0;" horiz-adv-x="195" 
d="M167 532v4v-4zM171 536h-4h4zM131 620q1 0 5 -2q1 -1 3 -2q-4 0 -8 4zM167 584q3 -9 5 -16t-1 -16v-4v4v12v-4v-12q0 6 -2 11.5t-2 8.5v4l-4 4v4q0 3 -2.5 4t-5.5 4q0 1 1 2q0 2 -1 2l-4 4q-4 0 -4 2q-1 1 0 2q-3 3 -7 3.5t-1 0.5q6 -3 9.5 -6t6.5 -6q-3 3 -6.5 6t-9.5 6
q-3 0 -6 2.5t-6 5.5q-6 0 -12 -0.5t-12 -3.5q-24 -3 -38.5 -21t-17.5 -39q-3 -6 -1.5 -9.5t1.5 -6.5q0 -18 11.5 -28.5t20.5 -19.5q3 -3 8 -4t9.5 -1t5.5 0.5t-3 0.5q15 -3 21 0t15 0q3 -1 4 -3q2 -4 -8 -9q-9 -6 -26 -6t-26 6q-27 9 -41 32.5t-11 47.5q6 30 24 48
q15 18 39 25.5t45 -1.5q3 -3 6 -5.5t6 -2.5q0 -4 2 -4q1 -1 2 0v-4h4q-1 -1 0 -2q0 -2 4 -2q2 -2 2 -3.5t1 -2.5q0 -2 1 -2l4 -4v-4zM131 512l-4 -4zM131 508v4h12q-3 0 -4 -1.5t-4 1.5zM159 524q4 0 4 4v-4h-4zM167 560v-8v-4q-4 -4 -4 -6q-1 -2 0 -2v-4q-4 -4 -4 -6
q-1 -2 0 -2q-4 -4 -8 -4q4 0 4 4q8 8 8 12q3 6 3.5 10t0.5 10z" />
    <glyph glyph-name="plusminus" unicode="&#xb1;" horiz-adv-x="408" 
d="M112 319q-42 0 -70.5 7t-28.5 15t7.5 14.5t20 10.5t28 6t32.5 2v11q0 5 -0.5 28t1.5 53.5t7 64.5t16 62.5t29 47.5t46 19q25 0 41 -18t26 -46t14.5 -61t6 -64t1 -54.5t-0.5 -31.5v-11q50 -8 80 -16.5t30 -16.5t-31.5 -15t-89.5 -7q-4 -45 -12 -83.5t-18.5 -66.5
t-22.5 -43.5t-24 -15.5q-17 0 -31 15.5t-25.5 43.5t-19.5 66.5t-12 83.5zM211 66q37 -4 71 -8t59.5 -8.5t41 -8.5t15.5 -8q0 -8 -15.5 -14.5t-41 -10.5t-59.5 -6t-71 -2h-22.5t-38.5 1t-46 3t-44.5 5.5t-33.5 9.5t-13 14t13 14t33.5 9.5t44.5 5.5t46 3t39 1h22z" />
    <glyph glyph-name="mu" unicode="&#xb5;" horiz-adv-x="726" 
d="M39 -4v8v-8zM575 156h8h-8zM55 164v16v-16zM647 28q-6 12 -12 19t-12 13v8q0 2 -1 4q-2 4 -7 4q0 6 -5 11t-11 5q0 6 -4 12t-4 12v8l-8 8q6 -6 8 -16t8 -16q-6 6 -8 16t-8 16t-8 15t-8 9q-6 12 -9 24t-15 24q-12 36 -28 76t-28 76q-18 -12 -41 -21t-47 -3q-6 0 -12 1
t-12 7h-8q-15 9 -31 27.5t-31 42.5t-28 51.5t-22 54.5q0 6 -8 22t-8 34q-6 -6 -16 -19t-16 -13q-18 -30 -35 -64t-29 -64l-22 -44t-10 -44q-18 -36 -31 -72t-25 -72v-24l-8 -16v-16v-16v8v-8v-8v-8q-6 -12 -7 -24t-1 -24q0 -2 -1 -5q-2 -6 -7 -11v8q2 0 4 1q4 2 4 7v16
q0 -6 -4 -12t-4 -12v32v8q2 0 4 1q4 2 4 7v8v16v8q0 6 1 8t7 8v8v16q0 -12 -4 -23t-4 -17q0 6 4 17t4 23v32q6 6 8 20t8 20q12 54 29 98t35 86q6 12 8 22t8 10q12 30 25 61t31 43q3 6 9.5 14t11.5 14t7 8t-4 -4q12 12 15 18t9 6q6 12 20 15t44 -15q21 -9 37.5 -24.5
t29.5 -33.5t22 -36.5t15 -33.5q12 6 20 16t20 16v32v15t-1 16t-2.5 8.5t-4.5 -7.5q6 24 8 33t8 15v-16q0 -6 1 -15.5t2.5 -19.5t3 -18t1.5 -11v-32q12 6 25 7t31 1q24 -2 35 -10t14 -19t-1 -23t-9 -23t-10 -19t-5 -10q-18 -12 -28 -23t-28 -17q6 -18 12 -35t12 -29
q12 -42 29 -79t35 -73q2 -2 4 -6q4 -8 4 -18v-8l8 -8v-8q6 0 8 -5t8 -11h-8v8v-8h8l8 -8q0 -12 6 -20t18 -20v-16v8q-6 6 -8 12t-8 12v-8h8q0 -6 4 -12t4 -12zM703 -36h8h-8zM703 -36l-16 16q6 0 6 -3t-6 3q6 0 8 -5t8 -11zM655 12q6 -6 11 -8t5 -8h8h-8q-6 0 -8 5t-8 11
l-16 32q-6 6 -2 -2t10 -14q6 0 7 -5t1 -11zM39 12v8v-8zM663 12v8v-8zM31 36v-8v-16v-16v-16v16v24v32v-16zM671 4v8v-8zM39 -52v-8v8zM39 -52q0 6 -3 11t3 5h-8h8v-8v-8z" />
    <glyph glyph-name="paragraph" unicode="&#xb6;" horiz-adv-x="427" 
d="M373 -18q0 5 -3 6t-3 6v-6v6q5 -5 5.5 -9t0.5 -9v6zM307 174v12v-12zM223 636q38 0 72 -3t59.5 -7.5t40 -10t14.5 -9.5q0 -9 -29 -16.5t-79 -7.5q0 -9 -0.5 -18t-5.5 -18q-9 -32 -10.5 -67t-1.5 -71q0 -18 0.5 -39.5t5.5 -44.5q0 -36 6.5 -72t11.5 -72q0 -5 0.5 -10
t5.5 -14v-12q0 -2 1 -4l2 -4t3 -4v-12v-6l6 -6v-6q5 -9 6 -18.5t6 -23.5q1 -2 3 -4l2 -4t1 -4l-6 6v6q0 5 -0.5 8.5t-5.5 3.5q0 -5 2.5 -5t-2.5 5q5 -5 5.5 -9t0.5 -9q0 5 -3.5 12t-8.5 12v6v6q0 2 -1 4l-2 4t-3 4q0 2 -1 4l-2 4t-3 4v6q0 5 -0.5 9t-5.5 9v6q0 5 -3 11t-3 1
q5 -9 6 -18t6 -18q-5 9 -6 18t-6 18q0 5 -0.5 13t-5.5 17q0 9 -3 18.5t-3 23.5q-9 50 -13.5 93t-4.5 93v30q0 27 0.5 58.5t5.5 49.5q5 5 6 13t6 17h-66h-30q7 -32 8.5 -73.5t1 -80.5t-2 -68t-1.5 -36q-2 -63 -7.5 -118.5t-13 -97.5t-16 -66t-17.5 -24q-11 0 -19 25t-13 68
t-7.5 99.5t-2.5 119.5v18t0.5 34.5t2 45.5t3.5 52q-9 -9 -15 -13.5t-15 -4.5q-27 0 -41 23t-19 55q0 12 3 24q2 10 7 21.5t14 20.5q-4 0 -5 3q-1 1 -1 3q0 9 12.5 14.5t31.5 8t42 3t43.5 0t36.5 -1t20 -0.5zM355 18v6v-6zM379 -24h-6h6zM349 30v6v-6zM349 30q0 -9 3 -11
t3 -7v-6v6q-5 5 -6 9t-6 9q-5 9 -6 15t-6 15q0 9 3 4t3 -10v-12q5 0 5.5 -3.5t0.5 -8.5h6z" />
    <glyph glyph-name="periodcentered" unicode="&#xb7;" horiz-adv-x="107" 
d="M30 442q3 17 9.5 26.5t17.5 9.5q10 3 16 -7.5t6 -24.5q2 -2 3 -7.5t-0.5 -12t-7 -11.5t-17.5 -5q-11 0 -16.5 5t-7.5 11q-3 7 -3 16z" />
    <glyph glyph-name="guillemotright" unicode="&#xbb;" horiz-adv-x="421" 
d="M407 538q0 -9 -0.5 -15.5t-4.5 -19.5q4 -9 4.5 -15t0.5 -15q0 -4 -6.5 -4t-10.5 4l-7 -5q-4 -23 -15 -41t-20 -36q-4 -8 -7.5 -13t-3.5 -10q-18 -26 -38 -48.5t-38 -45.5q-5 -4 -9 -7.5t-9 -3.5q-22 -27 -38 -39t-21 -8h-11h-5h-7h7h5q5 0 5.5 0.5t0.5 5.5q0 9 7.5 28
t20.5 44t31 55t40 60q0 5 11 20t24 32q-1 2 -3 4t-4.5 4t-4.5 4q-4 -13 -12 -26.5t-15.5 -25.5t-13 -21.5t-5.5 -13.5q-31 -40 -54 -65.5t-28 -16.5q-5 4 -2 16.5t11.5 30t21 39t27.5 43.5q0 4 7.5 15.5t16.5 24.5q-13 7 -26.5 16t-25 18t-20 16t-10.5 9q-26 20 -49.5 41
t-41 40t-28 34.5t-10.5 24.5h-5h-7q0 -2 -1 -3q-2 -2 -4 -2l-6 5h6h12h5q5 9 22 5.5t43 -17.5q4 -4 9.5 -5t13.5 -6q22 -13 44 -27t44 -32q5 -4 9 -8t9 -4q13 -17 28 -31.5t24 -31.5q8 4 13.5 6t9.5 -6q0 -5 -0.5 -10.5t-4.5 -19.5q4 -4 8 -8.5t4 -8.5q8 9 13 14.5t10 14.5
q-9 8 -19.5 16t-10.5 13q-39 31 -62.5 58.5t-19.5 40.5q0 4 8 2.5t21.5 -8t30 -17.5t34.5 -24q2 -2 10 -8t18 -15t20 -19.5t17 -20.5q4 4 5.5 8t6.5 9q3 11 4 10t1 -4zM168 222h5h-5zM149 216q0 3 3 2l4 -2h-12h5zM173 222v5v-5zM15 660v7q0 -5 -0.5 -6t-5.5 -1q1 2 3 3
q3 3 3 -3zM32 667h7h-7z" />
    <glyph glyph-name="florin" unicode="&#x192;" horiz-adv-x="396" 
d="M33 423h106l25 173q8 58 37 89q27 29 70.5 38t103.5 1v-76q-61 5 -87.5 -8t-32.5 -56l-23 -161h118v-70h-128l-54 -385q-9 -63 -40 -94q-23 -23 -58.5 -29t-84.5 0v74q37 -3 60 6.5t29 49.5l55 378h-96v70z" />
    <glyph glyph-name="uni0401" unicode="&#x401;" horiz-adv-x="718" 
d="M395 407q4 0 20 2t35 -1t35 -15t20 -41q8 -29 -1.5 -46.5t-25 -26.5t-31 -12t-19.5 -3q-21 0 -40.5 2.5t-35 8.5t-25 16.5t-9.5 27.5q-8 25 13.5 48t63.5 40zM626 143v-11v11zM615 110q-8 0 -11 -7t-11 -15h-11q0 -3 -1 -6q-2 -5 -10 -5q0 -3 -1 -6q-2 -5 -10 -5
t-11 -1.5t-11 -9.5q-8 0 -13.5 -5.5t2.5 -5.5q8 8 15 11t7 11q0 -8 -7 -11t-15 -11q-8 0 -16.5 -1.5t-16.5 -9.5q-8 0 -16.5 -5.5t-16.5 -5.5q-50 -17 -92 -23.5t-84 1.5h-33q-8 0 -16.5 5.5t-16.5 5.5q-8 -8 -15 -10q-4 -1 -7 -1q-17 0 -26.5 8t-17.5 25h-11q-4 8 -13 14
t-16 9t-9.5 3t5.5 -4q-8 8 -16 13t-14 9t-10 9t-4 13q3 6 8 10q4 3 10.5 4t14.5 -3q0 8 1.5 9.5t9.5 1.5q-8 33 -15 72.5t-7 81.5q0 8 -1 36t1 64t9 74.5t24 67.5v-11l-66 -33q-8 -5 -12.5 -3.5t-6.5 4.5q-3 4 -3 10q0 12 2 19t7.5 12.5t14 10.5t20.5 13q-8 -8 -7 -9t7 2
t15.5 8.5t17.5 9.5q17 25 47 29t63 4q3 0 7 1q7 2 15 10q50 0 92 -7t84 -15q17 0 26.5 -7t17.5 -15q8 0 16.5 -1.5t16.5 -9.5q8 0 11 -5.5t11 -5.5q-8 0 -11 5.5t-11 5.5l-4.5 4.5t0.5 -1.5t2.5 -6t1.5 -8h11q8 0 9.5 -1.5t1.5 -9.5q2 3 5 4q6 2 6 -4l11 -11h11l11 -11
l22 -22q-8 0 -11 5.5t-11 5.5l11 -11h11h-11q-8 8 -17.5 15t-26.5 7l-11 11h-11q0 8 -6 10q-3 1 -5 1h-11q-8 0 -11 5.5t-11 5.5q-33 8 -66 15t-66 7h-77h-22q22 -14 36.5 -37.5t23 -51t12 -57t5 -55.5t1 -46t-0.5 -28q-8 -58 -17.5 -112.5t-26.5 -96.5h55h77q33 8 66 17.5
t66 26.5q3 0 7 1q7 2 15 10h11h-11h11v11h11h11h-11h11v11h11l33 33h11v-11q-8 0 -11 -1.5t-11 -9.5h11v11q2 0 5 1q6 2 6 10q-8 -8 -11 -16.5t-11 -16.5h-11v-11q-8 0 -11 -5.5t-11 -5.5l-11 -11h-11q0 -8 -5.5 -13.5t-5.5 2.5q16 0 20.5 5.5t12.5 5.5q-8 0 -16.5 -5.5
t-16.5 -5.5q0 -8 -7 -9.5t-15 -1.5q-8 -8 -16.5 -15t-16.5 -7h22l11 11h11q8 0 10 5q1 3 1 6v-11v11h11h11q8 8 16.5 15t16.5 7l11 11v-11v11q0 -8 -6 -10q-3 -1 -5 -1l-11 -11q8 8 8 9.5t-8 1.5h22zM538 110h-11h11zM472 528h-11h11zM494 66q0 -5 1.5 -5t3.5 1q3 1 6 4h-11
zM692 242q0 -3 -1 -6q-2 -5 -10 -5q0 2 1 5q2 6 10 6zM692 242l11 11zM637 121q8 8 10 15q1 4 1 7h11h-11q0 -7 -6 -15q-3 -4 -5 -7l-22 -22l-4.5 -4.5t0.5 1.5t2.5 6t1.5 8h11q0 2 1 5q2 6 10 6zM681 187q0 -8 -5.5 -11t-5.5 -11h-11l11 11zM648 187v11v-11zM637 407
l-11 11h11h-11q8 0 11 -5.5t11 -5.5h-11zM593 473q-8 8 -9.5 5.5t-1.5 5.5q-8 0 -10 5q-1 3 -1 6q8 -8 16.5 -15t16.5 -7q0 -8 5 -15q3 -4 6 -7l11 -11q-8 0 -10 5q-1 3 -1 6q-8 0 -10 5q-1 3 -1 6zM593 451h-11h11zM659 187q8 0 10 5q1 3 1 6q0 2 1 5q2 6 10 6l-11 -11
q-3 -3 -6 -7q-5 -7 -5 -15l-22 -22q-5 -5 -5 -3.5t1 4.5q1 4 4 10h11q0 8 1.5 11t9.5 11zM637 154v-11v11zM417 605q-25 8 -32 37t10 62q7 21 18 36q9 12 23.5 19.5t35.5 -0.5q25 -12 33 -29t7 -32.5t-7.5 -26.5t-10.5 -11q-4 -17 -13.5 -29t-21 -19t-23 -9t-19.5 2z
M285 616q-29 4 -41 18.5t-14 30t2.5 27.5t8.5 12q8 33 24.5 55t41.5 22q25 -8 34.5 -32.5t9.5 -66.5q-3 -21 -12 -37q-8 -14 -21 -24t-33 -5z" />
    <glyph glyph-name="uni0402" unicode="&#x402;" horiz-adv-x="888" 
d="M256 176v-11q2 0 5 -1q6 -2 6 -10t5.5 -11t5.5 -11v-11v11l-22 22q0 8 -5.5 16.5t-5.5 16.5t5.5 2.5t5.5 -13.5zM234 143q0 -8 5.5 -11t5.5 -11q2 0 5 -1q6 -2 6 -10q0 8 -6 10q-3 1 -5 1q0 7 -6 15q-3 4 -5 7q-8 8 -11 16.5t-11 16.5q0 8 5.5 2.5t5.5 -13.5t5.5 -11
t5.5 -11zM729 187q-33 -83 -96 -129.5t-146 -46.5q-17 0 -27.5 5.5t-27.5 5.5q-3 2 -7 5q-8 6 -15 6q-8 8 -11 9.5t-11 1.5h-11q0 8 -7 11t-15 11h11v-11v11q-8 0 -9.5 1.5t-1.5 9.5l11 -11h-11l-11 11v11h-11q-17 17 -26.5 40t-17.5 48v22v-11v-11q0 -8 5.5 -16.5
t5.5 -16.5v11q0 8 -1.5 16.5t-9.5 16.5v11l33 -66h11v-11q8 -8 9.5 -11t1.5 -11q8 -8 16.5 -11t16.5 -11t16.5 -9.5t16.5 -1.5l11 -11h33q-12 4 -21 6.5t-16 4.5t-14 4.5t-15 6.5q17 -8 33 -11t33 -11q8 0 22 -5.5t22 -5.5q25 8 42.5 16.5t34.5 16.5q25 17 48 34.5t40 42.5
q-33 -33 -66 -33q-21 0 -37 15.5t-27.5 42.5t-17.5 63t-6 77q0 4 1 24t6 46t16 52t32 43q-17 8 -27.5 11t-27.5 11q-12 8 -30 6t-31.5 -7.5t-17.5 -9.5t13 0q-25 -4 -40.5 -9.5t-28 -11t-24.5 -9t-28 -3.5q-13 0 -17 5q-5 4 -2.5 13t19.5 26q12 8 33.5 19.5t45 22t46.5 17.5
t40 7q49 -4 93.5 -22t79.5 -45.5t59 -64t32 -77.5q8 -50 1.5 -92t-23.5 -84zM465 22q8 0 11 -5.5t11 -5.5q0 8 -7 9.5t-15 1.5zM289 286v-11v11zM278 253v-11v11zM256 154v-11v11zM278 253h11h-11zM278 154h11h-11zM278 154v11v-11zM311 88q0 8 -5.5 11t-5.5 11l11 -11v-11z
M751 418v11v-22v11zM278 242v-11v11zM256 132v11v-11zM256 154h-11h11zM289 88v-11q-8 8 -9.5 11t-1.5 11v-11h11zM300 231v11q0 8 1.5 20.5t9.5 12.5v22q0 8 7 22t15 22t16.5 15t16.5 7q7 7 10 4q1 -1 1 -4h-11q8 0 22 -2.5t22 -19.5q8 -13 5.5 -22.5t-8.5 -17.5
q-7 -9 -19 -15q-50 -17 -66 0q-8 0 -9.5 1.5t-1.5 9.5v-11q-8 -17 -9.5 -32t-1.5 -23q0 -17 5.5 -33t5.5 -33q4 -4 3 -2.5t-4 5.5t-6.5 9.5t-3.5 9.5v22v22zM784 748q8 0 11 5.5t11 5.5l11 11q0 -3 -1 -6q-2 -5 -10 -5q-3 -3 -7 -6q-7 -5 -15 -5q-8 -8 -16.5 -11t-16.5 -11
q-5 0 -5 1.5t1 3.5q1 3 4 6h22q0 2 1 5q2 6 10 6zM795 770h-11h11zM850 803h11h-11zM850 803q0 -8 -7 -9.5t-15 -1.5q8 0 9.5 -1.5t1.5 -9.5h-11q8 8 11 9.5t11 1.5v11zM828 858q12 -8 13.5 -18t-2.5 -18t-11 -13.5t-11 -5.5q-8 -8 -23 -15t-32 -7q-8 -8 -17.5 -11
t-26.5 -11l11 11h11q8 8 11 9.5t11 1.5l-11 11q-17 8 -17 23t17 32q10 9 22 14q11 4 24.5 4.5t30.5 -7.5zM773 352v11v11q0 8 -6 10q-3 1 -5 1v11q9 -11 10 -15t1 -7q0 -8 5.5 -11t5.5 -11q0 -5 -2 -5t-4 1q-3 1 -5 4zM784 759v11v-11zM784 759h-11h11zM784 275v22v-22v-22
v-33q-8 -33 -19 -60.5t-36 -60.5q0 -3 -1 -6q-2 -5 -10 -5q-8 -17 -23 -37.5t-32 -28.5q-8 0 -15.5 -3.5t-12 -6.5t-3.5 -4t9 3q-17 -8 -26.5 -13.5t-17.5 2.5q-5 3 -8 7q-2 3 -1 6.5t9 8.5q8 0 16.5 11t16.5 11q25 17 42.5 34.5t34.5 42.5q8 8 16.5 22t16.5 22
q8 25 15 49.5t7 49.5v11l11 11v11v11v11q0 8 -1.5 16.5t-9.5 16.5l11 11v-11v-11v22q0 -8 1.5 -16.5t9.5 -16.5v-11q-5 0 -5 -2t1 -4q1 -3 4 -5v-11v-11v-11zM762 264h11h-11zM234 165q-8 8 -11 16.5t-11 16.5v11v11q0 8 -5.5 11t-5.5 11t-5.5 11t-5.5 11q0 4 -1.5 8t-2.5 6
t-0.5 1.5l4.5 -4.5v-33q0 8 -1.5 16.5t-9.5 16.5v33v44q0 50 2.5 97.5t19.5 89.5q8 8 11 16.5t11 16.5q8 25 20.5 53.5t45.5 45.5q2 0 5 1q6 2 6 10h-33q-17 4 -34.5 8t-34 8.5t-30.5 8.5t-22 8q-17 8 -26.5 11t-17.5 11q0 8 -7 11t-15 11q0 -3 1 -6q2 -5 10 -5q-8 0 -10 5
q-1 3 -1 6q-17 0 -23.5 4t1.5 -4q-8 8 -16 13t-14 9t-10 9t-4 13q3 6 8 10q4 3 10.5 4t14.5 -3h11h22q4 -4 12 -10t17 -12t19 -12t18 -10q8 0 11 -5.5t11 -5.5q25 -8 56.5 -15t64.5 -7q17 -8 33 -9.5t33 -1.5h22h11h33h22q33 0 66 1.5t66 9.5h22l11 11h11h11q8 0 11 1.5
t11 9.5v-11h-11h11v11h11q17 0 27.5 7t27.5 15h22h-11l-11 -11h-11q8 0 15 1.5t7 9.5q-8 -8 -16.5 -15t-16.5 -7v-11h-11h-11q-8 0 -11 -5.5t-11 -5.5t-11 -5.5t-11 -5.5h-11q-8 0 -13.5 -5.5t2.5 -5.5q8 8 16.5 11t16.5 11q-8 -8 -16.5 -11t-16.5 -11h-44l-11 -11
q8 0 17.5 1.5t26.5 9.5h22h11h11h-11h11h11q8 0 11 5.5t11 5.5h11q17 0 32 7t23 15h22l-11 -11v11v-11h-22h22q-8 0 -16.5 -5.5t-16.5 -5.5v-11h-11h-11q-8 0 -11 -5.5t-11 -5.5h-22q0 -5 -2 -5t-4 1q-3 1 -5 4q-8 -8 -13.5 -9.5t2.5 -1.5t16.5 1.5t16.5 9.5
q-8 -8 -16.5 -9.5t-16.5 -1.5q-8 -8 -22 -9.5t-22 -1.5t-23 -5.5t-32 -5.5h-110q-8 -8 -16.5 -15t-16.5 -7q-25 -25 -44 -56.5t-44 -64.5q-8 -17 -15 -33t-7 -33q-17 -41 -19.5 -77t-2.5 -77v-22v-11h-11h11q-8 0 -8 -1.5t8 -9.5v-11h-11h11v-11v-11q0 -8 1.5 -22t9.5 -22
v-11v11l-11 11q0 -8 1.5 -11t9.5 -11q-8 8 -11 16.5t-11 16.5v11v11q0 8 -5.5 11t-5.5 11v22q0 8 -5.5 13.5t-5.5 -2.5t1.5 -16.5t9.5 -16.5q-8 8 -9.5 17.5t-1.5 26.5v22q0 17 -5.5 27.5t-5.5 27.5q8 33 11 60.5t11 60.5q0 -8 -5.5 -22t-5.5 -22q-8 -42 -9.5 -76t-1.5 -67
v-22v-22v-11q0 -3 1 -6q2 -5 10 -5h-11h11v-11v-11q0 -8 1.5 -17.5t9.5 -26.5v-11v11q0 2 -1 5q-2 6 -10 6q0 -8 1.5 -11t9.5 -11zM674 726v-11q0 8 -5.5 8t-5.5 -8zM608 704q-8 8 -11 8t-11 -8h22zM564 737h22h-22zM245 319v-11q3 0 4 1q2 2 -4 10zM212 297v11v-11z
M751 385h11h-11zM377 363v11v-11z" />
    <glyph glyph-name="uni0403" unicode="&#x403;" horiz-adv-x="662" 
d="M647 418l11 -11q-8 0 -10 5q-1 3 -1 6zM636 451v-11q0 -8 -1.5 -16.5t-9.5 -16.5q-13 -13 -24.5 -12.5t-20.5 5.5q-11 6 -21 18q-17 17 -18 37.5t7 28.5q8 0 9.5 1.5t1.5 9.5h-11l-11 11h-11q-8 0 -9.5 4t-1.5 -4v11h-11h-22q-66 33 -132 33q-25 0 -42.5 -1.5t-34.5 -9.5
h-33q22 -14 35.5 -37t21 -51t9.5 -56.5t2 -53.5t-1 -42.5t-1 -23.5q0 -58 -8 -108t-22.5 -87t-34.5 -58.5t-45 -21.5q-21 0 -39 21.5t-32.5 58.5t-24.5 87t-14 108q0 4 0.5 28t3.5 57t10 69.5t19 65.5q-8 -8 -16.5 -15t-16.5 -7q-8 -5 -12.5 -3.5t-6.5 4.5q-3 4 -3 10
q0 8 2 13t6 9t10.5 9t14.5 13q-4 -4 -1 -4t10.5 3t17 9t17.5 14q0 8 12.5 15t20.5 7q-17 -8 -33.5 -12.5t-32.5 -20.5q-4 0 -11.5 -3.5t-16 -9t-16 -11t-11.5 -9.5q-14 0 -19 11q-3 4 -3 11q0 8 2 13t7.5 9t14 9t20.5 13q-8 -4 -7 -4.5t7 1.5t15.5 6t17.5 8q8 12 20 19
t25.5 10t27.5 3.5t26 0.5q8 8 16.5 9.5t16.5 1.5q42 0 82.5 -7t82.5 -15q17 0 26.5 -7t17.5 -15h22q8 -8 16.5 -11t16.5 -11q-8 8 -12.5 9.5t-20.5 1.5q0 6 5 4q3 -1 6 -4q0 -4 1.5 -5t4 -1t4 -0.5t1.5 -4.5h11q0 -8 1.5 -4t9.5 4q0 -8 1.5 -11t9.5 -11h11q8 -8 15 -16.5
t7 -16.5q0 8 -1.5 9.5t-9.5 1.5h11v-11h11h-11q-17 8 -26.5 16.5t-17.5 16.5h-11l11 -11h11l11 -11q8 0 11 -5.5t11 -5.5h11v-11h11h11v-11q7 0 15 -6q4 -3 7 -5zM240 583q-8 0 -22 -5.5t-22 -5.5q8 0 22 5.5t22 5.5zM251 583h33h-11h-22zM460 561h-11h11zM482 528
q0 -8 1.5 -8t9.5 8h-11zM482 550q2 0 5 -1q6 -2 6 -10v11h-11h-11h11zM570 517h-11q-3 2 -4 5q-1 2 -1 4t5 2l22 -22l22 -22h-11v22q-3 -3 -6 -4q-2 -1 -3.5 -1t-1.5 5zM141 726q0 -3 1 -6q2 -5 10 -5q-3 0 -6 1q-5 2 -5 10zM152 726h-11h11zM152 726h-11h11zM152 715h11
v-11h11q8 0 16.5 -5.5t16.5 -5.5q-8 17 -1.5 32t23.5 23q0 4 5.5 9t13.5 7.5t18 -1t18 -15.5q8 -8 9 -16t-2 -14t-8.5 -10t-9.5 -4q0 -8 -1.5 -9.5t-9.5 -1.5l-11 -11h-22h-11q-8 0 -16.5 1.5t-16.5 9.5h-11q0 8 -1.5 9.5t-9.5 1.5v11h-11z" />
    <glyph glyph-name="uni0404" unicode="&#x404;" horiz-adv-x="760" 
d="M399 11h-11q7 7 10 4q1 -1 1 -4zM399 0h11h11h-11h-22h-33l11 11q8 0 10 -6q1 -3 1 -5h11h11zM344 11h-11q0 2 -1 5q-2 6 -10 6h-11h-22v11h-11q8 -8 11 -9.5t11 -1.5q-8 0 -11 1.5t-11 9.5q-8 0 -15 5q-4 3 -7 6q-8 0 -22 5.5t-22 5.5q-33 25 -63 51t-47 59q-8 8 -11 15
t-11 7q-4 12 -11.5 24.5t-13.5 25t-9 25t1 24.5q0 8 -1.5 17.5t-4 15.5t-4 7t-1.5 -7q0 12 -1.5 21t-1.5 15t3 10.5t11 8.5q3 3 7 3q7 0 15 -14q0 -4 1.5 -11.5t4 -16t4 -16t1.5 -11.5q0 -17 5.5 -31.5t13.5 -29t18 -29.5t18 -31q8 -8 16.5 -23t16.5 -32q25 -17 49.5 -34.5
t49.5 -42.5h22l11 -11h11q0 -8 1.5 -9.5t9.5 -1.5h-11h11h11q8 -8 16.5 -9.5t16.5 -1.5l11 -11h-11q0 8 -1.5 9.5t-9.5 1.5v-11q3 0 4 1q2 2 -4 10q8 -8 11 -9.5t11 -1.5h-33zM267 66q0 -8 5 -10q3 -1 6 -1q-8 0 -9.5 1.5t-1.5 9.5zM454 11h11h-22h11zM201 407
q8 37 26.5 50.5t38 14.5t36 -4.5t20.5 -5.5q50 -17 73 -47t15 -63q-4 -17 -16 -27t-28.5 -15.5t-36 -5.5t-40.5 4q-4 0 -21.5 3t-35 13.5t-28.5 30t-3 52.5zM696 275q12 5 19 1q6 -3 8.5 -15t-5.5 -41q-8 -17 -25.5 -40t-39 -45.5t-45 -41.5t-44.5 -27q-58 -21 -114.5 -23
t-108 12t-96 45t-77.5 76q-33 42 -49.5 96.5t-16.5 112.5q-4 49 7.5 97.5t36.5 89.5t61.5 72.5t81.5 48.5q17 8 32 9.5t23 1.5h33h11h22h11q8 0 16.5 -1.5t16.5 -9.5h-11v11v-11h11h11h-11h11h11l11 -11h11q25 -8 48 -30t40 -47l11 -22v11l-11 11q0 8 -7 16.5t-15 16.5v-11
q8 -8 16.5 -17.5t16.5 -26.5q-17 17 -33 32t-33 23h-11q0 8 -6 10q-3 1 -5 1q-8 0 -11 5.5t-11 5.5q-8 8 -22 9.5t-22 1.5h-11h-33q-8 0 -15 5q-4 3 -7 6q-4 -4 -11 -8t-12.5 -7t-6 -5t7.5 -2q17 8 33 9.5t33 1.5q-17 0 -34.5 -1.5t-42.5 -9.5q-8 0 -23 -1.5t-32 -9.5
q-17 -17 -33 -34.5t-33 -42.5q-33 -41 -48 -87.5t-14 -93t17 -90.5t45 -81q8 -17 22 -26.5t22 -17.5q29 -25 59.5 -36.5t60.5 -14.5t58 0t53 7q25 0 46 10t33.5 20.5t13 16t-15.5 -2.5q25 16 40.5 30.5t28 27t24 23t28.5 18.5zM311 693q-8 0 -16.5 -1.5t-16.5 -9.5
q8 0 16.5 5.5t16.5 5.5zM641 517v11v-11zM586 594v-22q8 -8 15 -16.5t7 -16.5v-11q0 -17 5.5 -26.5t5.5 -17.5v-22v11q0 12 -2 21t-5 16t-7 14t-8 15q-8 17 -17.5 33t-26.5 33q-4 4 -1 4.5t9 -1.5t13.5 -6t11.5 -8zM630 550v-11v11zM641 484v11v11v-22zM630 528q8 0 8 1.5
t-8 9.5l11 -11h-11zM608 429q-8 -17 -23 -29t-32 -4q-4 0 -8 5.5t-7 13.5t-5 18t-2 18q0 4 2.5 13t8.5 17t16.5 13t27.5 1q16 -4 21.5 -13.5t5.5 -19.5t-2.5 -19.5t-2.5 -13.5zM586 341v11v-11zM597 352h-11q8 8 16.5 22t16.5 22q0 -8 -4 -8t4 8v11q0 -17 -7 -26.5
t-15 -17.5v-11z" />
    <glyph glyph-name="uni0405" unicode="&#x405;" horiz-adv-x="580" 
d="M298 605h-11h22v11h11q-8 -8 -11 -9.5t-11 -1.5zM67 374l11 11zM89 396l-11 -11v11h11zM78 385h11h-11zM353 638l11 11v-11h-11zM320 627q0 -8 -7 -15t-15 -7q-4 0 -9.5 0.5t-11 3.5t-9 10t-3.5 19q4 8 10 11t11 3q6 0 12 -3q8 0 15 -7t7 -15zM177 418h-11q16 16 33 0h11
h-33zM210 418h11h-11zM364 682l-11 -11v-11v-11q-8 0 -10 -6q-1 -3 -1 -5l-11 -11l11 11q2 3 5 7q6 8 6 15v33q0 6 5 -1q3 -4 6 -10zM144 517v11v-11zM364 649h-11h11zM364 649v11v-11zM507 187q-17 -42 -42.5 -73t-67.5 -48q-33 -21 -69.5 -31t-72.5 -7.5t-70 17t-63 43.5
l-33 33q-8 8 -9.5 11t-1.5 11h-11q0 8 -1.5 11t-9.5 11v11q-3 3 -6 7q-5 7 -5 15v11q-4 12 -7.5 26.5t-4.5 28.5t1.5 28.5t10.5 26.5v11q3 2 7 5q8 6 15 6q0 8 7 11t15 11t15 16.5t7 16.5h22h-11l-33 -33q8 8 15 10q4 1 7 1q41 16 72.5 16t55 -10.5t40 -27.5t27 -35
t16.5 -33t9 -20q8 -25 12 -51t3 -49.5t-7.5 -43.5t-18.5 -32q25 4 45.5 15.5t37 28t29 36.5t20.5 41q0 17 1.5 27.5t9.5 27.5q4 25 -2.5 47.5t-18 44.5t-24.5 42.5t-21 41.5q-12 12 -28.5 22t-29 15t-16.5 4.5t8 -8.5q-21 12 -36 17.5t-27.5 8.5t-23.5 6.5t-23 11.5h-11
q0 8 -6 10q-3 1 -5 1q-25 8 -43.5 24t-29.5 35.5t-15 41t0 42.5q0 25 8 48t25 40q16 16 36 28.5t41 18.5t40.5 5.5t36.5 -8.5q8 -8 15 -11t7 -11h11v-11h11v-11q8 0 9.5 -1.5t1.5 -9.5v11v-11v-11h11q0 -8 1.5 -14.5t2.5 -13t0.5 -13t-4.5 -14.5v-11v11v22v-11v-22v44h-11
v11v11q-3 0 -6 1q-5 2 -5 10l-11 11q0 2 -1 5q-2 6 -10 6q-3 3 -6 4q-5 2 -5 -4q8 0 15 -7t7 -15q0 8 -7 15t-15 7q0 8 -7 9.5t-15 1.5h-44q-42 -8 -70.5 -38t-28.5 -72v-22q0 -17 5.5 -29.5t13.5 -23t18 -19t18 -16.5q7 -8 15 -10q4 -1 7 -1h11h11h22h33q2 0 5 -1
q6 -2 6 -10q25 0 53.5 -13.5t45.5 -30.5q37 -29 62 -67t37 -79t12 -83t-12 -79zM309 792l-11 11q0 -8 5 -10q3 -1 6 -1zM56 187v11h-11zM111 99q2 -3 5 -7q6 -8 6 -15q0 8 -5.5 11t-5.5 11zM562 253v-22q-8 0 -9.5 -7t-1.5 -15v-22q-8 -33 -23 -59t-32 -51l-11 -11
q-17 -17 -27.5 -30.5t-27.5 -13.5q-8 -4 -15.5 -8t-12 -7t-3.5 -5t9 -2q-12 0 -19 -1.5t-11 -2.5t-7 -0.5t-7 4.5q-4 0 -7.5 2t-4.5 5t1.5 7t10.5 8q8 8 16.5 11t16.5 11q25 8 42.5 23t34.5 32q8 8 16.5 17.5t16.5 26.5t16.5 40t16.5 48v11v11v11v11h11h-11q16 16 0 33
l11 11v-11v-11v22v-33v-11l11 -11h-11v-11v-11q0 -3 1 -6q2 -5 10 -5v22zM540 220v11v-11zM540 264h11h-11zM353 627v11v-11zM540 363l-11 11v11v-22q0 8 5.5 8t5.5 -8zM551 330v11v11v-22q0 -8 5.5 -11t5.5 -11q0 -5 -2 -5t-4 1q-3 1 -5 4v11v11zM540 341v-11v11zM89 594
v11q-8 17 -9.5 33t-1.5 33v11q8 17 11 26.5t11 17.5q0 4 1.5 8t2.5 6t0.5 1.5l-4.5 -4.5q8 8 11 15t11 7q2 0 5 -1q6 -2 6 -10q-8 -8 -11 -15t-11 -7q-8 -8 -9.5 -23t-1.5 -32q0 -8 -5.5 -11t-5.5 -11q8 -17 9.5 -32t1.5 -23v-11h11v-11v-11l11 -11q-3 0 -6 1q-5 2 -5 10
q-3 0 -6 1q-5 2 -5 10v11v-11v11q-8 0 -10 5q-1 3 -1 6zM122 539q2 0 5 -1q6 -2 6 -10q0 8 -6 10q-3 1 -5 1q0 2 -1 5q-2 6 -10 6h11v-11zM100 407q0 -3 -1 -6q-2 -5 -10 -5q8 8 11 9.5t11 1.5h-11z" />
    <glyph glyph-name="uni0406" unicode="&#x406;" horiz-adv-x="252" 
d="M144 583q-33 -8 -62 -7t-37 18q-17 25 -3 48t47 40q0 4 11 12t26.5 11t32.5 -3t29 -31q12 -21 6.5 -37.5t-16.5 -27.5q-13 -13 -34 -23zM210 275q0 -58 -6 -108t-17.5 -87t-27.5 -58.5t-37 -21.5q-17 0 -31 21.5t-25.5 58.5t-19.5 87t-12 108q0 5 -0.5 28t1 53.5t6 64.5
t14.5 62.5t26 47.5t41 19q27 0 45 -19t29 -47.5t15.5 -62.5t5 -64.5t-1.5 -53t-5 -28.5z" />
    <glyph glyph-name="uni0407" unicode="&#x407;" horiz-adv-x="330" 
d="M61 660h-11h11v11v-11zM61 660h-11h11zM50 671h-11h11zM281 649h11h-11v-11h-11q2 0 5 1q6 2 6 10zM270 638h-11l-11 -11h-11h11h-11q-8 0 -9.5 -1.5t-1.5 -9.5h-22q-17 0 -33 -4t-33 4h-22q-8 0 -22 1.5t-22 9.5q-6 3 -10 4q-8 2 -1 -4q-8 8 -15 11t-7 11h11
q8 0 16.5 -5.5t16.5 -5.5q8 -8 23 -9.5t32 -1.5h22h66h11v11h11h22h-11h11zM215 627h11h-11zM160 550q27 0 45.5 -19t29.5 -47.5t16 -62.5t7 -64.5t1.5 -53t-0.5 -28.5q-4 -58 -12.5 -108t-20.5 -87t-28.5 -58.5t-37.5 -21.5q-17 0 -31 21.5t-25.5 58.5t-19.5 87t-12 108
q0 5 -0.5 28t1 53.5t6 64.5t14.5 62.5t26 47.5t41 19zM72 693q-8 8 -16.5 13.5t-16.5 -2.5h-11v-22q-5 0 -5 -2t1 -4q1 -3 4 -5v-11q-3 3 -6 7q-5 7 -5 15t2.5 16.5t19.5 16.5h11q8 0 16.5 -7t16.5 -15v-11h-11v-11l-11 -11q0 2 1 5q2 6 10 6h-11v-11q0 8 1.5 9.5t9.5 1.5
v11v11zM72 682q8 8 8 9.5t-8 1.5v-11zM281 649h-11h11zM270 649h11h-11zM270 649q-8 -4 -16 -7.5t-15.5 -4.5t-13.5 1.5t-10 10.5q-8 8 -7 23t18 32q10 8 21 12q9 3 20.5 1.5t24.5 -13.5q8 -8 7.5 -18t-6 -18t-12.5 -13.5t-11 -5.5z" />
    <glyph glyph-name="uni0408" unicode="&#x408;" horiz-adv-x="674" 
d="M281 11q8 -8 16.5 -9.5t16.5 -1.5q-8 0 -16.5 5.5t-16.5 5.5zM94 154q-3 3 -6 7q-5 7 -5 15q2 -3 5 -7q6 -8 6 -15zM567 220q-17 -45 -43 -85t-60 -70t-75 -47.5t-86 -17.5q-8 0 -23 1.5t-32 9.5h-22v11h-11q-3 0 -6 1q-5 2 -5 10h-11q-8 8 -16.5 11t-16.5 11h11v-11h11
h-11v11l-11 11l11 -11h-11l-11 11q0 2 -1 5q-2 6 -10 6q-17 25 -32 51t-23 59v22q0 8 1.5 16.5t9.5 16.5q8 12 22 18.5t30.5 6.5t34 -6.5t34.5 -18.5q0 -4 13 -16t24 -29.5t14 -39.5t-18 -47q-33 -50 -66 -33q0 -8 1.5 -9.5t9.5 -1.5t16.5 -5.5t16.5 -5.5l11 -11h22
q-17 8 -27.5 11t-27.5 11q8 0 24.5 -7t41.5 -15h55q17 8 38.5 17.5t38.5 26.5q41 25 68 62.5t40.5 82t13.5 92.5t-12 93q-8 17 -15 33t-7 33l-22 22q-25 -12 -57.5 -15.5t-62.5 -2.5t-52 4t-26 3q-25 0 -49.5 3.5t-47 9t-43 11t-36.5 9.5q-3 0 -6 1q-5 2 -5 10
q-25 17 -40 27.5t-15 27.5q0 16 15.5 30.5t43.5 24.5t66.5 16t83.5 6q8 0 16.5 5.5t16.5 5.5q25 0 48 -5.5t40 -5.5q25 -4 52 -11t49.5 -18t37.5 -28t15 -42q49 -66 66 -132q8 -50 7 -106t-18 -114zM545 99q2 3 5 4q6 2 6 -4l-22 -22l-11 -11q-8 0 -10 -6q-1 -3 -1 -5
q0 8 5 10q3 1 6 1l11 11q0 8 5 10q3 1 6 1v11zM578 198q8 0 9.5 1.5t1.5 9.5zM633 396q8 -41 2.5 -77t-13.5 -77q0 -8 -7 -22t-15 -22v-22q-8 -8 -9.5 -11t-1.5 -11q0 8 1.5 11t9.5 11q0 6 -6 4q-3 -1 -5 -4v-11q0 -8 -6 -10q-3 -1 -5 -1v-11q-3 0 -6 -1q-5 -2 -5 -10v-11
h-11q0 -7 -6 -15q-3 -4 -5 -7v11v-11h-11l11 11q0 8 5.5 16.5t5.5 16.5h11v11v11q8 0 10 5q1 3 1 6v11v22q8 25 15 56.5t7 64.5v66q-8 33 -12.5 60.5t-20.5 60.5q-8 8 -16.5 22t-16.5 22q0 14 5 19q3 3 6 3q8 0 13 -2t9 -6t9 -10.5t13 -14.5q-8 8 -2.5 -4t13.5 -29
q8 -8 13 -20t8 -24t5.5 -24t6.5 -20v-33zM490 33h-11h11zM490 44q0 2 1 5q2 6 10 6q-8 -8 -9.5 -8t-1.5 8v-22l-11 11h11z" />
    <glyph glyph-name="uni0409" unicode="&#x409;" horiz-adv-x="1011" 
d="M28 44v-11v11zM28 110q0 3 1 7q2 7 10 15h-11h11q0 -3 -1 -7q-2 -7 -10 -15zM50 176v11v-11zM28 110v-11v11zM963 308q8 -33 4.5 -65.5t-17 -61t-35.5 -53t-51 -40.5q-33 -25 -71.5 -34.5t-71.5 -9.5q-50 0 -89.5 22t-64.5 55l-33 -33h11v-11h11h11v-11h11q2 0 5 -1
q6 -2 6 -10q17 -8 34.5 -15t42.5 -7q17 0 26.5 -5.5t17.5 -5.5q25 0 48 2.5t40 19.5q9 0 21 5l12 6q8 0 12.5 -2t6.5 -4q3 -3 3 -5q-8 -8 -12.5 -11t-20.5 -11q4 0 2.5 0t-5.5 -1t-9.5 -3.5t-9.5 -6.5q-8 -8 -28.5 -9.5t-37.5 -1.5h-22q-25 0 -49.5 7t-49.5 15q-8 8 -15 11
t-7 11q-8 0 -11 1.5t-11 9.5q-3 0 -6 1q-5 2 -5 10q0 -8 5 -10q3 -1 6 -1h-11v11h-11v11h-11v11h-11q-21 0 -37.5 17.5t-28.5 48.5t-20.5 73t-12.5 92q0 4 0.5 21t2.5 39.5t6.5 47.5t12.5 46q-8 0 -22 -5.5t-22 -5.5q-25 -8 -48 -17.5t-40 -26.5q-42 -25 -76 -56.5
t-67 -64.5q-8 0 -11 -7t-11 -15l-11 -11q-3 0 -6 -1q-5 -2 -5 -10l-11 -11v-11h-11v-11q-8 -8 -16.5 -23t-16.5 -32l-11 -11l11 11q0 8 5 15q3 4 6 7q-8 -8 -9.5 -11t-1.5 -11q0 8 1.5 17.5t9.5 26.5v11q8 0 9.5 1.5t1.5 9.5q8 0 9.5 7t1.5 15q8 8 9.5 11t1.5 11h11
q4 4 6.5 9.5t3.5 9.5t1 5.5t0 -2.5l-33 -33l33 33q0 8 7 16.5t15 16.5t16.5 17.5t16.5 26.5q25 16 48 34t47 34.5t49 30.5t54 22q8 8 16.5 11t16.5 11h22q-8 0 -16.5 -1.5t-16.5 -9.5q-50 0 -99 -33q-42 -17 -76 -41.5t-67 -57.5q-8 -8 -15 -11t-7 -11l-11 -11q-8 0 -10 -6
q-1 -3 -1 -5q-8 -8 -9.5 -11t-1.5 -11v11v-11h-11h11l-11 -11q-8 -17 -16.5 -27.5t-16.5 -27.5l-11 -11l11 11q0 3 1 7q2 7 10 15h-11v-11q-3 -3 -6 -7q-5 -7 -5 -15q0 17 5.5 26.5t5.5 17.5l11 11v11q2 0 5 1q6 2 6 10q0 3 1 7q2 7 10 15q0 8 5.5 11t5.5 11h11q0 4 1.5 9.5
t2.5 9.5t0.5 5.5t-4.5 -2.5q-8 -8 -11 -16.5t-11 -16.5q8 8 11 16.5t11 16.5l33 33q8 8 16.5 17.5t16.5 26.5q25 16 48 32t47 29.5t49 23.5t54 14q8 8 16.5 9.5t16.5 1.5q21 4 41.5 9.5t40 8.5t37.5 2t35 -9q12 -4 25.5 -8t22.5 -6t12 -1.5t-5 4.5q16 -4 29 -7t22 -7
t15.5 -11t10.5 -19q2 -7 1 -11q-1 -5 -6 -8t-17 -3h-11q-17 0 -44 1.5t-44 9.5q12 -25 17 -55.5t6 -58.5t0 -48.5t-1 -24.5q0 -42 -7 -76t-15 -67q17 -25 36 -41.5t52 -24.5q8 -8 22 -9.5t22 -1.5q33 -4 65 2t60 22.5t50 43.5t34 64q0 17 5.5 33t5.5 33q0 8 -5.5 16.5
t-5.5 16.5q-8 17 -15 26.5t-7 17.5q8 -8 11 -17.5t11 -26.5v22q0 8 -6 10q-3 1 -5 1q-8 8 -9.5 11t-1.5 11q-8 6 -10 4q-1 -1 -1 -4q-8 8 -11 15t-11 7q0 8 -6 10q-3 1 -5 1h-11q0 8 -1.5 9.5t-9.5 1.5q-8 8 -22 9.5t-22 1.5h33q-8 8 -16.5 9.5t-16.5 1.5v-11h-11q0 8 11 10
q4 1 11 1q17 0 38.5 -7t38.5 -15v-11h11l11 -11h-11h11q0 -8 1.5 -9.5t9.5 -1.5q-3 0 -6 1q-5 2 -5 10l22 -22q0 -3 1 -6q2 -5 10 -5v-11l11 -11q8 -8 9.5 -17.5t1.5 -26.5zM160 363q0 8 1.5 9.5t9.5 1.5q-3 0 -6 -1q-5 -2 -5 -10zM160 297q2 0 5 1q6 2 6 10zM589 55h-11h11
zM963 330v-22v22zM61 132v11v-11zM61 187v11v-11zM61 121q17 8 25 -4t8 -29q0 -4 1 -13t0 -18.5t-6 -16.5t-17 -7q-17 0 -25 7t-8 15v-11h-11l11 11v22v22v11q0 8 5.5 16.5t5.5 16.5t1.5 13t4 9t4 9t1.5 13q4 4 4.5 2.5t-0.5 -5.5t-2.5 -9.5t-1.5 -9.5q-8 -8 -10 -15
q-1 -4 -1 -7v-11q0 -3 -1 -7q-2 -7 -10 -15q8 8 11 9.5t11 1.5v11v-11zM699 308q-13 0 -19.5 7t-9.5 15q-4 10 -4 22q8 17 16.5 30.5t16.5 13.5q17 0 25 -13.5t8 -30.5q0 -4 -0.5 -11.5t-3.5 -14.5t-10 -12.5t-19 -5.5zM677 385q-8 -8 -9.5 -16.5t-1.5 -16.5q-3 0 -6 1
q-5 2 -5 10h11q0 8 1.5 15t9.5 7zM655 352h11l-11 -11v11zM732 440l11 11zM754 429q8 8 16.5 5.5t16.5 5.5q0 -5 1.5 -5t3.5 1q3 1 6 4q4 0 9.5 -1.5t9.5 -4t5.5 -4t-2.5 -1.5h-55q-8 0 -22 -1.5t-22 -9.5l-11 -11q0 8 5 10q3 1 6 1q8 8 16.5 9.5t16.5 1.5zM721 440
q0 -8 -1.5 -9.5t-9.5 -1.5zM61 198v11v-11zM743 451h11h-11zM39 176l-11 -11l11 11q0 8 1.5 22t9.5 22q0 8 1.5 17.5t9.5 26.5v-22q-3 0 -6 -1q-5 -2 -5 -10v-22h-11v-33zM743 440v11v-11z" />
    <glyph glyph-name="uni040A" unicode="&#x40a;" horiz-adv-x="989" 
d="M394 121h11v-11q-8 0 -11 7t-11 15v11q-8 0 -10 5q-1 3 -1 6q0 -8 5 -10q3 -1 6 -1v-11h11v-11zM361 176q8 0 9.5 -1.5t1.5 -9.5q0 8 -6 10q-3 1 -5 1zM394 143h-11v11zM394 143v-11v11zM933 374q12 -41 7 -80t-22.5 -74t-45 -65.5t-60.5 -55.5q-42 -25 -84 -34.5
t-92 -9.5q-41 0 -81 17.5t-73 47.5t-56.5 70t-31.5 85q0 8 -5.5 16.5t-5.5 16.5h-22h-11q0 -62 -9.5 -118t-26 -98t-38.5 -67t-47 -25q-21 0 -39 19.5t-33.5 53.5t-28 80t-20.5 100q-8 -8 -22 -16.5t-22 -16.5q-13 0 -19.5 3t-9.5 8q-4 4 -4 11q0 8 4 13t10 10.5t14 12.5
t16 19q-8 -8 4 -7t29 18v11q0 5 -1 30t0.5 59.5t7.5 73t19.5 70.5t36 53.5t58.5 21.5q45 0 71.5 -30.5t40 -74t17 -90.5t3.5 -80h33q0 33 12.5 57.5t20.5 41.5q12 20 20.5 24.5t13.5 1.5q6 -4 10 -15q4 -17 1 -30t-8 -26.5t-10 -28.5t-5 -36q8 0 15 -1.5t7 -9.5
q17 0 26.5 -7t17.5 -15h33q14 -8 25 -15q4 -4 8 -7q-8 0 -12.5 5.5t-20.5 5.5q0 8 5.5 2.5t5.5 -13.5h11q8 0 9.5 -1.5t1.5 -9.5q16 8 32 12.5t29.5 6.5t23.5 2.5t14 0.5q33 4 65 4t59 -5.5t46.5 -16t27.5 -26.5q0 8 5.5 11t5.5 11q8 17 9.5 38.5t1.5 38.5q0 8 -5.5 22
t-5.5 22q-8 17 -16.5 32t-16.5 23q16 -8 20.5 -18t12.5 -26q4 -8 4.5 -7.5t-0.5 6t-2.5 12.5t-1.5 11q-3 0 -6 1q-5 2 -5 10l-22 22q-8 8 -16.5 20.5t-16.5 12.5q-3 0 -6 1q-5 2 -5 10h-11h-11q-17 8 -33 15t-33 7h44h11q-8 8 -17.5 9.5t-26.5 1.5q-8 0 -9.5 -1.5t-1.5 -9.5
q0 8 11 10q4 1 11 1q25 0 48 -8t40 -25h11l11 -11l11 -11h-11h11l11 -11l-11 11v11q0 -8 7 -15t15 -7v-11q0 -8 5 -10q3 -1 6 -1l11 -11h-11h11q0 -3 1 -7q2 -8 10 -15q0 -8 5.5 -22t5.5 -22zM526 286h-11h11zM504 187q0 33 15 51t40 26v11h-11q-8 0 -16.5 1.5t-16.5 9.5
q-17 0 -33 5.5t-33 5.5q0 -8 1.5 -16.5t9.5 -16.5q8 -17 17.5 -38.5t26.5 -38.5v0zM922 385q8 0 9.5 -7t1.5 -15q0 8 -1.5 15t-9.5 7zM779 66q8 0 13.5 -5.5t-2.5 -5.5q0 -8 -2 -13t-6 -8t-10.5 -5.5t-14.5 -6.5q8 4 7.5 4.5t-6 -1.5t-12.5 -6t-11 -8q-17 -8 -40 -9.5
t-48 -1.5h-22q-33 0 -60.5 8t-60.5 25q-8 0 -15 7t-7 15q-8 0 -15 1.5t-7 9.5q-8 0 -11 1.5t-11 9.5q8 -8 11 -9.5t11 -1.5q-8 8 -9.5 5.5t-1.5 5.5h-11q0 8 -6 10q-3 1 -5 1q0 2 -1 5q-2 6 -10 6q0 8 -5.5 11t-5.5 11q0 -3 1 -6q2 -5 10 -5l-11 11q8 -8 16.5 -11t16.5 -11
v-11h11h-11v11l11 -11h11v-11h11q2 0 5 -1q6 -2 6 -10q25 -8 45.5 -16.5t53.5 -16.5h55q25 0 49.5 1.5t49.5 9.5q8 8 22 11t22 11zM471 66q8 8 9.5 8t1.5 -8h-11zM691 539h-22h22zM669 528v11v-11zM647 528v-11h-11zM669 528h-11h11zM669 539h-11h11zM614 363
q-17 4 -24 13.5t-9 18.5q-3 11 0 23q0 25 13.5 40t30.5 15q8 0 20.5 -15t12.5 -40q-2 -16 -6 -28q-5 -11 -13 -19t-25 -8zM592 462q-8 -8 -9.5 -8t-1.5 8q0 -8 -5.5 -17.5t-5.5 -26.5v11v11q0 8 7 16.5t15 16.5v-11zM691 517q-8 0 -23 -7t-32 -15h-11q8 0 11 1.5t11 9.5
q0 4 3.5 4.5t9 0.5t11 1t9.5 5h11h22q8 0 11 5.5t11 5.5q4 0 9.5 -3.5t9.5 -6.5t5.5 -4t-2.5 3h-66zM361 187v-11v11z" />
    <glyph glyph-name="uni040B" unicode="&#x40b;" horiz-adv-x="883" 
d="M778 693q-5 0 -5 -2t1 -4q1 -3 4 -5h-11zM778 671q8 8 11 9.5t11 1.5q0 8 5 10q3 1 6 1l-11 -11q-3 -3 -7 -6q-7 -5 -15 -5q-8 -8 -16.5 -11t-16.5 -11q-5 0 -5 1.5t1 3.5q1 3 4 6h22q0 8 1.5 9.5t9.5 1.5zM778 99q0 -13 -3 -25q-2 -11 -6.5 -22t-12.5 -19t-11 -9.5
t-11 -1.5h-11h-11q-25 0 -36.5 12t-15.5 27.5t-3.5 30t0.5 18.5q8 33 23 55t32 22v33q-8 17 -16.5 27.5t-16.5 27.5q-8 33 -28.5 59t-37.5 51l-22 22v11h-11q0 8 -6 10q-3 1 -5 1l-11 11l-22 22q4 -25 4.5 -49t-0.5 -43.5t-2.5 -33t-1.5 -17.5q-4 -66 -14 -124t-25.5 -101.5
t-36 -68.5t-45.5 -25q-29 0 -51.5 25t-39 68.5t-27 101.5t-14.5 124q0 4 -0.5 36.5t3.5 76t15.5 88.5t36.5 74q-8 0 -22 5.5t-22 5.5h-33q-17 4 -34.5 8t-34 8.5t-30.5 8.5t-22 8q-17 8 -26.5 15t-17.5 7q0 8 -7 11t-15 11l11 -11l-11 11q-17 8 -23.5 8t1.5 -8q-8 8 -16 13
t-14 9t-10 9t-4 13q3 6 8 10q4 3 10.5 4t14.5 -3h11h22q4 -4 12 -10t17 -12t19 -12t18 -10q8 0 11 -1.5t11 -9.5q25 -8 56.5 -11t64.5 -11q25 -8 49.5 -9.5t49.5 -1.5q50 0 93.5 1.5t93.5 9.5q3 0 7 1q7 2 15 10h11h11h11q8 0 11 5.5t11 5.5l-11 -11h11v11h11q17 8 27.5 11
t27.5 11h22h-11h-11l-11 -11q8 0 15 1.5t7 9.5q-8 -8 -16.5 -15t-16.5 -7q0 -8 -6 -10q-3 -1 -5 -1h-11q-8 0 -11 -5.5t-11 -5.5t-11 -1.5t-11 -9.5q-3 3 -6 4q-5 2 -5 -4q-4 0 -8 -1.5t-6 -2.5t-1.5 -0.5l4.5 4.5q8 0 16.5 1.5t16.5 9.5q-8 -8 -16.5 -11t-16.5 -11h-44
q-3 0 -6 -1q-5 -2 -5 -10q8 0 17.5 5.5t26.5 5.5h22h11h11h-11h11h11v11h22h11q17 8 32 11t23 11h22h-11q-7 0 -15 -6q-4 -3 -7 -5q8 0 15 1.5t7 9.5q-8 -8 -16.5 -15t-16.5 -7l-11 -11h-11q-8 0 -11 -1.5t-11 -9.5h-22h-11q-8 0 -13.5 -5.5t2.5 -5.5t16.5 5.5t16.5 5.5
q-8 -8 -16.5 -9.5t-16.5 -1.5t-22 -1.5t-22 -9.5q-8 0 -23 -5.5t-32 -5.5h-33q17 -25 26.5 -56.5t17.5 -64.5q0 -8 5 -10q3 -1 6 -1h11v-11h11q0 -8 5 -10q3 -1 6 -1q8 -8 11 -9.5t11 -1.5v-11q6 -3 10 -4q3 -1 4 -1t-3 5l-22 22l22 -22q8 -8 11 -15t11 -7l33 -33
q25 -33 47 -67t30 -76q8 -8 9.5 -11t1.5 -11q0 -17 7 -33t15 -33v-33zM657 649h11h-11zM602 638q-8 -8 -11 -8t-11 8h22zM558 660h22h-22zM602 396l11 -11q0 2 -1 5q-2 6 -10 6zM844 726h11h-11zM844 726v-11h-22h11h-11q8 0 15 1.5t7 9.5zM811 792q16 -8 18.5 -16t-2 -15.5
t-10.5 -13.5t-6 -10q-8 0 -16.5 -5.5t-16.5 -5.5q-8 -8 -15 -11t-7 -11q-8 -8 -17.5 -11t-26.5 -11l11 11h11q8 8 11 9.5t11 1.5q8 8 11 15t11 7q-17 -17 -33 0h-11q-8 4 -10.5 10t-1.5 13.5t4.5 15.5t7.5 16q4 0 10.5 5t15.5 9t21.5 4.5t29.5 -7.5zM789 693h-11h11z
M745 726q0 -8 -1.5 -9.5t-9.5 -1.5z" />
    <glyph glyph-name="uni040C" unicode="&#x40c;" horiz-adv-x="842" 
d="M699 66h-11h11zM721 121h11h-11zM721 121v-11v11zM765 110h-11q-8 0 -16.5 -5.5t-16.5 -5.5q-8 -8 -12.5 -9.5t-20.5 -1.5q0 -8 5.5 -2.5t5.5 13.5q8 0 10 -6q1 -3 1 -5q8 8 11 9.5t11 1.5t11 5.5t11 5.5h11zM677 44q8 0 11 5.5t11 5.5h11h-11q-8 -8 -16.5 -9.5
t-16.5 -1.5q-8 -8 -17.5 -9.5t-26.5 -1.5q-4 0 -3 0t4 1t6.5 3.5t3.5 6.5q8 0 11 -5.5t11 -5.5q0 8 5 10q3 1 6 1h11zM644 44q-8 0 -22 -1.5t-22 -9.5h-11h-11q-8 8 -16.5 4t-16.5 -4h-22q-3 3 -6 4q-5 2 -5 -4h-11h44h-44q-8 0 -17.5 1.5t-26.5 9.5q-8 0 -23 -4t-32 4
q-25 8 -55 16.5t-55 16.5q-4 -17 -12 -31t-17 -24t-19 -16t-18 -6q-21 0 -37.5 15.5t-30 42.5t-24 63t-18.5 77q-33 33 -33 66l-9.5 19t-11 18t-9 7.5t-3.5 -11.5q0 16 -3.5 27t-6.5 19.5t-4 15.5t3 15q4 0 8.5 3t9.5 5t11.5 1t14.5 -9q0 -8 12.5 -23t20.5 -32q0 33 3.5 73
t14.5 75.5t33 59t59 23.5q33 0 53 -20t31 -50t16.5 -64.5t9.5 -63.5q8 8 11 16.5t11 16.5q25 42 63 69t80 52q8 8 22 11t22 11q8 0 16.5 5.5t16.5 5.5q8 8 16.5 9.5t16.5 1.5q-8 0 -16.5 -1.5t-16.5 -9.5h11q0 2 1 5q2 6 10 6h11h11h11l11 11h11h44q-8 0 -11 -1.5t-11 -9.5
v11v-11q2 0 5 1q6 2 6 10h11l-11 -11q-8 0 -22 -1.5t-22 -9.5h-11h-11h11q-8 0 -11 -5.5t-11 -5.5h-11v-11h-11q-8 0 -11 -5.5t-11 -5.5q-33 -17 -60.5 -40t-60.5 -48q-17 -17 -27.5 -33t-27.5 -33q-8 -17 -18 -31.5t-19 -30t-17 -32.5t-12 -38v-44q3 -3 7 -6q7 -5 15 -5
l66 -33q42 -17 77 -25t77 -8h22h11q0 -8 5.5 -8t5.5 8h22l-11 -11h11v11h11h55h11h-11h-22h11h11h11q-8 0 -22 -5.5t-22 -5.5q0 -8 -1.5 -9.5t-9.5 -1.5l-11 11l-11 -11h-11h-11h-11q-8 0 -13.5 -5.5t2.5 -5.5t16.5 1.5t16.5 9.5q-8 -8 -16.5 -9.5t-16.5 -1.5h-33h-55
q-17 0 -33 5.5t-33 5.5q8 0 22 -1.5t22 -9.5h22l22 -11h11h22h-11h11h11h11h55q2 0 5 -1q6 -2 6 -10q0 2 -1 5q-2 6 -10 6v-11q-8 8 -11 8t-11 -8h11h22zM578 88q-8 0 -11 1.5t-11 9.5q8 0 11 -1.5t11 -9.5zM578 517q-8 0 -10 -6q-1 -3 -1 -5zM479 66h11h-11zM666 66h11h-11
zM699 572q0 -3 -1 -6q-2 -5 -10 -5q-6 2 -10 5q-8 6 -1 6h33h33h11h-11h-22h-22zM776 561h22h-22zM798 561h11h-11zM765 561q4 0 13 -2.5t17 -8.5t13 -17t1 -27q-5 -17 -14 -22.5t-18 -5.5q-11 0 -23 6q-25 8 -38.5 23t-5.5 32q0 2 1 5q2 6 10 6q8 8 22 9.5t22 1.5zM754 77
h-22q8 0 8 -1.5t-8 -9.5v11h22zM765 77h-11h11zM798 143q-3 -3 -7 -6q-7 -5 -15 -5q8 8 11 9.5t11 1.5zM413 605v11v-11zM435 605h11h11q8 0 16.5 5.5t16.5 5.5q-17 8 -19.5 24.5t-2.5 41.5q6 12 15 21q8 8 17.5 12t22.5 0q12 -4 17 -10t6 -13.5t0 -15.5t-1 -16v-11
q-3 0 -6 -1q-5 -2 -5 -10l-11 -11l-11 -11q-8 -8 -16.5 -9.5t-16.5 -1.5h-11h-11h-11h11h-11h-11zM468 605h-11h11zM424 605h11h-11z" />
    </font>
</defs>
</svg>
